<svg width="217" height="20" viewBox="0 0 217 20" fill="none" xmlns="http://www.w3.org/2000/svg">
    <g clip-path="url(#clip0_2086_33015)">
        <path
            d="M13.7673 16.709V10.0804C13.7673 7.37608 15.3518 5.22233 18.5212 5.22233C19.03 5.2149 19.5376 5.27112 20.0323 5.38968V8.11659C19.6722 8.09274 19.3607 8.09274 19.2163 8.09274C17.5374 8.09274 16.8154 8.85835 16.8154 10.4138V16.709H13.7673Z"
            fill="#44403C" />
        <path
            d="M20.9447 11.0866C20.9447 7.76019 23.4656 5.22363 26.9712 5.22363C30.4769 5.22363 32.9969 7.75851 32.9969 11.0866C32.9969 14.4147 30.476 16.9718 26.9708 16.9718C23.4656 16.9718 20.9447 14.4114 20.9447 11.0866ZM29.9963 11.0866C29.9963 9.19602 28.7236 7.85599 26.9712 7.85599C25.2189 7.85599 23.9458 9.19476 23.9458 11.0866C23.9458 13.0011 25.2184 14.3172 26.9712 14.3172C28.7241 14.3172 29.9958 12.9994 29.9958 11.0866H29.9963Z"
            fill="#44403C" />
        <path
            d="M41.8319 7.87819H38.5429V12.066C38.5429 13.5257 39.0709 14.1959 40.5836 14.1959C40.7276 14.1959 41.0873 14.1959 41.544 14.1721V16.6371C40.9198 16.8044 40.3687 16.9003 39.7672 16.9003C37.2224 16.9003 35.4935 15.3686 35.4935 12.4731V7.87819H33.4528V5.46129H33.9615C34.1628 5.46129 34.3622 5.42174 34.5481 5.34489C34.7341 5.26805 34.9031 5.15542 35.0454 5.01344C35.1877 4.87146 35.3005 4.70293 35.3774 4.51747C35.4543 4.332 35.4937 4.13325 35.4935 3.93258V1.65625H38.5429V5.46129H41.8319V7.87819Z"
            fill="#44403C" />
        <path
            d="M42.744 11.0866C42.744 7.76019 45.2649 5.22363 48.7706 5.22363C52.2762 5.22363 54.7967 7.75851 54.7967 11.0866C54.7967 14.4147 52.2758 16.9734 48.7706 16.9734C45.2654 16.9734 42.744 14.4114 42.744 11.0866ZM51.7952 11.0866C51.7952 9.19602 50.5225 7.85599 48.7701 7.85599C47.0178 7.85599 45.7447 9.19476 45.7447 11.0866C45.7447 13.0011 47.0173 14.3172 48.7701 14.3172C50.523 14.3172 51.7952 12.9994 51.7952 11.0866Z"
            fill="#44403C" />
        <path
            d="M56.3812 16.7083V10.3191C56.3812 7.35158 58.278 5.22168 61.6632 5.22168C65.0244 5.22168 66.9212 7.35158 66.9212 10.3191V16.7083H63.8961V10.5584C63.8961 8.90749 63.1515 7.8783 61.6632 7.8783C60.1748 7.8783 59.4302 8.90749 59.4302 10.5584V16.7083H56.3812Z"
            fill="#44403C" />
        <path
            d="M7.41078e-07 12.3573V16.7083H3.06406V12.5455C3.06406 12.1405 3.22547 11.7521 3.51278 11.4658C3.80009 11.1794 4.18977 11.0185 4.59609 11.0185H7.7378C9.20341 11.0181 10.6089 10.4375 11.6451 9.40438C12.6813 8.37129 13.2635 6.9703 13.2636 5.50946V5.50946C13.2636 4.04841 12.6814 2.64718 11.6449 1.61398C10.6085 0.58078 9.20279 0.000221893 7.73696 0L7.41078e-07 0V5.43876H3.06406V2.87459H7.53045C8.22394 2.87459 8.88904 3.14913 9.37949 3.63782C9.86994 4.12652 10.1456 4.78936 10.1458 5.4806V5.4806C10.1458 6.17197 9.87026 6.83503 9.37979 7.32391C8.88931 7.81279 8.22409 8.08744 7.53045 8.08744H4.28339C3.72077 8.08716 3.16362 8.19742 2.64378 8.41191C2.12395 8.62639 1.65162 8.9409 1.25381 9.33746C0.856002 9.73401 0.540509 10.2048 0.325372 10.723C0.110234 11.2412 -0.000330277 11.7965 7.41078e-07 12.3573V12.3573Z"
            fill="#44403C" />
        <path d="M78.8547 5.21973H77.5322V16.9608H78.8547V5.21973Z" fill="#44403C" />
        <path
            d="M89.8684 16.7348V5.3631H94.3577C95.3478 5.3631 96.1825 5.68634 96.8612 6.33318C97.5398 6.97967 97.8793 7.77134 97.8793 8.70785C97.8793 9.64435 97.5398 10.4248 96.8612 11.0825C96.1825 11.7402 95.3481 12.0692 94.3577 12.0692H91.4373V16.7351H89.8684V16.7348ZM91.4373 10.6307H94.024C94.7805 10.6307 95.3424 10.4469 95.7096 10.0789C96.0881 9.69964 96.277 9.24275 96.277 8.70751C96.277 8.17227 96.0935 7.72081 95.7262 7.35278C95.3701 6.98476 94.8194 6.80092 94.0741 6.80092H91.4373V10.6307V10.6307ZM99.2502 11.7846C99.2502 10.8369 99.5173 10.0955 100.051 9.56057C100.586 9.01414 101.286 8.74109 102.154 8.74109C102.432 8.74109 102.716 8.7801 103.005 8.85811V10.263C102.905 10.2518 102.705 10.2464 102.404 10.2464C101.881 10.2464 101.481 10.3912 101.203 10.6813C100.924 10.9713 100.785 11.4617 100.785 12.153V16.7351H99.2499V11.785L99.2502 11.7846ZM104.531 16.7348V8.90831H106.066V16.7348H104.531ZM104.581 7.11874C104.392 6.92914 104.297 6.69509 104.297 6.41628C104.297 6.13747 104.392 5.90343 104.581 5.71382C104.781 5.51302 105.02 5.41296 105.299 5.41296C105.577 5.41296 105.81 5.51336 106 5.71382C106.2 5.90343 106.3 6.13747 106.3 6.41628C106.3 6.69509 106.2 6.92914 106 7.11874C105.81 7.30835 105.577 7.40298 105.299 7.40298C105.02 7.40298 104.781 7.30835 104.581 7.11874ZM110.253 16.7348L107.182 8.90831H108.868L110.637 13.8249C110.77 14.1929 110.87 14.5161 110.937 14.795H110.971C111.037 14.5161 111.137 14.1929 111.271 13.8249L113.04 8.90831H114.742L111.671 16.7348H110.253H110.253ZM118.998 16.902C117.953 16.902 117.057 16.534 116.312 15.7983C115.577 15.0626 115.21 14.0701 115.21 12.8215C115.21 11.573 115.577 10.5805 116.312 9.84481C117.057 9.10911 117.953 8.74109 118.998 8.74109C119.555 8.74109 120.072 8.86388 120.55 9.10911C121.04 9.34315 121.429 9.67759 121.719 10.1124L121.852 8.90831H123.204V16.7348H121.852L121.719 15.5307C121.429 15.9655 121.04 16.3054 120.55 16.5509C120.072 16.785 119.555 16.902 118.998 16.902ZM117.48 10.8817C116.99 11.361 116.746 12.0078 116.746 12.8215C116.746 13.6353 116.99 14.2875 117.48 14.7783C117.969 15.2576 118.559 15.4974 119.249 15.4974C119.938 15.4974 120.495 15.2522 120.984 14.7617C121.474 14.26 121.719 13.6132 121.719 12.8219C121.719 12.0306 121.474 11.3891 120.984 10.8987C120.495 10.397 119.916 10.146 119.249 10.146C118.581 10.146 117.969 10.3912 117.48 10.8817ZM128.896 16.902C127.739 16.902 126.782 16.5228 126.026 15.7647C125.269 14.9954 124.891 14.0145 124.891 12.8215C124.891 11.6286 125.269 10.6531 126.026 9.89501C126.782 9.12573 127.739 8.74109 128.896 8.74109C129.842 8.74109 130.648 9.00871 131.316 9.54395C131.983 10.0792 132.412 10.7593 132.601 11.5842H131.015C130.615 10.6253 129.909 10.146 128.896 10.146C128.184 10.146 127.594 10.397 127.127 10.8987C126.659 11.4003 126.426 12.0414 126.426 12.8219C126.426 13.6024 126.659 14.2434 127.127 14.7451C127.594 15.2468 128.184 15.4978 128.896 15.4978C129.886 15.4978 130.593 15.0185 131.015 14.0596H132.601C132.412 14.8845 131.983 15.5646 131.316 16.0998C130.648 16.6351 129.842 16.9027 128.896 16.9027V16.902ZM136.739 14.9788C136.794 14.622 136.894 14.2485 137.039 13.8584L138.858 8.90831H140.493L136.154 20.0127H134.502L135.871 16.6347L132.883 8.90865H134.586L136.405 13.8588C136.549 14.2489 136.649 14.6226 136.705 14.9791H136.739V14.9788ZM149.811 16.902C148.598 16.902 147.702 16.4505 147.124 15.5473L146.991 16.7348H145.639V5.3631H147.174V10.012C147.753 9.16474 148.632 8.74109 149.811 8.74109C150.846 8.74109 151.73 9.10911 152.464 9.84481C153.198 10.5805 153.566 11.573 153.566 12.8215C153.566 14.0701 153.198 15.0626 152.464 15.7983C151.73 16.534 150.846 16.902 149.811 16.902V16.902ZM147.842 10.8817C147.363 11.3722 147.124 12.019 147.124 12.8215C147.124 13.6241 147.363 14.2709 147.842 14.7614C148.331 15.2518 148.915 15.4971 149.594 15.4971C150.273 15.4971 150.862 15.2573 151.33 14.778C151.797 14.2987 152.031 13.6465 152.031 12.8212C152.031 11.996 151.797 11.344 151.33 10.8644C150.862 10.3848 150.284 10.1453 149.594 10.1453C148.904 10.1453 148.331 10.3906 147.842 10.881V10.8817ZM157.86 14.9788C157.916 14.622 158.016 14.2485 158.16 13.8584L159.979 8.90831H161.615L157.276 20.0127H155.624L156.992 16.6347L154.005 8.90865H155.707L157.526 13.8588C157.671 14.2489 157.771 14.6226 157.827 14.9791H157.86V14.9788ZM172.584 16.7348L172.451 15.5473C171.873 16.4502 170.977 16.902 169.764 16.902C168.729 16.902 167.845 16.534 167.111 15.7983C166.376 15.0626 166.009 14.0701 166.009 12.8215C166.009 11.573 166.376 10.5805 167.111 9.84481C167.845 9.10911 168.729 8.74109 169.764 8.74109C170.944 8.74109 171.823 9.16474 172.401 10.012V5.3631H173.936V16.7348H172.584V16.7348ZM168.245 10.8648C167.778 11.344 167.544 11.9963 167.544 12.8215C167.544 13.6468 167.778 14.2987 168.245 14.7783C168.713 15.2576 169.292 15.4974 169.982 15.4974C170.671 15.4974 171.239 15.2522 171.717 14.7617C172.207 14.2712 172.451 13.6244 172.451 12.8219C172.451 12.0194 172.206 11.3725 171.717 10.8821C171.239 10.3916 170.66 10.1464 169.982 10.1464C169.304 10.1464 168.713 10.3862 168.245 10.8654V10.8648ZM179.629 16.902C178.483 16.902 177.537 16.5228 176.792 15.7647C176.057 15.0066 175.69 14.0253 175.69 12.8215C175.69 11.6178 176.057 10.6365 176.792 9.87839C177.525 9.1203 178.471 8.74109 179.629 8.74109C180.663 8.74109 181.542 9.13692 182.266 9.92859C182.999 10.7091 183.367 11.6734 183.367 12.8219C183.367 13.0671 183.356 13.2679 183.333 13.4239H177.276C177.387 14.0596 177.654 14.5667 178.076 14.9459C178.51 15.3139 179.028 15.4978 179.629 15.4978C180.596 15.4978 181.253 15.1297 181.598 14.394H183.166C182.933 15.1521 182.493 15.7596 181.847 16.2168C181.214 16.6741 180.474 16.9023 179.628 16.9023L179.629 16.902ZM177.292 12.1527H181.781C181.726 11.6062 181.497 11.1381 181.097 10.7477C180.696 10.3465 180.207 10.1457 179.628 10.1457C179.05 10.1457 178.516 10.3295 178.093 10.6975C177.681 11.0544 177.414 11.5394 177.292 12.1523V12.1527ZM185.269 7.95519C185.269 7.11908 185.502 6.46139 185.97 5.98178C186.437 5.5025 187.038 5.2627 187.772 5.2627C188.084 5.2627 188.379 5.3017 188.657 5.37972V6.65066C188.479 6.62827 188.323 6.61708 188.189 6.61708C187.267 6.61708 186.805 7.07431 186.805 7.98843V8.90831H188.991V10.2128H186.805V16.7348H185.269V10.2128H183.767V8.90831H185.269V7.95519V7.95519ZM193.413 16.9023C192.367 16.9023 191.471 16.5343 190.726 15.7986C189.992 15.0629 189.625 14.0704 189.625 12.8219C189.625 11.5733 189.992 10.5809 190.726 9.84515C191.471 9.10945 192.367 8.74143 193.413 8.74143C193.969 8.74143 194.486 8.86421 194.965 9.10945C195.454 9.34349 195.844 9.67793 196.133 10.1128L196.266 8.90865H197.618V16.7351H196.266L196.133 15.531C195.843 15.9658 195.454 16.3057 194.965 16.5513C194.486 16.7853 193.969 16.9023 193.413 16.9023ZM191.894 10.8821C191.405 11.3613 191.16 12.0082 191.16 12.8219C191.16 13.6356 191.405 14.2879 191.894 14.7787C192.384 15.2579 192.973 15.4978 193.663 15.4978C194.354 15.4978 194.909 15.2525 195.398 14.7621C195.889 14.2604 196.133 13.6136 196.133 12.8222C196.133 12.0309 195.888 11.3895 195.398 10.899C194.909 10.3974 194.331 10.1464 193.663 10.1464C192.996 10.1464 192.384 10.3916 191.894 10.8821ZM205.547 15.9658C204.946 16.5903 204.139 16.9023 203.127 16.9023C202.115 16.9023 201.308 16.5903 200.707 15.9658C200.106 15.3414 199.806 14.5331 199.806 13.541V8.90865H201.341V13.4239C201.341 14.0704 201.492 14.5724 201.792 14.9289C202.092 15.2858 202.537 15.4642 203.127 15.4642C203.717 15.4642 204.162 15.2858 204.462 14.9289C204.762 14.5721 204.913 14.0704 204.913 13.4239V8.90865H206.448V13.541C206.448 14.5331 206.148 15.3414 205.547 15.9658ZM208.761 16.7351V5.3631H210.296V16.7348H208.761V16.7351ZM215.836 16.8355C215.057 16.8355 214.412 16.6015 213.901 16.1331C213.4 15.6646 213.149 15.0239 213.149 14.2098L213.132 10.2128H211.748V8.90831H213.132V6.28264H214.685V8.90831H216.955V10.2128H214.685V14.0257C214.685 14.5609 214.807 14.9344 215.052 15.146C215.308 15.3468 215.708 15.4469 216.254 15.4469C216.409 15.4469 216.604 15.4414 216.837 15.4303V16.7178C216.515 16.7958 216.181 16.8348 215.836 16.8348V16.8355Z"
            fill="#44403C" />
    </g>
    <defs>
        <clipPath id="clip0_2086_33015">
            <rect width="216.974" height="20" fill="white" />
        </clipPath>
    </defs>
</svg>