<svg width="120" height="23" viewBox="0 0 120 23" fill="none" xmlns="http://www.w3.org/2000/svg">
<g clip-path="url(#clip0_4_5438)">
<path d="M10.6466 5.40427C10.7502 5.71188 10.9668 5.96299 11.2556 6.10738C11.4282 6.19211 11.6134 6.23605 11.7986 6.23605C11.9273 6.23605 12.0591 6.2141 12.1847 6.17328L17.9007 4.26796C18.5379 4.05764 18.8801 3.36711 18.6697 2.72991C18.4594 2.09271 17.7657 1.75057 17.1315 1.96088L11.4156 3.86619C10.7816 4.07651 10.4363 4.76706 10.6466 5.40427Z" fill="white"/>
<path d="M12.0877 18.3174C12.2321 18.0256 12.2572 17.699 12.1536 17.3882C11.9433 16.7543 11.2527 16.4089 10.6155 16.6193L4.89958 18.5245C4.59193 18.6282 4.34082 18.8448 4.19647 19.1336C4.05204 19.4224 4.02697 19.752 4.13054 20.0626C4.30003 20.5711 4.77402 20.8945 5.28252 20.8945C5.41119 20.8945 5.53991 20.8757 5.66546 20.8318L11.3814 18.9264C11.689 18.8228 11.9401 18.6062 12.0845 18.3174H12.0877Z" fill="white"/>
<path d="M6.62871 7.69244C6.80133 7.78033 6.98655 7.82112 7.1686 7.82112C7.61432 7.82112 8.04436 7.57628 8.25781 7.1494L10.951 1.75989C11.0954 1.47111 11.1205 1.14153 11.0169 0.830774C10.9133 0.523161 10.6967 0.272046 10.408 0.127656C9.80841 -0.17054 9.07707 0.0711562 8.77886 0.670687L6.08567 6.06019C5.78746 6.65973 6.02917 7.39111 6.62871 7.68928V7.69244Z" fill="white"/>
<path d="M16.1674 15.0998C15.8786 14.9554 15.5459 14.9303 15.2383 15.0339C14.9307 15.1374 14.6795 15.354 14.5352 15.6428L11.842 21.0323C11.6976 21.3211 11.6725 21.6507 11.776 21.9615C11.8796 22.2723 12.0962 22.5201 12.385 22.6646C12.5576 22.7493 12.7397 22.7932 12.928 22.7932C13.0567 22.7932 13.1886 22.7712 13.3141 22.7305C13.6217 22.6268 13.8728 22.4103 14.0172 22.1214L16.7104 16.732C16.8548 16.4432 16.8799 16.1136 16.7763 15.8029C16.6727 15.4953 16.4561 15.2442 16.1674 15.0998Z" fill="white"/>
<path d="M3.86931 11.3808C4.03881 11.8893 4.5128 12.2127 5.02445 12.2127C5.15001 12.2127 5.28184 12.1938 5.40739 12.1499C6.04145 11.9396 6.38672 11.249 6.1764 10.6118L4.27108 4.89586C4.06076 4.26181 3.37022 3.91337 2.73303 4.12682C2.09896 4.33714 1.75369 5.02769 1.964 5.6649L3.86931 11.3808Z" fill="white"/>
<path d="M18.927 11.412C18.7167 10.7748 18.026 10.4327 17.3888 10.643C17.0812 10.7466 16.8301 10.9632 16.6857 11.252C16.5413 11.5408 16.5162 11.8703 16.6198 12.1811L18.5251 17.897C18.6947 18.4056 19.1687 18.7289 19.677 18.7289C19.8059 18.7289 19.9345 18.71 20.0601 18.666C20.6941 18.4557 21.0395 17.7652 20.8291 17.128L18.9238 11.412H18.927Z" fill="white"/>
<path d="M6.6064 16.8392C6.73507 16.8392 6.8669 16.8172 6.99246 16.7763C7.30011 16.6728 7.55121 16.4562 7.6956 16.1674C7.83999 15.8787 7.8651 15.5491 7.7615 15.2383C7.65794 14.9307 7.44134 14.6796 7.15256 14.5352L1.76305 11.842C1.16352 11.5438 0.432152 11.7855 0.133957 12.385C-0.0104328 12.6769 -0.0355441 13.0034 0.0680399 13.3142C0.171624 13.6218 0.388208 13.8729 0.676988 14.0173L6.06651 16.7104C6.23913 16.7953 6.42434 16.8392 6.60952 16.8392H6.6064Z" fill="white"/>
<path d="M22.7312 9.48194C22.6277 9.17437 22.4112 8.92323 22.1223 8.77884L16.7328 6.08565C16.1333 5.78747 15.4019 6.02919 15.1037 6.62869C14.9593 6.92063 14.9342 7.24707 15.0378 7.55783C15.1413 7.86541 15.3579 8.11655 15.6467 8.26094L21.0361 10.9541C21.2089 11.042 21.3941 11.0828 21.5761 11.0828C22.0219 11.0828 22.4519 10.838 22.6652 10.4111C22.8097 10.1223 22.8348 9.79271 22.7312 9.48194Z" fill="white"/>
<path d="M39.1101 20.7755H33.432L33.1621 20.5055V2.11468L33.432 1.84473H39.1101C45.8714 1.84473 48.0374 5.63026 48.0374 11.3117C48.0374 16.993 45.8745 20.7786 39.1101 20.7786V20.7755ZM38.8403 4.27738H36.1345L35.8647 4.54733V18.0698L36.1345 18.3397H38.8403C43.979 18.3397 45.3315 15.907 45.3315 11.3085C45.3315 6.71003 43.979 4.27738 38.8403 4.27738Z" fill="white"/>
<path d="M56.4209 6.98291C60.4763 6.98291 62.9121 9.68866 62.9121 14.0141C62.9121 18.3395 60.4763 21.0452 56.4209 21.0452C52.3651 21.0452 49.9297 18.3395 49.9297 14.0141C49.9297 9.68866 52.3624 6.98291 56.4209 6.98291ZM56.4209 18.6126C58.8536 18.6126 60.2062 16.9897 60.2062 14.0141C60.2062 11.0384 58.8536 9.41559 56.4209 9.41559C53.9882 9.41559 52.6352 11.0384 52.6352 14.0141C52.6352 16.9897 53.9882 18.6126 56.4209 18.6126Z" fill="white"/>
<path d="M84.0093 20.7754H81.8463L81.5766 20.5054V12.3913C81.5766 10.7685 81.3064 9.41559 79.1438 9.41559C77.251 9.41559 76.1682 10.7685 76.1682 12.9312V20.5054L75.8984 20.7754H73.7355L73.4657 20.5054V12.3913C73.4657 10.7685 73.1956 9.41559 71.033 9.41559C69.68 9.41559 68.0573 10.2254 68.0573 12.9312V20.5054L67.7872 20.7754H65.6246L65.3545 20.5054V7.52283L65.6246 7.25289H67.5175L67.7872 7.52283L68.0573 8.60573H68.3271C68.867 7.7959 69.9498 6.98291 71.8426 6.98291C74.0056 6.98291 74.8187 8.06584 75.3586 8.87571H75.6283C76.4383 7.79278 77.7909 6.98291 79.6837 6.98291C83.4694 6.98291 84.2825 9.41871 84.2825 12.3913V20.5054L84.0123 20.7754H84.0093Z" fill="white"/>
<path d="M89.6876 5.09077H87.525L87.2549 4.82082V2.65813L87.525 2.38818H89.6876L89.9577 2.65813V4.82082L89.6876 5.09077ZM89.6876 20.779H87.525L87.2549 20.5092V7.52341L87.525 7.25351H89.6876L89.9577 7.52341V20.506L89.6876 20.7758V20.779Z" fill="white"/>
<path d="M104.563 20.7754H102.4L102.13 20.5054V12.6612C102.13 11.2832 101.86 9.41559 99.4244 9.41559C96.9883 9.41559 95.9085 10.7402 95.9085 14.0141V20.5054L95.6388 20.7754H93.4758L93.2061 20.5054V7.52283L93.4758 7.25289H95.3686L95.6388 7.52283L95.9085 8.60573H96.1787C96.9632 7.57933 98.2594 6.98291 99.6942 6.98291C103.479 6.98291 104.832 9.41871 104.832 12.6643V20.5086L104.563 20.7784V20.7754Z" fill="white"/>
<path d="M113.49 6.98291C117.546 6.98291 119.981 9.68866 119.981 14.0141C119.981 18.3395 117.546 21.0452 113.49 21.0452C109.435 21.0452 106.999 18.3395 106.999 14.0141C106.999 9.68866 109.432 6.98291 113.49 6.98291ZM113.49 18.6126C115.923 18.6126 117.275 16.9897 117.275 14.0141C117.275 11.0384 115.923 9.41559 113.49 9.41559C111.057 9.41559 109.705 11.0384 109.705 14.0141C109.705 16.9897 111.057 18.6126 113.49 18.6126Z" fill="white"/>
</g>
<defs>
<clipPath id="clip0_4_5438">
<rect width="120" height="22.8282" fill="white"/>
</clipPath>
</defs>
</svg>
