<svg height="32" viewBox="0 0 131 32" width="131" xmlns="http://www.w3.org/2000/svg"><g fill="none"><path d="m48.215.738v18.216a1.64 1.64 0 0 0 1.63 1.64h9.125v4.185h-10.837c-2.444 0-4.4-1.969-4.4-4.43v-19.61h4.482zm12.629 7.057h4.156v17.067h-4.156zm3.016-2.954h-1.956c-.57 0-1.06-.492-1.06-1.067v-1.969c0-.574.49-1.067 1.06-1.067h1.955c.57 0 1.06.493 1.06 1.067v1.887c.081.657-.408 1.149-1.06 1.149zm45.14 0h-1.956c-.57 0-1.059-.492-1.059-1.067v-1.969c0-.574.49-1.067 1.06-1.067h1.955c.57 0 1.06.493 1.06 1.067v1.887c.08.657-.408 1.149-1.06 1.149zm-28.193 27.077v-9.108c-1.222 1.887-3.83 2.38-5.622 2.38-5.378 0-8.474-3.939-8.474-8.862 0-5.005 3.422-8.861 8.637-8.861 1.874 0 4.156.82 5.46 2.707l.244-2.38h3.911v24.042zm-.407-15.59c0-2.625-1.793-4.84-4.807-4.84-3.015 0-4.808 2.133-4.808 4.84 0 2.708 1.956 4.841 4.808 4.841 2.851 0 4.807-2.215 4.807-4.84zm10.756-8.533v8.861c0 2.544 1.385 4.513 4.074 4.513 2.526 0 4.318-2.133 4.318-4.759v-8.615h4.156v16.984h-3.748l-.245-2.297c-1.711 1.723-3.34 2.544-5.704 2.544-3.992 0-7.007-3.036-7.007-8.37v-8.861zm14.829 0v17.067h4.156v-17.067zm24.445-7.057v24.042h-3.911l-.245-2.379c-1.304 2.051-3.422 2.708-5.46 2.708-4.97 0-8.718-3.282-8.718-8.862 0-5.825 3.667-8.861 8.556-8.861 1.792 0 4.563.984 5.54 2.707v-9.355zm-14.097 15.59c0 2.954 2.119 5.005 4.808 5.005 2.607 0 4.889-1.887 4.889-5.005 0-2.954-2.282-4.923-4.89-4.923-2.688-.082-4.807 1.805-4.807 4.923z" fill="#2c3149"/><path d="m9.953.738c-.571 0-1.06.493-1.06 1.067v4.595c0 .903.733 1.641 1.63 1.641h3.264c.897 0 1.631.738 1.631 1.641v5.087c0 .903.735 1.641 1.632 1.641h4.976c.898 0 1.632.739 1.632 1.641v3.282c0 .903.734 1.641 1.631 1.641h4.569c.57 0 1.06-.492 1.06-1.066v-20.103c0-.574-.49-1.067-1.06-1.067zm-1.061 21.252v-10.42c0-.903-.734-1.642-1.631-1.642h-5.874c-.571 0-1.06.493-1.06 1.067v19.774c0 .575.489 1.067 1.06 1.067h20.068c.571 0 1.06-.492 1.06-1.067v-5.415c0-.903-.733-1.641-1.63-1.641h-10.28c-.979 0-1.713-.739-1.713-1.723z" fill="#0157ff"/></g></svg>