<?xml version="1.0" encoding="UTF-8" standalone="no"?>
<svg
   xmlns:dc="http://purl.org/dc/elements/1.1/"
   xmlns:cc="http://creativecommons.org/ns#"
   xmlns:rdf="http://www.w3.org/1999/02/22-rdf-syntax-ns#"
   xmlns:svg="http://www.w3.org/2000/svg"
   xmlns="http://www.w3.org/2000/svg"
   xmlns:sodipodi="http://sodipodi.sourceforge.net/DTD/sodipodi-0.dtd"
   xmlns:inkscape="http://www.inkscape.org/namespaces/inkscape"
   viewBox="0 0 195.78664 70.127724"
   width="195.78664"
   height="70.127724"
   x="0px"
   y="0px"
   role="img"
   aria-labelledby="kit-logo-alt-title"
   version="1.1"
   id="svg3761"
   sodipodi:docname="404.svg"
   inkscape:version="0.92.3 (2405546, 2018-03-11)">
  <metadata
     id="metadata3765">
    <rdf:RDF>
      <cc:Work
         rdf:about="">
        <dc:format>image/svg+xml</dc:format>
        <dc:type
           rdf:resource="http://purl.org/dc/dcmitype/StillImage" />
        <dc:title>KIT - Karlsruher Institut für Technologie</dc:title>
      </cc:Work>
    </rdf:RDF>
  </metadata>
  <sodipodi:namedview
     pagecolor="#ffffff"
     bordercolor="#666666"
     borderopacity="1"
     objecttolerance="10"
     gridtolerance="10"
     guidetolerance="10"
     inkscape:pageopacity="0"
     inkscape:pageshadow="2"
     inkscape:window-width="1920"
     inkscape:window-height="1027"
     id="namedview3763"
     showgrid="false"
     inkscape:zoom="7.2732239"
     inkscape:cx="99.818184"
     inkscape:cy="35.063862"
     inkscape:window-x="-8"
     inkscape:window-y="-8"
     inkscape:window-maximized="1"
     inkscape:current-layer="svg3761"
     fit-margin-top="0"
     fit-margin-left="0"
     fit-margin-right="0"
     fit-margin-bottom="0"
     showguides="false" />
  <title
     id="kit-logo-alt-title">KIT - Karlsruher Institut für Technologie</title>
  <defs
     id="defs3743">
    <style
       id="style3741">.cls-1,.cls-2,.cls-3{fill-rule:evenodd;}.cls-2{fill:#fff;}.cls-3{fill:#009682;}</style>
  </defs>
  <polygon
     class="cls-2"
     points="70.97,70.13 "
     id="polygon3745"
     style="fill:#ffffff;fill-rule:evenodd"
     transform="translate(-0.05,-0.00227699)" />
  <polygon
     class="cls-2"
     points="70.97,70.13 "
     id="polygon3747"
     style="fill:#ffffff;fill-rule:evenodd"
     transform="translate(-0.05,-0.00227699)" />
  <path
     class="cls-3"
     d="m 16.13,25.707723 a 68.63,68.63 0 0 0 -9.29,14.61 l 64.11,29.81 z"
     id="path3749"
     inkscape:connector-curvature="0"
     style="fill:#009682;fill-rule:evenodd" />
  <path
     class="cls-3"
     d="m 70.95,70.127723 -29.91,-63.52 a 69.32,69.32 0 0 0 -14.69,9 z"
     id="path3751"
     inkscape:connector-curvature="0"
     style="fill:#009682;fill-rule:evenodd" />
  <path
     class="cls-1"
     d="M 70.95,70.127723 V 0.07772301 H 70.37 A 70.22,70.22 0 0 0 53.82,2.077723 Z"
     id="path3753"
     inkscape:connector-curvature="0"
     style="fill-rule:evenodd" />
  <polygon
     class="cls-2"
     points="70.97,70.13 70.97,70.13 "
     id="polygon3755"
     style="fill:#ffffff;fill-rule:evenodd"
     transform="translate(-0.05,-0.00227699)" />
  <polygon
     class="cls-2"
     points="70.97,70.13 70.97,70.13 "
     id="polygon3757"
     style="fill:#ffffff;fill-rule:evenodd"
     transform="translate(-0.05,-0.00227699)" />
  <path
     class="cls-3"
     d="M 2.23,52.987723 A 70.75,70.75 0 0 0 0,70.127723 H 70.95 Z"
     id="path3759"
     inkscape:connector-curvature="0"
     style="fill:#009682;fill-rule:evenodd" />
  <g
     aria-label="404"
     transform="matrix(0.81176738,0,0,1.2305098,0,0.0780031)"
     style="font-style:normal;font-weight:normal;font-size:75.21793365px;line-height:125%;font-family:sans-serif;letter-spacing:0px;word-spacing:0px;fill:#000000;fill-opacity:1;stroke:none;stroke-width:1.88044834px;stroke-linecap:butt;stroke-linejoin:miter;stroke-opacity:1"
     id="text3769">
    <path
       d="m 134.23558,43.696395 h -7.45566 V 56.927397 H 113.30099 V 43.696395 H 86.820564 V 32.943824 L 112.41953,-2.2582e-4 h 14.36039 V 33.325121 h 7.45566 z M 113.30099,33.325121 V 12.811349 L 97.398042,33.325121 Z"
       style="font-style:normal;font-variant:normal;font-weight:bold;font-stretch:normal;font-size:75.21762085px;font-family:sans-serif;-inkscape-font-specification:'sans-serif, Bold';font-variant-ligatures:normal;font-variant-caps:normal;font-variant-numeric:normal;font-feature-settings:normal;text-align:start;writing-mode:lr-tb;text-anchor:start;stroke-width:1.91601193px"
       id="path3771"
       inkscape:connector-curvature="0" />
    <path
       d="m 186.57206,28.42697 q 0,6.904743 -1.24873,12.377118 -1.24873,5.435649 -3.8931,8.924747 -2.71783,3.562554 -6.9782,5.398922 -4.26037,1.79964 -10.50402,1.79964 -6.13347,0 -10.4673,-1.836368 -4.33382,-1.836368 -7.01492,-5.435648 -2.71783,-3.599281 -3.92983,-8.924747 -1.212,-5.362194 -1.212,-12.266936 0,-7.125107 1.24873,-12.377119 1.24873,-5.252011 3.96655,-8.8880194 2.71783,-3.5992807 7.05165,-5.398921 4.33383,-1.7996403434359 10.35712,-1.7996403434359 6.28038,0 10.54075,1.8730950434359 4.26037,1.8363677 6.9782,5.5091031 2.68109,3.5992806 3.8931,8.8880196 1.212,5.252012 1.212,12.156754 z m -14.21349,0 q 0,-9.916385 -1.94655,-14.103304 -1.94655,-4.223645 -6.46401,-4.223645 -4.51747,0 -6.46402,4.223645 -1.94655,4.186919 -1.94655,14.176759 0,9.732749 1.98328,14.029849 1.98328,4.297101 6.42729,4.297101 4.44401,0 6.42729,-4.297101 1.98327,-4.2971 1.98327,-14.103304 z"
       style="font-style:normal;font-variant:normal;font-weight:bold;font-stretch:normal;font-size:75.21762085px;font-family:sans-serif;-inkscape-font-specification:'sans-serif, Bold';font-variant-ligatures:normal;font-variant-caps:normal;font-variant-numeric:normal;font-feature-settings:normal;text-align:start;writing-mode:lr-tb;text-anchor:start;stroke-width:1.88044834px"
       id="path3773"
       inkscape:connector-curvature="0" />
    <path
       d="m 241.18564,43.696394 h -7.45566 V 56.927397 H 220.25104 V 43.696394 H 193.77062 V 32.943819 L 219.36959,-2.2582e-4 h 14.36039 V 33.325121 h 7.45566 z M 220.25104,33.325121 V 12.811347 L 204.3481,33.325121 Z"
       style="font-style:normal;font-variant:normal;font-weight:bold;font-stretch:normal;font-size:75.21762085px;font-family:sans-serif;-inkscape-font-specification:'sans-serif, Bold';font-variant-ligatures:normal;font-variant-caps:normal;font-variant-numeric:normal;font-feature-settings:normal;text-align:start;writing-mode:lr-tb;text-anchor:start;stroke-width:1.91601193px"
       id="path3775"
       inkscape:connector-curvature="0" />
  </g>
</svg>
