<svg width="241" height="210" viewBox="0 0 241 210" fill="none" xmlns="http://www.w3.org/2000/svg">
<g style="mix-blend-mode:color-dodge">
<path fill-rule="evenodd" clip-rule="evenodd" d="M149.779 157.423C171.256 145.023 182.163 121.345 179.338 98.1876C173.5 102.506 167.268 106.971 160.808 111.386C159.053 123.522 151.953 134.762 140.51 141.368C129.046 147.987 115.734 148.506 104.333 143.932C97.2471 147.318 90.2532 150.468 83.6098 153.337C102.258 167.422 128.266 169.843 149.779 157.423ZM152.599 55.2575C134.272 43.3062 110.046 41.8509 89.8012 53.5391C69.5601 65.2253 58.7076 86.928 59.8899 108.771L59.8213 108.625C60.0824 112.251 55.0512 133.879 27.0548 147.69C27.0548 147.69 44.7153 148.616 73.2729 137.375L72.8975 136.573C77.369 134.668 82.0105 132.632 86.7359 130.48C85.7173 129.13 84.7702 127.703 83.9029 126.201C72.4599 106.381 79.2507 81.0372 99.0706 69.5941C118.891 58.1511 144.234 64.9419 155.677 84.7618C156.557 86.2849 157.328 87.8407 157.995 89.4202C162.2 86.4324 166.276 83.4529 170.167 80.5461L170.609 81.1783C194.623 62.0673 202.65 46.3095 202.65 46.3095C177.118 63.3654 156.145 57.3987 152.599 55.2575Z" fill="#D9D9D9"/>
<path fill-rule="evenodd" clip-rule="evenodd" d="M149.779 157.423C171.256 145.023 182.163 121.345 179.338 98.1876C173.5 102.506 167.268 106.971 160.808 111.386C159.053 123.522 151.953 134.762 140.51 141.368C129.046 147.987 115.734 148.506 104.333 143.932C97.2471 147.318 90.2532 150.468 83.6098 153.337C102.258 167.422 128.266 169.843 149.779 157.423ZM152.599 55.2575C134.272 43.3062 110.046 41.8509 89.8012 53.5391C69.5601 65.2253 58.7076 86.928 59.8899 108.771L59.8213 108.625C60.0824 112.251 55.0512 133.879 27.0548 147.69C27.0548 147.69 44.7153 148.616 73.2729 137.375L72.8975 136.573C77.369 134.668 82.0105 132.632 86.7359 130.48C85.7173 129.13 84.7702 127.703 83.9029 126.201C72.4599 106.381 79.2507 81.0372 99.0706 69.5941C118.891 58.1511 144.234 64.9419 155.677 84.7618C156.557 86.2849 157.328 87.8407 157.995 89.4202C162.2 86.4324 166.276 83.4529 170.167 80.5461L170.609 81.1783C194.623 62.0673 202.65 46.3095 202.65 46.3095C177.118 63.3654 156.145 57.3987 152.599 55.2575Z" fill="url(#paint0_radial_1869_29303)"/>
<path d="M29.8005 156.807C29.8005 156.807 83.0231 138.942 125.305 114.531C167.586 90.1195 210.653 52.3923 210.653 52.3923" stroke="url(#paint1_radial_1869_29303)" stroke-width="19.629" stroke-linecap="round"/>
</g>
<defs>
<radialGradient id="paint0_radial_1869_29303" cx="0" cy="0" r="1" gradientUnits="userSpaceOnUse" gradientTransform="translate(127.731 111.6) rotate(-119.157) scale(74.1619 100.885)">
<stop stop-color="#FFBD80"/>
<stop offset="0.29" stop-color="#F17995"/>
<stop offset="0.65" stop-color="#BF52FF"/>
<stop offset="0.77" stop-color="#9F4CFF"/>
<stop offset="0.88" stop-color="#874AFF"/>
<stop offset="1" stop-color="#704CFF"/>
</radialGradient>
<radialGradient id="paint1_radial_1869_29303" cx="0" cy="0" r="1" gradientUnits="userSpaceOnUse" gradientTransform="translate(128.914 119.102) rotate(-120) scale(121.045 156.48)">
<stop stop-color="#FFBD80"/>
<stop offset="0.29" stop-color="#F17995"/>
<stop offset="0.65" stop-color="#BF52FF"/>
<stop offset="0.77" stop-color="#9F4CFF"/>
<stop offset="0.88" stop-color="#874AFF"/>
<stop offset="1" stop-color="#704CFF"/>
</radialGradient>
</defs>
</svg>
