<svg width="24" height="22" viewBox="0 0 24 22" fill="none" xmlns="http://www.w3.org/2000/svg">
    <path
        d="M3.19999 1C1.8745 1 0.799988 2.07452 0.799988 3.4V4.2L1.59999 5V18.6L17.6 10.6L18.4 11.4H23.2V3.4C23.2 2.07452 22.1255 1 20.8 1H3.19999Z"
        fill="url(#paint0_linear_455_4631)" />
    <path
        d="M16.5142 4.2002H0.799927V17.0954C0.799927 18.3683 1.8318 19.4002 3.10469 19.4002H11.1999L15.4008 13.0989C15.807 12.1025 16.7855 11.4002 17.9279 11.4002H18.3999L18.3999 6.08591C18.3999 5.04446 17.5557 4.2002 16.5142 4.2002Z"
        fill="url(#paint1_radial_455_4631)" />
    <path
        d="M11.2 19.4002V18.5399C11.2 18.0626 11.3706 17.601 11.6812 17.2386L15.7237 12.5207C15.8074 12.4061 15.8998 12.2983 16 12.1982L15.7237 12.5207C15.3943 12.9715 15.2 13.5272 15.2 14.1282V19.4002L11.2 19.4002Z"
        fill="#B8D7FF" />
    <path
        d="M17.2799 16.5082H18.0964C18.1295 16.649 18.2123 16.7734 18.3307 16.8602C18.4466 16.9471 18.591 16.9917 18.7377 16.9846C19.1069 16.9846 19.3507 16.7828 19.3507 16.4871C19.3507 16.1913 19.0974 16.0271 18.5957 16.0271H18.2715V15.3605H18.5531C19.0383 15.3605 19.2371 15.1822 19.2371 14.917C19.2371 14.6517 19.0217 14.4687 18.7235 14.4687C18.591 14.4616 18.4585 14.5039 18.3591 14.5907C18.2573 14.6776 18.1958 14.7996 18.1839 14.931H17.3959C17.4243 14.4663 17.7935 13.7998 18.7188 13.7998C19.4619 13.7998 19.9754 14.2199 19.9754 14.8113C19.9754 15.0014 19.9163 15.1869 19.8027 15.3394C19.6891 15.492 19.5305 15.607 19.3483 15.6633V15.675C19.5613 15.7126 19.753 15.8252 19.8879 15.9919C20.0228 16.1585 20.0938 16.3674 20.0867 16.5833C20.0867 17.224 19.495 17.6465 18.7306 17.6465C17.9189 17.6512 17.3391 17.1935 17.2799 16.5082Z"
        fill="#8F69FF" />
    <path
        d="M21.5137 13.8635H22.1077V17.5928H21.341V14.7319L20.6026 15.2294V14.4761L21.5137 13.8635Z"
        fill="#8F69FF" />
    <defs>
        <linearGradient id="paint0_linear_455_4631" x1="19.618" y1="13.0289" x2="6.55254"
            y2="-5.9533" gradientUnits="userSpaceOnUse">
            <stop stop-color="#BFE8FF" />
            <stop offset="0.3075" stop-color="#BFABFF" />
            <stop offset="1" stop-color="#7341FF" />
        </linearGradient>
        <radialGradient id="paint1_radial_455_4631" cx="0" cy="0" r="1"
            gradientUnits="userSpaceOnUse"
            gradientTransform="translate(17.7269 -8.48059) scale(35.9347 32.1127)">
            <stop offset="0.502942" stop-color="#6D4AFF" />
            <stop offset="0.9944" stop-color="#06B8FF" />
        </radialGradient>
    </defs>
</svg>