<?xml version="1.0" encoding="UTF-8" standalone="no"?>
<svg
   xmlns:dc="http://purl.org/dc/elements/1.1/"
   xmlns:cc="http://creativecommons.org/ns#"
   xmlns:rdf="http://www.w3.org/1999/02/22-rdf-syntax-ns#"
   xmlns:svg="http://www.w3.org/2000/svg"
   xmlns="http://www.w3.org/2000/svg"
   xmlns:sodipodi="http://sodipodi.sourceforge.net/DTD/sodipodi-0.dtd"
   xmlns:inkscape="http://www.inkscape.org/namespaces/inkscape"
   id="svg8"
   version="1.1"
   viewBox="0 0 64.418571 14.4181"
   height="14.418099mm"
   width="64.418571mm"
   sodipodi:docname="microWorkers_new_banner-simple.svg"
   inkscape:version="0.92.3 (2405546, 2018-03-11)"
   inkscape:export-filename="/home/akanunov/microWorkers_new_banner-simple.svg.png"
   inkscape:export-xdpi="411.48001"
   inkscape:export-ydpi="411.48001">
  <sodipodi:namedview
     pagecolor="#ffffff"
     bordercolor="#666666"
     borderopacity="1"
     objecttolerance="10"
     gridtolerance="10"
     guidetolerance="10"
     inkscape:pageopacity="0"
     inkscape:pageshadow="2"
     inkscape:window-width="1680"
     inkscape:window-height="985"
     id="namedview10"
     showgrid="true"
     inkscape:zoom="3.9429694"
     inkscape:cx="114.8312"
     inkscape:cy="76.909251"
     inkscape:window-x="0"
     inkscape:window-y="0"
     inkscape:window-maximized="1"
     inkscape:current-layer="svg8">
    <inkscape:grid
       type="xygrid"
       id="grid15"
       originx="-62.938073"
       originy="5.984953" />
  </sodipodi:namedview>
  <defs
     id="defs2" />
  <metadata
     id="metadata5">
    <rdf:RDF>
      <cc:Work
         rdf:about="">
        <dc:format>image/svg+xml</dc:format>
        <dc:type
           rdf:resource="http://purl.org/dc/dcmitype/StillImage" />
        <dc:title></dc:title>
      </cc:Work>
    </rdf:RDF>
  </metadata>
  <g
     aria-label="work &amp; earn or offer a micro job"
     style="font-style:normal;font-variant:normal;font-weight:normal;font-stretch:normal;font-size:10.58333397px;line-height:1.25;font-family:'VAG Rounded';-inkscape-font-specification:'VAG Rounded';letter-spacing:0px;word-spacing:0px;fill:#000000;fill-opacity:1;stroke:none;stroke-width:0.26458335"
     id="text13"
     transform="translate(-9.4387722e-8,-0.52916629)">
    <path
       sodipodi:type="inkscape:offset"
       inkscape:radius="0"
       inkscape:original="M 8.2675781 10.416016 C 8.1690485 10.416016 8.0885518 10.450859 8.0273438 10.519531 C 7.9676284 10.586711 7.9394531 10.674223 7.9394531 10.783203 L 7.9394531 13.607422 C 7.9394529 13.716401 7.9676304 13.806325 8.0273438 13.875 C 8.0885516 13.942179 8.1690484 13.974609 8.2675781 13.974609 C 8.3302786 13.974609 8.386742 13.959547 8.4375 13.929688 C 8.4882577 13.89834 8.528276 13.856021 8.5566406 13.800781 C 8.5850053 13.744053 8.5996094 13.67908 8.5996094 13.607422 L 8.5996094 12.806641 L 8.6074219 12.806641 L 9.4140625 13.800781 C 9.4737775 13.872437 9.5283999 13.923725 9.5761719 13.955078 C 9.6239437 13.987925 9.6756925 14.003906 9.7324219 14.003906 C 9.8190083 14.003906 9.8914565 13.973776 9.9511719 13.914062 C 10.012381 13.852855 10.042969 13.779486 10.042969 13.691406 C 10.042969 13.607805 10.016173 13.533403 9.9609375 13.470703 L 9.1855469 12.564453 L 9.7734375 12.041016 C 9.8600242 11.961894 9.9023438 11.874841 9.9023438 11.779297 C 9.9023437 11.703159 9.876009 11.633472 9.8222656 11.572266 C 9.7685222 11.511059 9.7021693 11.480469 9.6230469 11.480469 C 9.5245172 11.480469 9.4237812 11.527503 9.3222656 11.623047 L 8.5996094 12.324219 L 8.5996094 10.783203 C 8.5996094 10.711542 8.5850053 10.648983 8.5566406 10.59375 C 8.5282763 10.537023 8.488258 10.494704 8.4375 10.464844 C 8.3882349 10.43349 8.3317715 10.416016 8.2675781 10.416016 z M 35.037109 10.416016 C 34.831093 10.416016 34.663544 10.481909 34.535156 10.613281 C 34.408262 10.744655 34.34375 10.931062 34.34375 11.169922 L 34.34375 11.507812 L 34.197266 11.507812 C 34.115161 11.507812 34.045474 11.534604 33.990234 11.589844 C 33.934994 11.64508 33.908203 11.714767 33.908203 11.796875 C 33.908203 11.884958 33.934535 11.956026 33.988281 12.009766 C 34.040532 12.062019 34.110679 12.087891 34.197266 12.087891 L 34.34375 12.087891 L 34.34375 13.607422 C 34.34375 13.716401 34.37388 13.806327 34.433594 13.875 C 34.494802 13.942179 34.575299 13.974609 34.673828 13.974609 C 34.772359 13.974609 34.850443 13.942179 34.910156 13.875 C 34.971363 13.806327 35.001953 13.716401 35.001953 13.607422 L 35.001953 12.087891 L 35.210938 12.087891 C 35.29508 12.087891 35.285577 12.006285 35.337891 11.978516 C 35.344619 11.987141 35.341724 12.00188 35.349609 12.009766 C 35.40186 12.062019 35.472007 12.087891 35.558594 12.087891 L 35.705078 12.087891 L 35.705078 13.607422 C 35.705078 13.716401 35.735209 13.806327 35.794922 13.875 C 35.85613 13.942179 35.936626 13.974609 36.035156 13.974609 C 36.133688 13.974609 36.213724 13.942179 36.273438 13.875 C 36.334644 13.806327 36.365234 13.716401 36.365234 13.607422 L 36.365234 12.087891 L 36.572266 12.087891 C 36.794704 12.087891 36.90625 11.990949 36.90625 11.796875 C 36.90625 11.604294 36.794704 11.507812 36.572266 11.507812 L 36.365234 11.507812 L 36.365234 11.238281 C 36.365234 11.129303 36.382602 11.06203 36.419922 11.035156 C 36.457244 11.008283 36.512786 10.994141 36.585938 10.994141 C 36.766575 10.994141 36.857422 10.901453 36.857422 10.714844 C 36.857422 10.608851 36.812689 10.532608 36.724609 10.486328 C 36.638023 10.440048 36.529811 10.416016 36.398438 10.416016 C 36.192421 10.416016 36.024872 10.481909 35.896484 10.613281 C 35.76959 10.744655 35.705078 10.931062 35.705078 11.169922 L 35.705078 11.507812 L 35.558594 11.507812 C 35.476483 11.507812 35.406796 11.534604 35.351562 11.589844 C 35.343736 11.59767 35.346561 11.610775 35.339844 11.619141 C 35.287145 11.590505 35.296712 11.507812 35.210938 11.507812 L 35.001953 11.507812 L 35.001953 11.238281 C 35.001953 11.129303 35.021274 11.06203 35.058594 11.035156 C 35.095916 11.008283 35.151459 10.994141 35.224609 10.994141 C 35.405247 10.994141 35.496094 10.901453 35.496094 10.714844 C 35.496094 10.608851 35.451361 10.532608 35.363281 10.486328 C 35.276695 10.440048 35.168482 10.416016 35.037109 10.416016 z M 62.261719 10.416016 C 62.163187 10.416016 62.082691 10.450859 62.021484 10.519531 C 61.961771 10.586711 61.933594 10.674223 61.933594 10.783203 L 61.933594 13.607422 C 61.933594 13.716401 61.961771 13.806327 62.021484 13.875 C 62.082692 13.942179 62.163189 13.974609 62.261719 13.974609 C 62.437877 13.974609 62.548963 13.882843 62.59375 13.699219 C 62.653465 13.796259 62.739137 13.872041 62.849609 13.925781 C 62.961575 13.978035 63.076343 14.003906 63.197266 14.003906 C 63.407761 14.003906 63.59647 13.946062 63.763672 13.828125 C 63.930874 13.710188 64.060818 13.554369 64.150391 13.363281 C 64.241456 13.1707 64.287109 12.970721 64.287109 12.761719 C 64.287109 12.537787 64.246171 12.325045 64.164062 12.125 C 64.081955 11.924955 63.960058 11.762581 63.798828 11.638672 C 63.63909 11.514763 63.446127 11.453125 63.220703 11.453125 C 63.107244 11.453125 62.995238 11.473365 62.884766 11.513672 C 62.774293 11.552487 62.677351 11.60849 62.59375 11.681641 L 62.59375 10.783203 C 62.59375 10.711542 62.579148 10.648983 62.550781 10.59375 C 62.522419 10.537023 62.482401 10.494704 62.431641 10.464844 C 62.382376 10.43349 62.325912 10.416016 62.261719 10.416016 z M 50.222656 10.490234 C 50.125619 10.490234 50.039027 10.528872 49.962891 10.603516 C 49.888247 10.676666 49.851563 10.759464 49.851562 10.853516 C 49.851563 10.952045 49.888247 11.039557 49.962891 11.117188 C 50.039027 11.194817 50.125619 11.234375 50.222656 11.234375 C 50.325664 11.234375 50.41467 11.197691 50.486328 11.123047 C 50.559479 11.04691 50.595703 10.956524 50.595703 10.853516 C 50.595703 10.792311 50.577302 10.734927 50.542969 10.679688 C 50.50863 10.622955 50.462977 10.577302 50.40625 10.542969 C 50.349521 10.508635 50.288343 10.490234 50.222656 10.490234 z M 58.679688 10.490234 C 58.582651 10.490234 58.496059 10.528872 58.419922 10.603516 C 58.345278 10.676666 58.306641 10.759464 58.306641 10.853516 C 58.306641 10.952045 58.345278 11.039557 58.419922 11.117188 C 58.496059 11.194817 58.582651 11.234375 58.679688 11.234375 C 58.782696 11.234375 58.869748 11.197691 58.941406 11.123047 C 59.014557 11.04691 59.050781 10.956524 59.050781 10.853516 C 59.050781 10.792311 59.034333 10.734928 59 10.679688 C 58.965661 10.622955 58.920008 10.577302 58.863281 10.542969 C 58.806552 10.508635 58.745374 10.490234 58.679688 10.490234 z M 12.732422 10.626953 C 12.568206 10.626953 12.41388 10.656624 12.267578 10.714844 C 12.121276 10.771573 12.000761 10.858625 11.908203 10.976562 C 11.815645 11.093006 11.769531 11.234221 11.769531 11.398438 C 11.769531 11.51936 11.795403 11.627573 11.847656 11.724609 C 11.899907 11.820153 11.975229 11.917555 12.072266 12.017578 C 11.867742 12.129544 11.700653 12.270758 11.572266 12.439453 C 11.443878 12.606655 11.380859 12.796745 11.380859 13.011719 C 11.380859 13.219228 11.431227 13.398047 11.53125 13.548828 C 11.631273 13.698115 11.765359 13.812996 11.935547 13.890625 C 12.107228 13.966762 12.296397 14.003906 12.503906 14.003906 C 12.630801 14.003906 12.752697 13.986999 12.869141 13.951172 C 12.985585 13.916836 13.097131 13.866007 13.203125 13.798828 C 13.310612 13.731649 13.413189 13.654946 13.511719 13.568359 L 13.830078 13.896484 C 13.897257 13.968142 13.978215 14.003906 14.072266 14.003906 C 14.158853 14.003906 14.234635 13.972856 14.298828 13.910156 C 14.363021 13.847456 14.394531 13.775928 14.394531 13.695312 C 14.394531 13.644557 14.385561 13.604079 14.369141 13.574219 C 14.352721 13.542867 14.327309 13.507104 14.292969 13.466797 L 13.980469 13.113281 L 14.095703 12.990234 C 14.177812 12.899168 14.241403 12.817751 14.283203 12.746094 C 14.326496 12.674433 14.347656 12.609461 14.347656 12.552734 C 14.347656 12.467637 14.322704 12.399443 14.273438 12.345703 C 14.225665 12.291956 14.165868 12.263672 14.095703 12.263672 C 14.025539 12.263672 13.967695 12.279194 13.919922 12.310547 C 13.873643 12.341898 13.81672 12.397441 13.748047 12.476562 L 13.568359 12.683594 L 13.085938 12.150391 C 13.253139 12.063803 13.393434 11.951797 13.503906 11.814453 C 13.614379 11.677108 13.667969 11.52083 13.667969 11.347656 C 13.667969 11.195383 13.621394 11.066011 13.527344 10.957031 C 13.433292 10.848049 13.314271 10.766171 13.167969 10.710938 C 13.021667 10.655704 12.875738 10.626953 12.732422 10.626953 z M 12.732422 11.152344 C 12.810053 11.152344 12.8802 11.173044 12.941406 11.214844 C 13.004106 11.256644 13.035156 11.323918 13.035156 11.417969 C 13.035156 11.546356 12.92361 11.664457 12.701172 11.773438 C 12.610104 11.683862 12.547545 11.612334 12.511719 11.558594 C 12.475892 11.50485 12.457031 11.444593 12.457031 11.378906 C 12.457031 11.314713 12.486702 11.262043 12.544922 11.21875 C 12.604637 11.173963 12.666735 11.152344 12.732422 11.152344 z M 4.9394531 11.453125 C 4.7707584 11.453125 4.6130986 11.487968 4.4667969 11.556641 C 4.3204951 11.625313 4.1958378 11.720874 4.0898438 11.841797 C 3.9838495 11.96272 3.901972 12.100601 3.84375 12.255859 C 3.7870207 12.409625 3.7578125 12.568205 3.7578125 12.732422 C 3.7578125 12.962325 3.8077203 13.175527 3.90625 13.371094 C 4.0062726 13.565167 4.1455341 13.719033 4.3261719 13.833984 C 4.5068097 13.947443 4.7110433 14.003906 4.9394531 14.003906 C 5.1126265 14.003906 5.2740804 13.971476 5.421875 13.904297 C 5.5711625 13.835624 5.6953595 13.743858 5.796875 13.628906 C 5.8998833 13.512462 5.98038 13.376422 6.0371094 13.222656 C 6.0953314 13.067398 6.125 12.904103 6.125 12.732422 C 6.125 12.562234 6.0953314 12.40032 6.0371094 12.248047 C 5.9803801 12.095774 5.8989629 11.961227 5.7929688 11.841797 C 5.6884675 11.722367 5.5618571 11.627266 5.4140625 11.558594 C 5.2677608 11.488428 5.1096408 11.453125 4.9394531 11.453125 z M 16.960938 11.453125 C 16.793736 11.453125 16.636076 11.487968 16.488281 11.556641 C 16.34198 11.62382 16.21537 11.718921 16.109375 11.839844 C 16.004872 11.960766 15.922995 12.098647 15.863281 12.253906 C 15.805061 12.409165 15.775391 12.568205 15.775391 12.732422 C 15.775391 12.974267 15.826679 13.192645 15.929688 13.386719 C 16.032696 13.579299 16.179545 13.731324 16.369141 13.841797 C 16.558735 13.950777 16.773319 14.003906 17.013672 14.003906 C 17.131609 14.003906 17.257299 13.987925 17.388672 13.955078 C 17.521537 13.923724 17.639639 13.882325 17.744141 13.830078 C 17.850135 13.776334 17.935347 13.715617 17.998047 13.648438 C 18.06224 13.581258 18.09375 13.513985 18.09375 13.445312 C 18.09375 13.397541 18.082021 13.351887 18.056641 13.308594 C 18.031261 13.265302 17.996418 13.229998 17.953125 13.203125 C 17.911325 13.174758 17.867052 13.160156 17.822266 13.160156 C 17.774494 13.160156 17.697791 13.189827 17.591797 13.248047 C 17.487296 13.304774 17.400243 13.347553 17.330078 13.378906 C 17.259913 13.410253 17.174241 13.425781 17.074219 13.425781 C 16.911495 13.425781 16.773154 13.385302 16.658203 13.304688 C 16.543252 13.224072 16.475518 13.105971 16.453125 12.949219 L 17.859375 12.949219 C 18.051956 12.949219 18.148438 12.851356 18.148438 12.654297 C 18.148438 12.513966 18.118767 12.372291 18.060547 12.230469 C 18.002325 12.087153 17.921367 11.958242 17.818359 11.841797 C 17.715351 11.725353 17.58874 11.630712 17.439453 11.560547 C 17.291658 11.488889 17.132618 11.453125 16.960938 11.453125 z M 19.376953 11.453125 C 19.1784 11.453125 18.995327 11.509588 18.828125 11.623047 C 18.660924 11.735013 18.528678 11.890831 18.431641 12.087891 C 18.334604 12.283457 18.287109 12.498041 18.287109 12.732422 C 18.287109 12.975761 18.333683 13.194599 18.427734 13.388672 C 18.523278 13.581253 18.655064 13.730864 18.822266 13.839844 C 18.989468 13.948824 19.173922 14.003906 19.376953 14.003906 C 19.621784 14.003906 19.831193 13.901329 20.005859 13.695312 C 20.029744 13.787869 20.065508 13.858477 20.113281 13.90625 C 20.162546 13.95253 20.232693 13.974609 20.322266 13.974609 C 20.462598 13.974609 20.550111 13.936545 20.585938 13.857422 C 20.621764 13.7783 20.640625 13.673309 20.640625 13.544922 L 20.640625 11.912109 C 20.640625 11.783723 20.621764 11.680685 20.585938 11.601562 C 20.550109 11.520947 20.462596 11.480469 20.322266 11.480469 C 20.241649 11.480469 20.170582 11.50634 20.109375 11.558594 C 20.049663 11.609352 20.014819 11.675244 20.005859 11.755859 C 19.934201 11.655839 19.842435 11.580057 19.730469 11.529297 C 19.618503 11.478537 19.500862 11.453125 19.376953 11.453125 z M 23.818359 11.453125 C 23.522771 11.453125 23.310028 11.543971 23.181641 11.724609 C 23.169701 11.648473 23.135778 11.588215 23.082031 11.544922 C 23.029781 11.501629 22.962047 11.480469 22.876953 11.480469 C 22.778422 11.480469 22.697925 11.515312 22.636719 11.583984 C 22.577005 11.651164 22.546875 11.738677 22.546875 11.847656 L 22.546875 13.607422 C 22.546875 13.716401 22.577005 13.806327 22.636719 13.875 C 22.697927 13.942179 22.778424 13.974609 22.876953 13.974609 C 22.939652 13.974609 22.996115 13.959547 23.046875 13.929688 C 23.097631 13.89834 23.137649 13.856021 23.166016 13.800781 C 23.194382 13.744053 23.208984 13.67908 23.208984 13.607422 L 23.208984 12.457031 C 23.208984 12.368952 23.224972 12.291789 23.257812 12.224609 C 23.290656 12.157429 23.33815 12.103266 23.402344 12.064453 C 23.466537 12.024146 23.54232 12.003906 23.628906 12.003906 C 23.757294 12.003906 23.862284 12.043464 23.941406 12.121094 C 24.022021 12.19723 24.0625 12.309237 24.0625 12.457031 L 24.0625 13.607422 C 24.0625 13.716401 24.090677 13.806327 24.150391 13.875 C 24.211599 13.942179 24.292096 13.974609 24.390625 13.974609 C 24.453324 13.974609 24.509787 13.959548 24.560547 13.929688 C 24.611303 13.89834 24.651321 13.856021 24.679688 13.800781 C 24.708054 13.744053 24.722656 13.67908 24.722656 13.607422 L 24.722656 12.341797 C 24.722656 12.158174 24.683098 12.000053 24.605469 11.867188 C 24.527839 11.732829 24.420548 11.630712 24.283203 11.560547 C 24.145859 11.488889 23.991533 11.453125 23.818359 11.453125 z M 27.414062 11.453125 C 27.245367 11.453125 27.087708 11.487968 26.941406 11.556641 C 26.795104 11.625313 26.668494 11.720874 26.5625 11.841797 C 26.456504 11.96272 26.374626 12.100601 26.316406 12.255859 C 26.25968 12.409625 26.230469 12.568205 26.230469 12.732422 C 26.230469 12.962325 26.280377 13.175527 26.378906 13.371094 C 26.478929 13.565167 26.620143 13.719033 26.800781 13.833984 C 26.981419 13.947443 27.185653 14.003906 27.414062 14.003906 C 27.587236 14.003906 27.746737 13.971476 27.894531 13.904297 C 28.043819 13.835624 28.169969 13.743858 28.271484 13.628906 C 28.374495 13.512462 28.454992 13.376422 28.511719 13.222656 C 28.569939 13.067398 28.597656 12.904103 28.597656 12.732422 C 28.597656 12.562234 28.569939 12.40032 28.511719 12.248047 C 28.45499 12.095774 28.373573 11.961227 28.267578 11.841797 C 28.163077 11.722367 28.036467 11.627266 27.888672 11.558594 C 27.74237 11.488428 27.58425 11.453125 27.414062 11.453125 z M 32.724609 11.453125 C 32.555915 11.453125 32.400208 11.487968 32.253906 11.556641 C 32.107605 11.625313 31.980995 11.720874 31.875 11.841797 C 31.769004 11.96272 31.687126 12.100601 31.628906 12.255859 C 31.57218 12.409625 31.542969 12.568205 31.542969 12.732422 C 31.542969 12.962325 31.592876 13.175527 31.691406 13.371094 C 31.791429 13.565167 31.930691 13.719033 32.111328 13.833984 C 32.291966 13.947443 32.496199 14.003906 32.724609 14.003906 C 32.897783 14.003906 33.059237 13.971476 33.207031 13.904297 C 33.356319 13.835624 33.482469 13.743858 33.583984 13.628906 C 33.686996 13.512462 33.765539 13.376422 33.822266 13.222656 C 33.880486 13.067398 33.910156 12.904103 33.910156 12.732422 C 33.910156 12.562234 33.880486 12.40032 33.822266 12.248047 C 33.765536 12.095774 33.684119 11.961227 33.578125 11.841797 C 33.473624 11.722367 33.347013 11.627266 33.199219 11.558594 C 33.052917 11.488428 32.894797 11.453125 32.724609 11.453125 z M 37.957031 11.453125 C 37.789829 11.453125 37.63217 11.487968 37.484375 11.556641 C 37.338073 11.62382 37.211463 11.718921 37.105469 11.839844 C 37.000966 11.960766 36.919088 12.098647 36.859375 12.253906 C 36.801155 12.409165 36.771484 12.568205 36.771484 12.732422 C 36.771484 12.974267 36.822773 13.192645 36.925781 13.386719 C 37.02879 13.579299 37.17564 13.731324 37.365234 13.841797 C 37.55483 13.950777 37.769413 14.003906 38.009766 14.003906 C 38.127703 14.003906 38.253393 13.987925 38.384766 13.955078 C 38.517632 13.923724 38.635733 13.882325 38.740234 13.830078 C 38.846229 13.776334 38.931441 13.715617 38.994141 13.648438 C 39.058334 13.581258 39.089844 13.513985 39.089844 13.445312 C 39.089844 13.397541 39.076161 13.351887 39.050781 13.308594 C 39.025403 13.265302 38.992512 13.229998 38.949219 13.203125 C 38.907419 13.174758 38.863146 13.160156 38.818359 13.160156 C 38.770587 13.160156 38.693885 13.189827 38.587891 13.248047 C 38.483389 13.304774 38.396337 13.347553 38.326172 13.378906 C 38.256007 13.410253 38.170335 13.425781 38.070312 13.425781 C 37.907589 13.425781 37.769248 13.385302 37.654297 13.304688 C 37.539346 13.224072 37.469659 13.105971 37.447266 12.949219 L 38.853516 12.949219 C 39.046096 12.949219 39.142578 12.851356 39.142578 12.654297 C 39.142578 12.513966 39.114861 12.372291 39.056641 12.230469 C 38.998419 12.087153 38.917462 11.958242 38.814453 11.841797 C 38.711445 11.725353 38.584835 11.630712 38.435547 11.560547 C 38.287752 11.488889 38.128711 11.453125 37.957031 11.453125 z M 43.130859 11.453125 C 42.932307 11.453125 42.749233 11.509588 42.582031 11.623047 C 42.414829 11.735013 42.284537 11.890831 42.1875 12.087891 C 42.090463 12.283457 42.041016 12.498041 42.041016 12.732422 C 42.041016 12.975761 42.087589 13.194599 42.181641 13.388672 C 42.277185 13.581253 42.40897 13.730864 42.576172 13.839844 C 42.743374 13.948824 42.927829 14.003906 43.130859 14.003906 C 43.375691 14.003906 43.587053 13.901329 43.761719 13.695312 C 43.785603 13.787869 43.821367 13.858477 43.869141 13.90625 C 43.918405 13.95253 43.986599 13.974609 44.076172 13.974609 C 44.216505 13.974609 44.304017 13.936545 44.339844 13.857422 C 44.37567 13.7783 44.394531 13.673309 44.394531 13.544922 L 44.394531 11.912109 C 44.394531 11.783723 44.37567 11.680685 44.339844 11.601562 C 44.304014 11.520947 44.216502 11.480469 44.076172 11.480469 C 43.995555 11.480469 43.924488 11.50634 43.863281 11.558594 C 43.803569 11.609352 43.770679 11.675244 43.761719 11.755859 C 43.690061 11.655839 43.59634 11.580057 43.484375 11.529297 C 43.372409 11.478537 43.254768 11.453125 43.130859 11.453125 z M 47.246094 11.453125 C 47.004248 11.453125 46.798061 11.544892 46.630859 11.728516 C 46.618919 11.649393 46.58695 11.588215 46.533203 11.544922 C 46.480952 11.501629 46.411265 11.480469 46.326172 11.480469 C 46.227641 11.480469 46.149097 11.515312 46.087891 11.583984 C 46.028177 11.651164 45.998047 11.738677 45.998047 11.847656 L 45.998047 13.607422 C 45.998047 13.716401 46.028177 13.806327 46.087891 13.875 C 46.149099 13.942179 46.227642 13.974609 46.326172 13.974609 C 46.38887 13.974609 46.447287 13.959548 46.498047 13.929688 C 46.548803 13.89834 46.586868 13.856021 46.615234 13.800781 C 46.643601 13.744053 46.658203 13.67908 46.658203 13.607422 L 46.658203 12.457031 C 46.658203 12.365966 46.672345 12.285929 46.699219 12.21875 C 46.727585 12.151569 46.769905 12.09982 46.828125 12.0625 C 46.886348 12.023687 46.960749 12.003906 47.048828 12.003906 C 47.127953 12.003906 47.195686 12.023687 47.253906 12.0625 C 47.312126 12.101315 47.356859 12.155477 47.386719 12.222656 C 47.418072 12.289836 47.433594 12.367459 47.433594 12.457031 L 47.433594 13.607422 C 47.433594 13.716401 47.463724 13.806327 47.523438 13.875 C 47.584646 13.942179 47.663189 13.974609 47.761719 13.974609 C 47.824417 13.974609 47.880881 13.959548 47.931641 13.929688 C 47.982397 13.89834 48.022415 13.856021 48.050781 13.800781 C 48.079148 13.744053 48.09375 13.67908 48.09375 13.607422 L 48.09375 12.457031 C 48.09375 12.32118 48.129054 12.212967 48.199219 12.130859 C 48.269384 12.047258 48.364945 12.003906 48.484375 12.003906 C 48.5635 12.003906 48.631233 12.023687 48.689453 12.0625 C 48.747672 12.101315 48.792406 12.155477 48.822266 12.222656 C 48.853619 12.289836 48.869141 12.367459 48.869141 12.457031 L 48.869141 13.607422 C 48.869141 13.716401 48.899271 13.806327 48.958984 13.875 C 49.020192 13.942179 49.098736 13.974609 49.197266 13.974609 C 49.259964 13.974609 49.316427 13.959547 49.367188 13.929688 C 49.417943 13.89834 49.457961 13.856021 49.486328 13.800781 C 49.514695 13.744053 49.529297 13.67908 49.529297 13.607422 L 49.529297 12.341797 C 49.529297 12.153695 49.490199 11.993734 49.414062 11.859375 C 49.339419 11.725016 49.235461 11.62382 49.099609 11.556641 C 48.963757 11.487968 48.805637 11.453125 48.625 11.453125 C 48.511541 11.453125 48.389185 11.483715 48.257812 11.544922 C 48.126439 11.60613 48.015814 11.687087 47.927734 11.787109 C 47.750082 11.564671 47.523768 11.453125 47.246094 11.453125 z M 52.009766 11.453125 C 51.841071 11.453125 51.683411 11.487968 51.537109 11.556641 C 51.390808 11.625313 51.266151 11.720874 51.160156 11.841797 C 51.05416 11.96272 50.972283 12.100601 50.914062 12.255859 C 50.857336 12.409625 50.828125 12.568205 50.828125 12.732422 C 50.828125 12.962325 50.878032 13.175527 50.976562 13.371094 C 51.076585 13.565167 51.215846 13.719033 51.396484 13.833984 C 51.577122 13.947443 51.781356 14.003906 52.009766 14.003906 C 52.102324 14.003906 52.21341 13.988385 52.341797 13.957031 C 52.470184 13.925681 52.58173 13.875313 52.675781 13.806641 C 52.771325 13.737969 52.818359 13.651836 52.818359 13.548828 C 52.818359 13.496577 52.80617 13.449543 52.779297 13.40625 C 52.753918 13.361465 52.719075 13.326161 52.675781 13.300781 C 52.63249 13.273908 52.585916 13.261719 52.535156 13.261719 C 52.515749 13.261719 52.466301 13.274368 52.388672 13.302734 C 52.312539 13.331101 52.247106 13.355134 52.193359 13.373047 C 52.139617 13.389467 52.091202 13.396484 52.044922 13.396484 C 51.874734 13.396484 51.738695 13.330131 51.638672 13.197266 C 51.538649 13.062906 51.488281 12.908581 51.488281 12.732422 C 51.488281 12.615977 51.508981 12.505352 51.550781 12.402344 C 51.592582 12.299334 51.656634 12.216997 51.740234 12.154297 C 51.825328 12.090104 51.926985 12.058594 52.044922 12.058594 C 52.122551 12.058594 52.215699 12.079754 52.326172 12.123047 C 52.438136 12.16634 52.518633 12.1875 52.566406 12.1875 C 52.639556 12.1875 52.700274 12.15461 52.748047 12.085938 C 52.79582 12.017266 52.818359 11.945737 52.818359 11.871094 C 52.818359 11.772562 52.772706 11.692066 52.681641 11.630859 C 52.590575 11.56816 52.481903 11.522967 52.353516 11.496094 C 52.226621 11.467727 52.111281 11.453125 52.009766 11.453125 z M 55.664062 11.453125 C 55.495368 11.453125 55.339661 11.487968 55.193359 11.556641 C 55.047058 11.625313 54.920447 11.720874 54.814453 11.841797 C 54.708456 11.96272 54.626579 12.100601 54.568359 12.255859 C 54.511633 12.409625 54.482422 12.568205 54.482422 12.732422 C 54.482422 12.962325 54.532329 13.175527 54.630859 13.371094 C 54.730882 13.565167 54.870143 13.719033 55.050781 13.833984 C 55.231419 13.947443 55.435653 14.003906 55.664062 14.003906 C 55.837236 14.003906 55.99869 13.971476 56.146484 13.904297 C 56.295772 13.835624 56.421921 13.743858 56.523438 13.628906 C 56.626448 13.512462 56.704992 13.376422 56.761719 13.222656 C 56.819939 13.067398 56.849609 12.904103 56.849609 12.732422 C 56.849609 12.562234 56.819939 12.40032 56.761719 12.248047 C 56.704989 12.095774 56.623572 11.961227 56.517578 11.841797 C 56.413077 11.722367 56.28842 11.627266 56.140625 11.558594 C 55.994324 11.488428 55.834251 11.453125 55.664062 11.453125 z M 60.466797 11.453125 C 60.298102 11.453125 60.140442 11.487968 59.994141 11.556641 C 59.847839 11.625313 59.721228 11.720874 59.615234 11.841797 C 59.509238 11.96272 59.427361 12.100601 59.369141 12.255859 C 59.312414 12.409625 59.283203 12.568205 59.283203 12.732422 C 59.283203 12.962325 59.333111 13.175527 59.431641 13.371094 C 59.531663 13.565167 59.670924 13.719033 59.851562 13.833984 C 60.0322 13.947443 60.238387 14.003906 60.466797 14.003906 C 60.63997 14.003906 60.799471 13.971476 60.947266 13.904297 C 61.096553 13.835624 61.222703 13.743858 61.324219 13.628906 C 61.42723 13.512462 61.505773 13.376422 61.5625 13.222656 C 61.62072 13.067398 61.650391 12.904103 61.650391 12.732422 C 61.650391 12.562234 61.62072 12.40032 61.5625 12.248047 C 61.505771 12.095774 61.424353 11.961227 61.318359 11.841797 C 61.213858 11.722367 61.089201 11.627266 60.941406 11.558594 C 60.795104 11.488428 60.636984 11.453125 60.466797 11.453125 z M 0.46289062 11.480469 C 0.36585376 11.480469 0.28731011 11.50634 0.22460938 11.558594 C 0.16340151 11.609352 0.1328125 11.67145 0.1328125 11.746094 C 0.1328125 11.817752 0.15489274 11.922742 0.20117188 12.058594 L 0.76171875 13.640625 C 0.8005335 13.746622 0.85136177 13.830452 0.9140625 13.888672 C 0.97676325 13.946892 1.0586408 13.974609 1.1601562 13.974609 C 1.3497516 13.974609 1.4768223 13.872493 1.5410156 13.667969 L 1.8808594 12.605469 L 1.890625 12.605469 L 2.2285156 13.667969 C 2.2927093 13.872493 2.4197799 13.974609 2.609375 13.974609 C 2.7974772 13.974609 2.930183 13.863064 3.0078125 13.640625 L 3.5722656 12.048828 C 3.615559 11.918945 3.6367188 11.837068 3.6367188 11.802734 C 3.6367188 11.738542 3.6221147 11.682079 3.59375 11.632812 C 3.5668785 11.582056 3.5292736 11.544911 3.4785156 11.519531 C 3.4277578 11.494151 3.3693413 11.480469 3.3066406 11.480469 C 3.2275186 11.480469 3.1607054 11.504961 3.1054688 11.552734 C 3.051725 11.600506 3.0150406 11.663065 2.9941406 11.742188 L 2.6132812 13.003906 L 2.6035156 13.003906 L 2.21875 11.769531 C 2.1933712 11.675483 2.1557663 11.603954 2.1035156 11.554688 C 2.0527579 11.505421 1.9788168 11.480469 1.8847656 11.480469 C 1.7922074 11.480469 1.7202194 11.505421 1.6679688 11.554688 C 1.6172111 11.603952 1.5771928 11.675481 1.5488281 11.769531 L 1.1640625 13.003906 L 1.15625 13.003906 L 0.77539062 11.742188 C 0.75747616 11.663066 0.71883864 11.600508 0.66210938 11.552734 C 0.60687302 11.504961 0.54052011 11.480469 0.46289062 11.480469 z M 6.7363281 11.480469 C 6.6467557 11.480469 6.5667191 11.510139 6.4980469 11.568359 C 6.4308675 11.626582 6.3984375 11.707999 6.3984375 11.8125 L 6.3984375 13.607422 C 6.3984375 13.716401 6.4285659 13.806327 6.4882812 13.875 C 6.5494891 13.942179 6.6280328 13.974609 6.7265625 13.974609 C 6.789263 13.974609 6.8457264 13.959547 6.8964844 13.929688 C 6.947242 13.89834 6.9872603 13.856021 7.015625 13.800781 C 7.0439897 13.744053 7.0585938 13.67908 7.0585938 13.607422 L 7.0585938 12.595703 C 7.0585938 12.479256 7.0929769 12.392204 7.1601562 12.333984 C 7.2273356 12.274268 7.3256582 12.21401 7.4570312 12.154297 C 7.5361537 12.12295 7.6038874 12.096152 7.6621094 12.072266 C 7.7203314 12.048379 7.7659848 12.018708 7.7988281 11.984375 C 7.8331641 11.95004 7.8515625 11.899671 7.8515625 11.833984 C 7.8515625 11.720524 7.8180996 11.633472 7.7539062 11.572266 C 7.6897126 11.511059 7.6163439 11.480469 7.53125 11.480469 C 7.4297345 11.480469 7.3436026 11.501629 7.2734375 11.544922 C 7.2032724 11.588215 7.1355387 11.658822 7.0683594 11.755859 L 7.0585938 11.755859 C 7.0585938 11.572235 6.9513021 11.480469 6.7363281 11.480469 z M 21.345703 11.480469 C 21.25613 11.480469 21.176094 11.510139 21.107422 11.568359 C 21.040243 11.626582 21.007812 11.707999 21.007812 11.8125 L 21.007812 13.607422 C 21.007812 13.716401 21.037943 13.806327 21.097656 13.875 C 21.158864 13.942179 21.237408 13.974609 21.335938 13.974609 C 21.398636 13.974609 21.455099 13.959548 21.505859 13.929688 C 21.556615 13.89834 21.596633 13.856021 21.625 13.800781 C 21.653367 13.744053 21.667969 13.67908 21.667969 13.607422 L 21.667969 12.595703 C 21.667969 12.479256 21.700399 12.392204 21.767578 12.333984 C 21.834757 12.274268 21.935034 12.21401 22.066406 12.154297 C 22.145531 12.12295 22.213264 12.096152 22.271484 12.072266 C 22.32971 12.048379 22.375363 12.018708 22.408203 11.984375 C 22.442536 11.95004 22.460938 11.899671 22.460938 11.833984 C 22.460937 11.720524 22.427475 11.633472 22.363281 11.572266 C 22.299087 11.511059 22.225718 11.480469 22.140625 11.480469 C 22.039109 11.480469 21.952977 11.501629 21.882812 11.544922 C 21.812647 11.588215 21.742961 11.658822 21.675781 11.755859 L 21.667969 11.755859 C 21.667969 11.572235 21.560677 11.480469 21.345703 11.480469 z M 29.208984 11.480469 C 29.119412 11.480469 29.041329 11.510139 28.972656 11.568359 C 28.905477 11.626582 28.871094 11.707999 28.871094 11.8125 L 28.871094 13.607422 C 28.871094 13.716401 28.901224 13.806327 28.960938 13.875 C 29.022145 13.942179 29.102643 13.974609 29.201172 13.974609 C 29.263871 13.974609 29.320334 13.959548 29.371094 13.929688 C 29.42185 13.89834 29.461868 13.856021 29.490234 13.800781 C 29.518601 13.744053 29.533203 13.67908 29.533203 13.607422 L 29.533203 12.595703 C 29.533203 12.479256 29.565632 12.392204 29.632812 12.333984 C 29.699992 12.274268 29.800268 12.21401 29.931641 12.154297 C 30.010765 12.12295 30.078499 12.096152 30.136719 12.072266 C 30.194937 12.048379 30.240591 12.018708 30.273438 11.984375 C 30.307771 11.95004 30.324219 11.899671 30.324219 11.833984 C 30.324219 11.720524 30.292709 11.633472 30.228516 11.572266 C 30.164322 11.511059 30.089 11.480469 30.003906 11.480469 C 29.902391 11.480469 29.818212 11.501629 29.748047 11.544922 C 29.677882 11.588215 29.608195 11.658822 29.541016 11.755859 L 29.53125 11.755859 C 29.53125 11.572235 29.423958 11.480469 29.208984 11.480469 z M 39.707031 11.480469 C 39.617459 11.480469 39.539375 11.510139 39.470703 11.568359 C 39.403524 11.626582 39.369141 11.707999 39.369141 11.8125 L 39.369141 13.607422 C 39.369141 13.716401 39.399271 13.806327 39.458984 13.875 C 39.520192 13.942179 39.600689 13.974609 39.699219 13.974609 C 39.761917 13.974609 39.818381 13.959547 39.869141 13.929688 C 39.919897 13.89834 39.959915 13.856021 39.988281 13.800781 C 40.016648 13.744053 40.029297 13.67908 40.029297 13.607422 L 40.029297 12.595703 C 40.029297 12.479256 40.06368 12.392204 40.130859 12.333984 C 40.198039 12.274268 40.298315 12.21401 40.429688 12.154297 C 40.508812 12.12295 40.576546 12.096152 40.634766 12.072266 C 40.692984 12.048379 40.738638 12.018708 40.771484 11.984375 C 40.805818 11.95004 40.822266 11.899671 40.822266 11.833984 C 40.822266 11.720524 40.790756 11.633472 40.726562 11.572266 C 40.662369 11.511059 40.587046 11.480469 40.501953 11.480469 C 40.400437 11.480469 40.314305 11.501629 40.244141 11.544922 C 40.173975 11.588215 40.106242 11.658822 40.039062 11.755859 L 40.029297 11.755859 C 40.029297 11.572235 39.922005 11.480469 39.707031 11.480469 z M 50.222656 11.480469 C 50.124125 11.480469 50.045582 11.515312 49.984375 11.583984 C 49.924662 11.651164 49.894531 11.738677 49.894531 11.847656 L 49.894531 13.607422 C 49.894531 13.716401 49.924662 13.806327 49.984375 13.875 C 50.045583 13.942179 50.124126 13.974609 50.222656 13.974609 C 50.285354 13.974609 50.343771 13.959547 50.394531 13.929688 C 50.445287 13.89834 50.483352 13.856021 50.511719 13.800781 C 50.540085 13.744053 50.554688 13.67908 50.554688 13.607422 L 50.554688 11.847656 C 50.554687 11.775996 50.540085 11.713436 50.511719 11.658203 C 50.483356 11.601476 50.445291 11.557204 50.394531 11.527344 C 50.345267 11.49599 50.28685 11.480469 50.222656 11.480469 z M 53.376953 11.480469 C 53.28738 11.480469 53.207344 11.510139 53.138672 11.568359 C 53.071493 11.626582 53.039062 11.707999 53.039062 11.8125 L 53.039062 13.607422 C 53.039063 13.716401 53.06724 13.806327 53.126953 13.875 C 53.188161 13.942179 53.268658 13.974609 53.367188 13.974609 C 53.429886 13.974609 53.486349 13.959548 53.537109 13.929688 C 53.587865 13.89834 53.627883 13.856021 53.65625 13.800781 C 53.684617 13.744053 53.699219 13.67908 53.699219 13.607422 L 53.699219 12.595703 C 53.699219 12.479256 53.731649 12.392204 53.798828 12.333984 C 53.866007 12.274268 53.966283 12.21401 54.097656 12.154297 C 54.17678 12.12295 54.244514 12.096152 54.302734 12.072266 C 54.36096 12.048379 54.406613 12.018708 54.439453 11.984375 C 54.473786 11.95004 54.492188 11.899671 54.492188 11.833984 C 54.492188 11.720524 54.458725 11.633472 54.394531 11.572266 C 54.330338 11.511059 54.256969 11.480469 54.171875 11.480469 C 54.07036 11.480469 53.984228 11.501629 53.914062 11.544922 C 53.843897 11.588215 53.774211 11.658822 53.707031 11.755859 L 53.699219 11.755859 C 53.699219 11.572235 53.591927 11.480469 53.376953 11.480469 z M 58.679688 11.480469 C 58.581157 11.480469 58.50066 11.515312 58.439453 11.583984 C 58.37974 11.651164 58.349609 11.738677 58.349609 11.847656 L 58.349609 14.582031 C 58.349609 14.692504 58.37974 14.780016 58.439453 14.845703 C 58.500661 14.912882 58.581158 14.947266 58.679688 14.947266 C 58.742386 14.947266 58.798849 14.931737 58.849609 14.900391 C 58.900365 14.870531 58.940383 14.826258 58.96875 14.769531 C 58.997117 14.712802 59.009766 14.650704 59.009766 14.582031 L 59.009766 11.847656 C 59.009766 11.775996 58.997117 11.713436 58.96875 11.658203 C 58.940388 11.601476 58.900369 11.557204 58.849609 11.527344 C 58.800344 11.49599 58.743881 11.480469 58.679688 11.480469 z M 16.960938 12.003906 C 17.108732 12.003906 17.227754 12.050019 17.320312 12.142578 C 17.412872 12.235136 17.468415 12.357033 17.486328 12.507812 L 16.4375 12.507812 C 16.456907 12.360018 16.513371 12.240536 16.607422 12.146484 C 16.701473 12.052433 16.819114 12.003906 16.960938 12.003906 z M 37.957031 12.003906 C 38.104825 12.003906 38.223848 12.050019 38.316406 12.142578 C 38.408966 12.235136 38.464509 12.357033 38.482422 12.507812 L 37.431641 12.507812 C 37.451048 12.360018 37.509465 12.240536 37.603516 12.146484 C 37.697567 12.052433 37.815208 12.003906 37.957031 12.003906 z M 4.9394531 12.058594 C 5.0529116 12.058594 5.1493933 12.090564 5.2285156 12.15625 C 5.307638 12.221937 5.3674355 12.307607 5.40625 12.412109 C 5.4450647 12.515118 5.4648438 12.621949 5.4648438 12.732422 C 5.4648437 12.844387 5.4446042 12.951679 5.4042969 13.054688 C 5.3654821 13.156203 5.3056848 13.238541 5.2265625 13.302734 C 5.148933 13.365434 5.0529116 13.396484 4.9394531 13.396484 C 4.8274875 13.396484 4.7334192 13.365434 4.6542969 13.302734 C 4.5766671 13.238541 4.5168698 13.156203 4.4765625 13.054688 C 4.4377478 12.951679 4.4179688 12.844387 4.4179688 12.732422 C 4.4179688 12.621949 4.4377478 12.514658 4.4765625 12.410156 C 4.5153772 12.305654 4.5751745 12.220443 4.6542969 12.15625 C 4.7349121 12.090563 4.8289804 12.058594 4.9394531 12.058594 z M 19.46875 12.058594 C 19.576237 12.058594 19.668464 12.090563 19.746094 12.15625 C 19.825218 12.221937 19.884555 12.307608 19.921875 12.412109 C 19.960688 12.515118 19.978516 12.621949 19.978516 12.732422 C 19.978516 12.908581 19.935276 13.062906 19.845703 13.197266 C 19.75613 13.330131 19.62998 13.396484 19.46875 13.396484 C 19.356784 13.396484 19.260763 13.365434 19.181641 13.302734 C 19.10401 13.238541 19.046166 13.156203 19.005859 13.054688 C 18.967046 12.951679 18.947266 12.844387 18.947266 12.732422 C 18.947266 12.621949 18.967046 12.514658 19.005859 12.410156 C 19.044674 12.305654 19.102518 12.220443 19.181641 12.15625 C 19.262256 12.090563 19.358277 12.058594 19.46875 12.058594 z M 27.414062 12.058594 C 27.527521 12.058594 27.624002 12.090563 27.703125 12.15625 C 27.782248 12.221937 27.840093 12.307608 27.878906 12.412109 C 27.91772 12.515118 27.9375 12.621949 27.9375 12.732422 C 27.9375 12.844387 27.91726 12.951679 27.876953 13.054688 C 27.838138 13.156203 27.780295 13.238541 27.701172 13.302734 C 27.623543 13.365434 27.527521 13.396484 27.414062 13.396484 C 27.302097 13.396484 27.206075 13.365434 27.126953 13.302734 C 27.049322 13.238541 26.991479 13.156203 26.951172 13.054688 C 26.912359 12.951679 26.892578 12.844387 26.892578 12.732422 C 26.892578 12.621949 26.912359 12.514658 26.951172 12.410156 C 26.989987 12.305654 27.04783 12.220443 27.126953 12.15625 C 27.207568 12.090563 27.303589 12.058594 27.414062 12.058594 z M 32.724609 12.058594 C 32.838069 12.058594 32.93455 12.090563 33.013672 12.15625 C 33.092796 12.221937 33.152593 12.307608 33.191406 12.412109 C 33.23022 12.515118 33.25 12.621949 33.25 12.732422 C 33.25 12.844387 33.22976 12.951679 33.189453 13.054688 C 33.150638 13.156203 33.090841 13.238541 33.011719 13.302734 C 32.934089 13.365434 32.838068 13.396484 32.724609 13.396484 C 32.612644 13.396484 32.518576 13.365434 32.439453 13.302734 C 32.361822 13.238541 32.302025 13.156203 32.261719 13.054688 C 32.222905 12.951679 32.203125 12.844387 32.203125 12.732422 C 32.203125 12.621949 32.222905 12.514658 32.261719 12.410156 C 32.300533 12.305654 32.36033 12.220443 32.439453 12.15625 C 32.520068 12.090563 32.614137 12.058594 32.724609 12.058594 z M 43.222656 12.058594 C 43.330144 12.058594 43.424324 12.090563 43.501953 12.15625 C 43.581077 12.221937 43.638461 12.307608 43.675781 12.412109 C 43.714595 12.515118 43.734375 12.621949 43.734375 12.732422 C 43.734375 12.908581 43.689181 13.062906 43.599609 13.197266 C 43.510037 13.330131 43.383887 13.396484 43.222656 13.396484 C 43.110691 13.396484 43.016623 13.365434 42.9375 13.302734 C 42.85987 13.238541 42.800072 13.156203 42.759766 13.054688 C 42.720952 12.951679 42.701172 12.844387 42.701172 12.732422 C 42.701172 12.621949 42.720952 12.514658 42.759766 12.410156 C 42.79858 12.305654 42.858378 12.220443 42.9375 12.15625 C 43.018115 12.090563 43.112184 12.058594 43.222656 12.058594 z M 55.664062 12.058594 C 55.777522 12.058594 55.874003 12.090563 55.953125 12.15625 C 56.032249 12.221937 56.092046 12.307608 56.130859 12.412109 C 56.169673 12.515118 56.189453 12.621949 56.189453 12.732422 C 56.189453 12.844387 56.169213 12.951679 56.128906 13.054688 C 56.090092 13.156203 56.030295 13.238541 55.951172 13.302734 C 55.873543 13.365434 55.777521 13.396484 55.664062 13.396484 C 55.552097 13.396484 55.458029 13.365434 55.378906 13.302734 C 55.301276 13.238541 55.241479 13.156203 55.201172 13.054688 C 55.162359 12.951679 55.142578 12.844387 55.142578 12.732422 C 55.142578 12.621949 55.162359 12.514658 55.201172 12.410156 C 55.239987 12.305654 55.299784 12.220443 55.378906 12.15625 C 55.459522 12.090563 55.55359 12.058594 55.664062 12.058594 z M 60.466797 12.058594 C 60.580255 12.058594 60.676737 12.090563 60.755859 12.15625 C 60.834983 12.221937 60.892827 12.307608 60.931641 12.412109 C 60.970454 12.515118 60.990234 12.621949 60.990234 12.732422 C 60.990234 12.844387 60.969994 12.951679 60.929688 13.054688 C 60.890873 13.156203 60.831075 13.238541 60.751953 13.302734 C 60.674323 13.365434 60.580255 13.396484 60.466797 13.396484 C 60.354831 13.396484 60.258809 13.365434 60.179688 13.302734 C 60.102057 13.238541 60.04226 13.156203 60.001953 13.054688 C 59.96314 12.951679 59.943359 12.844387 59.943359 12.732422 C 59.943359 12.621949 59.96314 12.514658 60.001953 12.410156 C 60.040768 12.305654 60.100565 12.220443 60.179688 12.15625 C 60.260303 12.090563 60.356324 12.058594 60.466797 12.058594 z M 63.111328 12.058594 C 63.220308 12.058594 63.312996 12.091024 63.390625 12.158203 C 63.469748 12.223889 63.529546 12.309101 63.568359 12.412109 C 63.607173 12.515118 63.625 12.621949 63.625 12.732422 C 63.625 12.842895 63.607173 12.949266 63.568359 13.050781 C 63.529545 13.150804 63.469747 13.233141 63.390625 13.298828 C 63.311502 13.364515 63.218815 13.396484 63.111328 13.396484 C 62.944126 13.396484 62.814182 13.32783 62.724609 13.1875 C 62.63653 13.04717 62.59375 12.88859 62.59375 12.710938 C 62.59375 12.597479 62.611118 12.491108 62.648438 12.392578 C 62.687252 12.294047 62.746589 12.21355 62.824219 12.152344 C 62.903341 12.089644 62.999362 12.058594 63.111328 12.058594 z M 12.435547 12.394531 L 13.099609 13.130859 C 13.002573 13.223418 12.910805 13.290691 12.824219 13.333984 C 12.739125 13.375784 12.637008 13.396484 12.517578 13.396484 C 12.374262 13.396484 12.258001 13.358419 12.169922 13.279297 C 12.083335 13.200174 12.041016 13.089549 12.041016 12.949219 C 12.041016 12.828296 12.076319 12.725259 12.146484 12.638672 C 12.21665 12.552085 12.313132 12.470667 12.435547 12.394531 z "
       style="font-size:4.58611107px;fill:#a3a3a3;fill-opacity:0.94117647;stroke-width:0.26458335"
       id="path4625"
       d="m 8.2675781,10.416016 c -0.09853,0 -0.1790263,0.03484 -0.2402343,0.103515 -0.059715,0.06718 -0.087891,0.154692 -0.087891,0.263672 v 2.824219 c -2e-7,0.108979 0.028177,0.198903 0.087891,0.267578 0.061208,0.06718 0.1417046,0.09961 0.2402343,0.09961 0.062701,0 0.1191639,-0.01506 0.1699219,-0.04492 0.050758,-0.03135 0.090776,-0.07367 0.1191406,-0.128907 0.028365,-0.05673 0.042969,-0.121701 0.042969,-0.193359 v -0.800781 h 0.00781 l 0.8066406,0.99414 c 0.059715,0.07166 0.1143374,0.122944 0.1621094,0.154297 0.047772,0.03285 0.099521,0.04883 0.15625,0.04883 0.086586,0 0.1590346,-0.03013 0.21875,-0.08984 0.061209,-0.06121 0.091797,-0.134576 0.091797,-0.222656 0,-0.0836 -0.0268,-0.158003 -0.082031,-0.220703 l -0.7753906,-0.90625 0.5878906,-0.523437 c 0.086587,-0.07912 0.1289063,-0.166175 0.1289063,-0.261719 -1e-7,-0.07614 -0.026335,-0.145825 -0.080078,-0.207031 -0.053743,-0.06121 -0.1200963,-0.0918 -0.1992187,-0.0918 -0.09853,0 -0.1992657,0.04703 -0.3007813,0.142578 l -0.7226562,0.701172 v -1.541016 c 0,-0.07166 -0.014604,-0.13422 -0.042969,-0.189453 C 8.5282763,10.537023 8.488258,10.494704 8.4375,10.464844 8.3882349,10.43349 8.3317715,10.416016 8.2675781,10.416016 Z m 26.7695309,0 c -0.206016,0 -0.373565,0.06589 -0.501953,0.197265 -0.126894,0.131374 -0.191406,0.317781 -0.191406,0.556641 v 0.33789 h -0.146484 c -0.0821,0 -0.151792,0.02679 -0.207032,0.08203 -0.05524,0.05524 -0.08203,0.124923 -0.08203,0.207031 0,0.08808 0.02633,0.159151 0.08008,0.212891 0.05225,0.05225 0.122398,0.07813 0.208985,0.07813 h 0.146484 v 1.519531 c 0,0.108979 0.03013,0.198905 0.08984,0.267578 0.06121,0.06718 0.141705,0.09961 0.240234,0.09961 0.09853,0 0.176615,-0.03243 0.236328,-0.09961 0.06121,-0.06867 0.0918,-0.158599 0.0918,-0.267578 v -1.519531 h 0.208985 c 0.08414,0 0.07464,-0.08161 0.126953,-0.109375 0.0067,0.0086 0.0038,0.02336 0.01172,0.03125 0.05225,0.05225 0.122398,0.07813 0.208985,0.07813 h 0.146484 v 1.519531 c 0,0.108979 0.03013,0.198905 0.08984,0.267578 0.06121,0.06718 0.141704,0.09961 0.240234,0.09961 0.09853,0 0.178568,-0.03243 0.238282,-0.09961 0.06121,-0.06867 0.0918,-0.158599 0.0918,-0.267578 v -1.519531 h 0.207032 c 0.222438,0 0.333984,-0.09694 0.333984,-0.291016 0,-0.192581 -0.111546,-0.289063 -0.333984,-0.289063 h -0.207032 v -0.269531 c 0,-0.108978 0.01737,-0.176251 0.05469,-0.203125 0.03732,-0.02687 0.09286,-0.04101 0.166016,-0.04101 0.180637,0 0.271484,-0.09269 0.271484,-0.279297 0,-0.105993 -0.04473,-0.182236 -0.132813,-0.228516 -0.08659,-0.04628 -0.194798,-0.07031 -0.326171,-0.07031 -0.206017,0 -0.373566,0.06589 -0.501954,0.197265 -0.126894,0.131374 -0.191406,0.317781 -0.191406,0.556641 v 0.33789 h -0.146484 c -0.08211,0 -0.151798,0.02679 -0.207032,0.08203 -0.0078,0.0078 -0.005,0.02093 -0.01172,0.0293 -0.0527,-0.02864 -0.04313,-0.111329 -0.128906,-0.111329 h -0.208985 v -0.269531 c 0,-0.108978 0.01932,-0.176251 0.05664,-0.203125 0.03732,-0.02687 0.09287,-0.04101 0.166015,-0.04101 0.180638,0 0.271485,-0.09269 0.271485,-0.279297 0,-0.105993 -0.04473,-0.182236 -0.132813,-0.228516 -0.08659,-0.04628 -0.194799,-0.07031 -0.326172,-0.07031 z m 27.22461,0 c -0.09853,0 -0.179028,0.03484 -0.240235,0.103515 -0.05971,0.06718 -0.08789,0.154692 -0.08789,0.263672 v 2.824219 c 0,0.108979 0.02818,0.198905 0.08789,0.267578 0.06121,0.06718 0.141705,0.09961 0.240235,0.09961 0.176158,0 0.287244,-0.09177 0.332031,-0.27539 0.05971,0.09704 0.145387,0.172822 0.255859,0.226562 0.111966,0.05225 0.226734,0.07813 0.347657,0.07813 0.210495,0 0.399204,-0.05784 0.566406,-0.175781 0.167202,-0.117937 0.297146,-0.273756 0.386719,-0.464844 0.09107,-0.192581 0.136718,-0.39256 0.136718,-0.601562 0,-0.223932 -0.04094,-0.436674 -0.123047,-0.636719 -0.08211,-0.200045 -0.204004,-0.362419 -0.365234,-0.486328 -0.159738,-0.123909 -0.352701,-0.185547 -0.578125,-0.185547 -0.113459,0 -0.225465,0.02024 -0.335937,0.06055 -0.110473,0.03881 -0.207415,0.09482 -0.291016,0.167969 v -0.898438 c 0,-0.07166 -0.0146,-0.13422 -0.04297,-0.189453 -0.02836,-0.05673 -0.06838,-0.09905 -0.11914,-0.128906 -0.04926,-0.03135 -0.105729,-0.04883 -0.169922,-0.04883 z m -12.039063,0.07422 c -0.09704,0 -0.183629,0.03864 -0.259765,0.113282 -0.07464,0.07315 -0.111328,0.155948 -0.111329,0.25 10e-7,0.09853 0.03668,0.186041 0.111329,0.263672 0.07614,0.07763 0.162728,0.117187 0.259765,0.117187 0.103008,0 0.192014,-0.03668 0.263672,-0.111328 0.07315,-0.07614 0.109375,-0.166523 0.109375,-0.269531 0,-0.06121 -0.0184,-0.118589 -0.05273,-0.173828 -0.03434,-0.05673 -0.07999,-0.102386 -0.136719,-0.136719 -0.05673,-0.03433 -0.117907,-0.05274 -0.183594,-0.05274 z m 8.457032,0 c -0.09704,0 -0.183629,0.03864 -0.259766,0.113282 -0.07464,0.07315 -0.113281,0.155948 -0.113281,0.25 0,0.09853 0.03864,0.186041 0.113281,0.263672 0.07614,0.07763 0.162729,0.117187 0.259766,0.117187 0.103008,0 0.19006,-0.03668 0.261718,-0.111328 0.07315,-0.07614 0.109375,-0.166523 0.109375,-0.269531 0,-0.06121 -0.01645,-0.118588 -0.05078,-0.173828 -0.03434,-0.05673 -0.07999,-0.102386 -0.136719,-0.136719 -0.05673,-0.03433 -0.117907,-0.05274 -0.183593,-0.05274 z m -45.947266,0.136719 c -0.164216,0 -0.318542,0.02967 -0.464844,0.08789 -0.146302,0.05673 -0.266817,0.143781 -0.359375,0.261718 -0.09256,0.116444 -0.138672,0.257659 -0.138672,0.421876 0,0.120922 0.02587,0.229135 0.07813,0.326171 0.05225,0.09554 0.127573,0.192946 0.22461,0.292969 -0.204524,0.111966 -0.371613,0.25318 -0.5,0.421875 -0.128388,0.167202 -0.191407,0.357292 -0.191407,0.572266 0,0.207509 0.05037,0.386328 0.150391,0.537109 0.100023,0.149287 0.234109,0.264168 0.404297,0.341797 0.171681,0.07614 0.36085,0.113281 0.568359,0.113281 0.126895,0 0.248791,-0.01691 0.365235,-0.05273 0.116444,-0.03434 0.22799,-0.08516 0.333984,-0.152344 0.107487,-0.06718 0.210064,-0.143882 0.308594,-0.230469 l 0.318359,0.328125 c 0.06718,0.07166 0.148137,0.107422 0.242188,0.107422 0.08659,0 0.162369,-0.03105 0.226562,-0.09375 0.06419,-0.0627 0.0957,-0.134228 0.0957,-0.214844 0,-0.05075 -0.009,-0.09123 -0.02539,-0.121093 -0.01642,-0.03135 -0.04183,-0.06711 -0.07617,-0.107422 l -0.3125,-0.353516 0.115234,-0.123047 c 0.08211,-0.09107 0.1457,-0.172483 0.1875,-0.24414 0.04329,-0.07166 0.06445,-0.136633 0.06445,-0.19336 0,-0.0851 -0.02495,-0.153291 -0.07422,-0.207031 -0.04777,-0.05375 -0.10757,-0.08203 -0.177735,-0.08203 -0.07016,0 -0.128008,0.01552 -0.175781,0.04687 -0.04628,0.03135 -0.103202,0.08689 -0.171875,0.166015 l -0.179688,0.207032 -0.482421,-0.533203 c 0.167201,-0.08659 0.307496,-0.198594 0.417968,-0.335938 0.110473,-0.137345 0.164063,-0.293623 0.164063,-0.466797 0,-0.152273 -0.04657,-0.281645 -0.140625,-0.390625 -0.09405,-0.108982 -0.213073,-0.19086 -0.359375,-0.246093 -0.146302,-0.05523 -0.292231,-0.08399 -0.435547,-0.08399 z m 0,0.525391 c 0.07763,0 0.147778,0.0207 0.208984,0.0625 0.0627,0.0418 0.09375,0.109074 0.09375,0.203125 0,0.128387 -0.111546,0.246488 -0.333984,0.355469 -0.09107,-0.08958 -0.153627,-0.161104 -0.189453,-0.214844 -0.03583,-0.05374 -0.05469,-0.114001 -0.05469,-0.179688 0,-0.06419 0.02967,-0.116863 0.08789,-0.160156 0.05972,-0.04479 0.121813,-0.06641 0.1875,-0.06641 z m -7.7929689,0.300781 c -0.1686947,0 -0.3263545,0.03484 -0.4726562,0.103516 -0.1463018,0.06867 -0.2709591,0.164233 -0.3769531,0.285156 -0.1059943,0.120923 -0.1878718,0.258804 -0.2460938,0.414062 -0.056729,0.153766 -0.085937,0.312346 -0.085937,0.476563 0,0.229903 0.049908,0.443105 0.1484375,0.638672 0.1000226,0.194073 0.2392841,0.347939 0.4199219,0.46289 0.1806378,0.113459 0.3848714,0.169922 0.6132812,0.169922 0.1731734,0 0.3346273,-0.03243 0.4824219,-0.09961 0.1492875,-0.06867 0.2734845,-0.160439 0.375,-0.275391 C 5.8998833,13.512462 5.98038,13.376422 6.0371094,13.222656 6.0953314,13.067398 6.125,12.904103 6.125,12.732422 6.125,12.562234 6.0953314,12.40032 6.0371094,12.248047 5.9803801,12.095774 5.8989629,11.961227 5.7929688,11.841797 5.6884675,11.722367 5.5618571,11.627266 5.4140625,11.558594 5.2677608,11.488428 5.1096408,11.453125 4.9394531,11.453125 Z m 12.0214849,0 c -0.167202,0 -0.324862,0.03484 -0.472657,0.103516 -0.146301,0.06718 -0.272911,0.16228 -0.378906,0.283203 -0.104503,0.120922 -0.18638,0.258803 -0.246094,0.414062 -0.05822,0.155259 -0.08789,0.314299 -0.08789,0.478516 0,0.241845 0.05129,0.460223 0.154297,0.654297 0.103008,0.19258 0.249857,0.344605 0.439453,0.455078 0.189594,0.10898 0.404178,0.162109 0.644531,0.162109 0.117937,0 0.243627,-0.01598 0.375,-0.04883 0.132865,-0.03135 0.250967,-0.07275 0.355469,-0.125 0.105994,-0.05374 0.191206,-0.114461 0.253906,-0.18164 0.06419,-0.06718 0.0957,-0.134453 0.0957,-0.203126 0,-0.04777 -0.01173,-0.09342 -0.03711,-0.136718 -0.02538,-0.04329 -0.06022,-0.0786 -0.103516,-0.105469 -0.0418,-0.02837 -0.08607,-0.04297 -0.130859,-0.04297 -0.04777,0 -0.124475,0.02967 -0.230469,0.08789 -0.104501,0.05673 -0.191554,0.09951 -0.261719,0.130859 -0.07016,0.03135 -0.155837,0.04687 -0.255859,0.04687 -0.162724,0 -0.301065,-0.04048 -0.416016,-0.121093 -0.114951,-0.08062 -0.182685,-0.198717 -0.205078,-0.355469 h 1.40625 c 0.192581,0 0.289063,-0.09786 0.289063,-0.294922 0,-0.140331 -0.02967,-0.282006 -0.08789,-0.423828 -0.05822,-0.143316 -0.13918,-0.272227 -0.242188,-0.388672 -0.103008,-0.116444 -0.229619,-0.211085 -0.378906,-0.28125 -0.147795,-0.07166 -0.306835,-0.107422 -0.478515,-0.107422 z m 2.416015,0 c -0.198553,0 -0.381626,0.05646 -0.548828,0.169922 -0.167201,0.111966 -0.299447,0.267784 -0.396484,0.464844 -0.09704,0.195566 -0.144532,0.41015 -0.144532,0.644531 0,0.243339 0.04657,0.462177 0.140625,0.65625 0.09554,0.192581 0.22733,0.342192 0.394532,0.451172 0.167202,0.10898 0.351656,0.164062 0.554687,0.164062 0.244831,0 0.45424,-0.102577 0.628906,-0.308594 0.02388,0.09256 0.05965,0.163165 0.107422,0.210938 0.04926,0.04628 0.119412,0.06836 0.208985,0.06836 0.140332,0 0.227845,-0.03806 0.263672,-0.117187 0.03583,-0.07912 0.05469,-0.184113 0.05469,-0.3125 v -1.632813 c 0,-0.128386 -0.01886,-0.231424 -0.05469,-0.310547 -0.03583,-0.08061 -0.123342,-0.121093 -0.263672,-0.121093 -0.08062,0 -0.151684,0.02587 -0.212891,0.07813 -0.05971,0.05076 -0.09456,0.11665 -0.103516,0.197265 -0.07166,-0.10002 -0.163424,-0.175802 -0.27539,-0.226562 -0.111966,-0.05076 -0.229607,-0.07617 -0.353516,-0.07617 z m 4.441406,0 c -0.295588,0 -0.508331,0.09085 -0.636718,0.271484 -0.01194,-0.07614 -0.04586,-0.136394 -0.09961,-0.179687 -0.05225,-0.04329 -0.119984,-0.06445 -0.205078,-0.06445 -0.09853,0 -0.179028,0.03484 -0.240234,0.103515 -0.05971,0.06718 -0.08984,0.154693 -0.08984,0.263672 v 1.759766 c 0,0.108979 0.03013,0.198905 0.08984,0.267578 0.06121,0.06718 0.141705,0.09961 0.240234,0.09961 0.0627,0 0.119162,-0.01506 0.169922,-0.04492 0.05076,-0.03135 0.09077,-0.07367 0.119141,-0.128907 0.02837,-0.05673 0.04297,-0.121701 0.04297,-0.193359 v -1.150391 c 0,-0.08808 0.01599,-0.165242 0.04883,-0.232422 0.03284,-0.06718 0.08034,-0.121343 0.144532,-0.160156 0.06419,-0.04031 0.139976,-0.06055 0.226562,-0.06055 0.128388,0 0.233378,0.03956 0.3125,0.117188 0.08061,0.07614 0.121094,0.188143 0.121094,0.335937 v 1.150391 c 0,0.108979 0.02818,0.198905 0.08789,0.267578 0.06121,0.06718 0.141705,0.09961 0.240234,0.09961 0.0627,0 0.119162,-0.01506 0.169922,-0.04492 0.05076,-0.03135 0.09077,-0.07367 0.119141,-0.128907 0.02837,-0.05673 0.04297,-0.121701 0.04297,-0.193359 v -1.265625 c 0,-0.183623 -0.03956,-0.341744 -0.117187,-0.474609 -0.07763,-0.134359 -0.184921,-0.236476 -0.322266,-0.306641 -0.137344,-0.07166 -0.29167,-0.107422 -0.464844,-0.107422 z m 3.595703,0 c -0.168695,0 -0.326354,0.03484 -0.472656,0.103516 -0.146302,0.06867 -0.272912,0.164233 -0.378906,0.285156 -0.105996,0.120923 -0.187874,0.258804 -0.246094,0.414062 -0.05673,0.153766 -0.08594,0.312346 -0.08594,0.476563 0,0.229903 0.04991,0.443105 0.148437,0.638672 0.100023,0.194073 0.241237,0.347939 0.421875,0.46289 0.180638,0.113459 0.384872,0.169922 0.613281,0.169922 0.173174,0 0.332675,-0.03243 0.480469,-0.09961 0.149288,-0.06867 0.275438,-0.160439 0.376953,-0.275391 0.103011,-0.116444 0.183508,-0.252484 0.240235,-0.40625 0.05822,-0.155258 0.08594,-0.318553 0.08594,-0.490234 0,-0.170188 -0.02772,-0.332102 -0.08594,-0.484375 -0.05673,-0.152273 -0.138146,-0.28682 -0.244141,-0.40625 -0.104501,-0.11943 -0.231111,-0.214531 -0.378906,-0.283203 -0.146302,-0.07017 -0.304422,-0.105469 -0.47461,-0.105469 z m 5.310547,0 c -0.168694,0 -0.324401,0.03484 -0.470703,0.103516 -0.146301,0.06867 -0.272911,0.164233 -0.378906,0.285156 -0.105996,0.120923 -0.187874,0.258804 -0.246094,0.414062 -0.05673,0.153766 -0.08594,0.312346 -0.08594,0.476563 0,0.229903 0.04991,0.443105 0.148437,0.638672 0.100023,0.194073 0.239285,0.347939 0.419922,0.46289 0.180638,0.113459 0.384871,0.169922 0.613281,0.169922 0.173174,0 0.334628,-0.03243 0.482422,-0.09961 0.149288,-0.06867 0.275438,-0.160439 0.376953,-0.275391 0.103012,-0.116444 0.181555,-0.252484 0.238282,-0.40625 0.05822,-0.155258 0.08789,-0.318553 0.08789,-0.490234 0,-0.170188 -0.02967,-0.332102 -0.08789,-0.484375 -0.05673,-0.152273 -0.138147,-0.28682 -0.244141,-0.40625 -0.104501,-0.11943 -0.231112,-0.214531 -0.378906,-0.283203 -0.146302,-0.07017 -0.304422,-0.105469 -0.47461,-0.105469 z m 5.232422,0 c -0.167202,0 -0.324861,0.03484 -0.472656,0.103516 -0.146302,0.06718 -0.272912,0.16228 -0.378906,0.283203 -0.104503,0.120922 -0.186381,0.258803 -0.246094,0.414062 -0.05822,0.155259 -0.08789,0.314299 -0.08789,0.478516 0,0.241845 0.05129,0.460223 0.154297,0.654297 0.103009,0.19258 0.249859,0.344605 0.439453,0.455078 0.189596,0.10898 0.404179,0.162109 0.644532,0.162109 0.117937,0 0.243627,-0.01598 0.375,-0.04883 0.132866,-0.03135 0.250967,-0.07275 0.355468,-0.125 0.105995,-0.05374 0.191207,-0.114461 0.253907,-0.18164 0.06419,-0.06718 0.0957,-0.134453 0.0957,-0.203126 0,-0.04777 -0.01368,-0.09342 -0.03906,-0.136718 -0.02538,-0.04329 -0.05827,-0.0786 -0.101562,-0.105469 -0.0418,-0.02837 -0.08607,-0.04297 -0.13086,-0.04297 -0.04777,0 -0.124474,0.02967 -0.230468,0.08789 -0.104502,0.05673 -0.191554,0.09951 -0.261719,0.130859 -0.07017,0.03135 -0.155837,0.04687 -0.25586,0.04687 -0.162723,0 -0.301064,-0.04048 -0.416015,-0.121093 -0.114951,-0.08062 -0.184638,-0.198717 -0.207031,-0.355469 h 1.40625 c 0.19258,0 0.289062,-0.09786 0.289062,-0.294922 0,-0.140331 -0.02772,-0.282006 -0.08594,-0.423828 -0.05822,-0.143316 -0.139179,-0.272227 -0.242188,-0.388672 -0.103008,-0.116444 -0.229618,-0.211085 -0.378906,-0.28125 -0.147795,-0.07166 -0.306836,-0.107422 -0.478516,-0.107422 z m 5.173828,0 c -0.198552,0 -0.381626,0.05646 -0.548828,0.169922 -0.167202,0.111966 -0.297494,0.267784 -0.394531,0.464844 -0.09704,0.195566 -0.146484,0.41015 -0.146484,0.644531 0,0.243339 0.04657,0.462177 0.140625,0.65625 0.09554,0.192581 0.227329,0.342192 0.394531,0.451172 0.167202,0.10898 0.351657,0.164062 0.554687,0.164062 0.244832,0 0.456194,-0.102577 0.63086,-0.308594 0.02388,0.09256 0.05965,0.163165 0.107422,0.210938 0.04926,0.04628 0.117458,0.06836 0.207031,0.06836 0.140333,0 0.227845,-0.03806 0.263672,-0.117187 0.03583,-0.07912 0.05469,-0.184113 0.05469,-0.3125 v -1.632813 c 0,-0.128386 -0.01886,-0.231424 -0.05469,-0.310547 -0.03583,-0.08061 -0.123342,-0.121093 -0.263672,-0.121093 -0.08062,0 -0.151684,0.02587 -0.212891,0.07813 -0.05971,0.05076 -0.0926,0.11665 -0.101562,0.197265 -0.07166,-0.10002 -0.165379,-0.175802 -0.277344,-0.226562 -0.111966,-0.05076 -0.229607,-0.07617 -0.353516,-0.07617 z m 4.115235,0 c -0.241846,0 -0.448033,0.09177 -0.615235,0.275391 -0.01194,-0.07912 -0.04391,-0.140301 -0.09766,-0.183594 -0.05225,-0.04329 -0.121938,-0.06445 -0.207031,-0.06445 -0.09853,0 -0.177075,0.03484 -0.238281,0.103515 -0.05971,0.06718 -0.08984,0.154693 -0.08984,0.263672 v 1.759766 c 0,0.108979 0.03013,0.198905 0.08984,0.267578 0.06121,0.06718 0.139751,0.09961 0.238281,0.09961 0.0627,0 0.121115,-0.01506 0.171875,-0.04492 0.05076,-0.03135 0.08882,-0.07367 0.117187,-0.128907 0.02837,-0.05673 0.04297,-0.121701 0.04297,-0.193359 v -1.150391 c 0,-0.09107 0.01414,-0.171102 0.04102,-0.238281 0.02837,-0.06718 0.07069,-0.11893 0.128906,-0.15625 0.05822,-0.03881 0.132624,-0.05859 0.220703,-0.05859 0.07912,0 0.146858,0.01978 0.205078,0.05859 0.05822,0.03881 0.102953,0.09298 0.132813,0.160156 0.03135,0.06718 0.04687,0.144803 0.04687,0.234375 v 1.150391 c 0,0.108979 0.03013,0.198905 0.08984,0.267578 0.06121,0.06718 0.139751,0.09961 0.238281,0.09961 0.0627,0 0.119162,-0.01506 0.169922,-0.04492 0.05076,-0.03135 0.09077,-0.07367 0.11914,-0.128907 0.02837,-0.05673 0.04297,-0.121701 0.04297,-0.193359 v -1.150391 c 0,-0.135851 0.0353,-0.244064 0.105469,-0.326172 0.07017,-0.0836 0.165726,-0.126953 0.285156,-0.126953 0.07912,0 0.146858,0.01978 0.205078,0.05859 0.05822,0.03881 0.102953,0.09298 0.132813,0.160156 0.03135,0.06718 0.04687,0.144803 0.04687,0.234375 v 1.150391 c 0,0.108979 0.03013,0.198905 0.08984,0.267578 0.06121,0.06718 0.139752,0.09961 0.238282,0.09961 0.0627,0 0.119161,-0.01506 0.169922,-0.04492 0.05076,-0.03135 0.09077,-0.07367 0.11914,-0.128907 0.02837,-0.05673 0.04297,-0.121701 0.04297,-0.193359 v -1.265625 c 0,-0.188102 -0.0391,-0.348063 -0.115235,-0.482422 -0.07464,-0.134359 -0.178601,-0.235555 -0.314453,-0.302734 -0.135852,-0.06867 -0.293972,-0.103516 -0.474609,-0.103516 -0.113459,0 -0.235815,0.03059 -0.367188,0.0918 -0.131373,0.06121 -0.241998,0.142165 -0.330078,0.242187 -0.177652,-0.222438 -0.403966,-0.333984 -0.68164,-0.333984 z m 4.763672,0 c -0.168695,0 -0.326355,0.03484 -0.472657,0.103516 -0.146301,0.06867 -0.270958,0.164233 -0.376953,0.285156 -0.105996,0.120923 -0.187873,0.258804 -0.246094,0.414062 -0.05673,0.153766 -0.08594,0.312346 -0.08594,0.476563 0,0.229903 0.04991,0.443105 0.148437,0.638672 0.100023,0.194073 0.239284,0.347939 0.419922,0.46289 0.180638,0.113459 0.384872,0.169922 0.613282,0.169922 0.09256,0 0.203644,-0.01552 0.332031,-0.04687 0.128387,-0.03135 0.239933,-0.08172 0.333984,-0.15039 0.09554,-0.06867 0.142578,-0.154805 0.142578,-0.257813 0,-0.05225 -0.01219,-0.09929 -0.03906,-0.142578 -0.02538,-0.04478 -0.06022,-0.08009 -0.103516,-0.105469 -0.04329,-0.02687 -0.08987,-0.03906 -0.140625,-0.03906 -0.01941,0 -0.06885,0.01265 -0.146484,0.04101 -0.07613,0.02837 -0.141566,0.0524 -0.195313,0.07031 -0.05374,0.01642 -0.102157,0.02344 -0.148437,0.02344 -0.170188,0 -0.306227,-0.06635 -0.40625,-0.199218 -0.100023,-0.13436 -0.150391,-0.288685 -0.150391,-0.464844 0,-0.116445 0.0207,-0.22707 0.0625,-0.330078 0.0418,-0.10301 0.105853,-0.185347 0.189453,-0.248047 0.08509,-0.06419 0.186751,-0.0957 0.304688,-0.0957 0.07763,0 0.170777,0.02116 0.28125,0.06445 0.111964,0.04329 0.192461,0.06445 0.240234,0.06445 0.07315,0 0.133868,-0.03289 0.181641,-0.101562 0.04777,-0.06867 0.07031,-0.140201 0.07031,-0.214844 0,-0.09853 -0.04565,-0.179028 -0.136718,-0.240235 -0.09107,-0.0627 -0.199738,-0.107892 -0.328125,-0.134765 -0.126895,-0.02837 -0.242235,-0.04297 -0.34375,-0.04297 z m 3.654296,0 c -0.168694,0 -0.324401,0.03484 -0.470703,0.103516 -0.146301,0.06867 -0.272912,0.164233 -0.378906,0.285156 -0.105997,0.120923 -0.187874,0.258804 -0.246094,0.414062 -0.05673,0.153766 -0.08594,0.312346 -0.08594,0.476563 0,0.229903 0.04991,0.443105 0.148437,0.638672 0.100023,0.194073 0.239284,0.347939 0.419922,0.46289 0.180638,0.113459 0.384872,0.169922 0.613281,0.169922 0.173174,0 0.334628,-0.03243 0.482422,-0.09961 0.149288,-0.06867 0.275437,-0.160439 0.376954,-0.275391 0.10301,-0.116444 0.181554,-0.252484 0.238281,-0.40625 0.05822,-0.155258 0.08789,-0.318553 0.08789,-0.490234 0,-0.170188 -0.02967,-0.332102 -0.08789,-0.484375 -0.05673,-0.152273 -0.138147,-0.28682 -0.244141,-0.40625 -0.104501,-0.11943 -0.229158,-0.214531 -0.376953,-0.283203 -0.146301,-0.07017 -0.306374,-0.105469 -0.476563,-0.105469 z m 4.802735,0 c -0.168695,0 -0.326355,0.03484 -0.472656,0.103516 -0.146302,0.06867 -0.272913,0.164233 -0.378907,0.285156 -0.105996,0.120923 -0.187873,0.258804 -0.246093,0.414062 -0.05673,0.153766 -0.08594,0.312346 -0.08594,0.476563 0,0.229903 0.04991,0.443105 0.148438,0.638672 0.100022,0.194073 0.239283,0.347939 0.419921,0.46289 0.180638,0.113459 0.386825,0.169922 0.615235,0.169922 0.173173,0 0.332674,-0.03243 0.480469,-0.09961 0.149287,-0.06867 0.275437,-0.160439 0.376953,-0.275391 0.103011,-0.116444 0.181554,-0.252484 0.238281,-0.40625 0.05822,-0.155258 0.08789,-0.318553 0.08789,-0.490234 0,-0.170188 -0.02967,-0.332102 -0.08789,-0.484375 -0.05673,-0.152273 -0.138147,-0.28682 -0.244141,-0.40625 -0.104501,-0.11943 -0.229158,-0.214531 -0.376953,-0.283203 -0.146302,-0.07017 -0.304422,-0.105469 -0.474609,-0.105469 z m -60.00390638,0.02734 c -0.0970369,0 -0.17558051,0.02587 -0.23828124,0.07813 -0.0612079,0.05076 -0.0917969,0.112856 -0.0917969,0.1875 0,0.07166 0.0220802,0.176648 0.0683594,0.3125 l 0.56054687,1.582031 c 0.0388148,0.105997 0.089643,0.189827 0.15234375,0.248047 0.0627007,0.05822 0.1445783,0.08594 0.2460937,0.08594 0.1895954,0 0.3166661,-0.102116 0.3808594,-0.30664 l 0.3398438,-1.0625 h 0.00977 l 0.3378906,1.0625 c 0.064194,0.204524 0.1912643,0.30664 0.3808594,0.30664 0.1881022,0 0.320808,-0.111545 0.3984375,-0.333984 l 0.5644531,-1.591797 c 0.043293,-0.129883 0.064453,-0.21176 0.064453,-0.246094 0,-0.06419 -0.014604,-0.120655 -0.042969,-0.169922 -0.026871,-0.05076 -0.064476,-0.0879 -0.1152344,-0.113281 -0.050758,-0.02538 -0.1091743,-0.03906 -0.171875,-0.03906 -0.079122,0 -0.1459352,0.02449 -0.2011718,0.07226 -0.053744,0.04777 -0.090428,0.110331 -0.1113282,0.189454 l -0.3808594,1.261718 h -0.00977 L 2.21875,11.769531 c -0.025379,-0.09405 -0.062984,-0.165577 -0.1152344,-0.214843 -0.050758,-0.04927 -0.1246988,-0.07422 -0.21875,-0.07422 -0.092558,0 -0.1645462,0.02495 -0.2167968,0.07422 -0.050758,0.04926 -0.090776,0.120793 -0.1191407,0.214843 L 1.1640625,13.003906 H 1.15625 L 0.77539062,11.742188 c -0.0179145,-0.07912 -0.056552,-0.14168 -0.11328124,-0.189454 -0.0552364,-0.04777 -0.12158927,-0.07226 -0.19921876,-0.07226 z m 6.27343748,0 c -0.089572,0 -0.169609,0.02967 -0.2382812,0.08789 -0.067179,0.05822 -0.099609,0.13964 -0.099609,0.244141 v 1.794922 c 0,0.108979 0.030128,0.198905 0.089844,0.267578 0.061208,0.06718 0.1397516,0.09961 0.2382813,0.09961 0.062701,0 0.1191639,-0.01506 0.1699219,-0.04492 0.050758,-0.03135 0.090776,-0.07367 0.1191406,-0.128907 0.028365,-0.05673 0.042969,-0.121701 0.042969,-0.193359 v -1.011719 c 0,-0.116447 0.034383,-0.203499 0.1015624,-0.261719 0.067179,-0.05972 0.165502,-0.119974 0.296875,-0.179687 0.079122,-0.03135 0.1468562,-0.05814 0.2050782,-0.08203 0.058222,-0.02389 0.1038754,-0.05356 0.1367187,-0.08789 0.034336,-0.03434 0.052734,-0.0847 0.052734,-0.150391 0,-0.11346 -0.033463,-0.200512 -0.097656,-0.261718 -0.064194,-0.06121 -0.1375623,-0.0918 -0.2226562,-0.0918 -0.1015155,0 -0.1876474,0.02116 -0.2578125,0.06445 -0.070165,0.04329 -0.1378988,0.1139 -0.2050781,0.210937 h -0.00977 c 0,-0.183624 -0.1072917,-0.27539 -0.3222657,-0.27539 z m 14.6093749,0 c -0.08957,0 -0.169609,0.02967 -0.238281,0.08789 -0.06718,0.05822 -0.09961,0.13964 -0.09961,0.244141 v 1.794922 c 0,0.108979 0.03013,0.198905 0.08984,0.267578 0.06121,0.06718 0.139752,0.09961 0.238282,0.09961 0.0627,0 0.119161,-0.01506 0.169921,-0.04492 0.05076,-0.03135 0.09077,-0.07367 0.119141,-0.128907 0.02837,-0.05673 0.04297,-0.121701 0.04297,-0.193359 v -1.011719 c 0,-0.116447 0.03243,-0.203499 0.09961,-0.261719 0.06718,-0.05972 0.167456,-0.119974 0.298828,-0.179687 0.07912,-0.03135 0.146858,-0.05814 0.205078,-0.08203 0.05823,-0.02389 0.103879,-0.05356 0.136719,-0.08789 0.03433,-0.03434 0.05273,-0.0847 0.05273,-0.150391 -10e-7,-0.11346 -0.03346,-0.200512 -0.09766,-0.261718 -0.06419,-0.06121 -0.137563,-0.0918 -0.222656,-0.0918 -0.101516,0 -0.187648,0.02116 -0.257813,0.06445 -0.07017,0.04329 -0.139851,0.1139 -0.207031,0.210937 h -0.0078 c 0,-0.183624 -0.107292,-0.27539 -0.322266,-0.27539 z m 7.863281,0 c -0.08957,0 -0.167655,0.02967 -0.236328,0.08789 -0.06718,0.05822 -0.101562,0.13964 -0.101562,0.244141 v 1.794922 c 0,0.108979 0.03013,0.198905 0.08984,0.267578 0.06121,0.06718 0.141705,0.09961 0.240234,0.09961 0.0627,0 0.119162,-0.01506 0.169922,-0.04492 0.05076,-0.03135 0.09077,-0.07367 0.11914,-0.128907 0.02837,-0.05673 0.04297,-0.121701 0.04297,-0.193359 v -1.011719 c 0,-0.116447 0.03243,-0.203499 0.09961,-0.261719 0.06718,-0.05972 0.167456,-0.119974 0.298829,-0.179687 0.07912,-0.03135 0.146858,-0.05814 0.205078,-0.08203 0.05822,-0.02389 0.103872,-0.05356 0.136719,-0.08789 0.03433,-0.03434 0.05078,-0.0847 0.05078,-0.150391 0,-0.11346 -0.03151,-0.200512 -0.0957,-0.261718 -0.06419,-0.06121 -0.139516,-0.0918 -0.22461,-0.0918 -0.101515,0 -0.185694,0.02116 -0.255859,0.06445 -0.07016,0.04329 -0.139852,0.1139 -0.207031,0.210937 h -0.0098 c 0,-0.183624 -0.107292,-0.27539 -0.322266,-0.27539 z m 10.498047,0 c -0.08957,0 -0.167656,0.02967 -0.236328,0.08789 -0.06718,0.05822 -0.101562,0.13964 -0.101562,0.244141 v 1.794922 c 0,0.108979 0.03013,0.198905 0.08984,0.267578 0.06121,0.06718 0.141705,0.09961 0.240235,0.09961 0.0627,0 0.119162,-0.01506 0.169922,-0.04492 0.05076,-0.03135 0.09077,-0.07367 0.11914,-0.128907 0.02837,-0.05673 0.04102,-0.121701 0.04102,-0.193359 v -1.011719 c 0,-0.116447 0.03438,-0.203499 0.101562,-0.261719 0.06718,-0.05972 0.167456,-0.119974 0.298829,-0.179687 0.07912,-0.03135 0.146858,-0.05814 0.205078,-0.08203 0.05822,-0.02389 0.103872,-0.05356 0.136718,-0.08789 0.03433,-0.03434 0.05078,-0.0847 0.05078,-0.150391 0,-0.11346 -0.03151,-0.200512 -0.0957,-0.261718 -0.06419,-0.06121 -0.139516,-0.0918 -0.224609,-0.0918 -0.101516,0 -0.187648,0.02116 -0.257812,0.06445 -0.07017,0.04329 -0.137899,0.1139 -0.205079,0.210937 h -0.0098 c 0,-0.183624 -0.107292,-0.27539 -0.322266,-0.27539 z m 10.515625,0 c -0.09853,0 -0.177074,0.03484 -0.238281,0.103515 -0.05971,0.06718 -0.08984,0.154693 -0.08984,0.263672 v 1.759766 c 0,0.108979 0.03013,0.198905 0.08984,0.267578 0.06121,0.06718 0.139751,0.09961 0.238281,0.09961 0.0627,0 0.121115,-0.01506 0.171875,-0.04492 0.05076,-0.03135 0.08882,-0.07367 0.117188,-0.128907 0.02837,-0.05673 0.04297,-0.121701 0.04297,-0.193359 v -1.759766 c -10e-7,-0.07166 -0.0146,-0.13422 -0.04297,-0.189453 -0.02836,-0.05673 -0.06643,-0.100999 -0.117188,-0.130859 -0.04926,-0.03135 -0.107681,-0.04687 -0.171875,-0.04687 z m 3.154297,0 c -0.08957,0 -0.169609,0.02967 -0.238281,0.08789 -0.06718,0.05822 -0.09961,0.13964 -0.09961,0.244141 v 1.794922 c 10e-7,0.108979 0.02818,0.198905 0.08789,0.267578 0.06121,0.06718 0.141705,0.09961 0.240235,0.09961 0.0627,0 0.119161,-0.01506 0.169921,-0.04492 0.05076,-0.03135 0.09077,-0.07367 0.119141,-0.128907 0.02837,-0.05673 0.04297,-0.121701 0.04297,-0.193359 v -1.011719 c 0,-0.116447 0.03243,-0.203499 0.09961,-0.261719 0.06718,-0.05972 0.167455,-0.119974 0.298828,-0.179687 0.07912,-0.03135 0.146858,-0.05814 0.205078,-0.08203 0.05823,-0.02389 0.103879,-0.05356 0.136719,-0.08789 0.03433,-0.03434 0.05273,-0.0847 0.05273,-0.150391 0,-0.11346 -0.03346,-0.200512 -0.09766,-0.261718 -0.06419,-0.06121 -0.137562,-0.0918 -0.222656,-0.0918 -0.101515,0 -0.187647,0.02116 -0.257813,0.06445 -0.07017,0.04329 -0.139851,0.1139 -0.207031,0.210937 h -0.0078 c 0,-0.183624 -0.107292,-0.27539 -0.322266,-0.27539 z m 5.302735,0 c -0.09853,0 -0.179028,0.03484 -0.240235,0.103515 -0.05971,0.06718 -0.08984,0.154693 -0.08984,0.263672 v 2.734375 c 0,0.110473 0.03013,0.197985 0.08984,0.263672 0.06121,0.06718 0.141705,0.101563 0.240235,0.101563 0.0627,0 0.119161,-0.01553 0.169921,-0.04687 0.05076,-0.02986 0.09077,-0.07413 0.119141,-0.13086 0.02837,-0.05673 0.04102,-0.118827 0.04102,-0.1875 v -2.734375 c 0,-0.07166 -0.01265,-0.13422 -0.04102,-0.189453 -0.02836,-0.05673 -0.06838,-0.100999 -0.119141,-0.130859 -0.04926,-0.03135 -0.105728,-0.04687 -0.169921,-0.04687 z m -41.71875,0.523437 c 0.147794,0 0.266816,0.04611 0.359374,0.138672 0.09256,0.09256 0.148103,0.214455 0.166016,0.365234 H 16.4375 c 0.01941,-0.147794 0.07587,-0.267276 0.169922,-0.361328 0.09405,-0.09405 0.211692,-0.142578 0.353516,-0.142578 z m 20.996093,0 c 0.147794,0 0.266817,0.04611 0.359375,0.138672 0.09256,0.09256 0.148103,0.214455 0.166016,0.365234 h -1.050781 c 0.01941,-0.147794 0.07782,-0.267276 0.171875,-0.361328 0.09405,-0.09405 0.211692,-0.142578 0.353515,-0.142578 z m -33.0175779,0.05469 c 0.1134585,0 0.2099402,0.03197 0.2890625,0.09766 0.079122,0.06569 0.1389199,0.151357 0.1777344,0.255859 0.038815,0.103009 0.058594,0.20984 0.058594,0.320313 -10e-8,0.111965 -0.02024,0.219257 -0.060547,0.322266 -0.038815,0.101515 -0.098612,0.183853 -0.1777344,0.248046 -0.077629,0.0627 -0.1736509,0.09375 -0.2871094,0.09375 -0.1119656,0 -0.2060339,-0.03105 -0.2851562,-0.09375 -0.07763,-0.06419 -0.1374271,-0.146531 -0.1777344,-0.248046 -0.038815,-0.103009 -0.058594,-0.210301 -0.058594,-0.322266 0,-0.110473 0.019779,-0.217764 0.058594,-0.322266 0.038815,-0.104502 0.098612,-0.189713 0.1777344,-0.253906 0.080615,-0.06569 0.1746835,-0.09766 0.2851562,-0.09766 z m 14.5292969,0 c 0.107487,0 0.199714,0.03197 0.277344,0.09766 0.07912,0.06569 0.138461,0.151358 0.175781,0.255859 0.03881,0.103009 0.05664,0.20984 0.05664,0.320313 0,0.176159 -0.04324,0.330484 -0.132813,0.464844 -0.08957,0.132865 -0.215723,0.199218 -0.376953,0.199218 -0.111966,0 -0.207987,-0.03105 -0.287109,-0.09375 -0.07763,-0.06419 -0.135475,-0.146531 -0.175782,-0.248046 -0.03881,-0.103009 -0.05859,-0.210301 -0.05859,-0.322266 0,-0.110473 0.01978,-0.217764 0.05859,-0.322266 0.03881,-0.104502 0.09666,-0.189713 0.175782,-0.253906 0.08062,-0.06569 0.176636,-0.09766 0.287109,-0.09766 z m 7.945312,0 c 0.113459,0 0.20994,0.03197 0.289063,0.09766 0.07912,0.06569 0.136968,0.151358 0.175781,0.255859 0.03881,0.103009 0.05859,0.20984 0.05859,0.320313 0,0.111965 -0.02024,0.219257 -0.06055,0.322266 -0.03881,0.101515 -0.09666,0.183853 -0.175781,0.248046 -0.07763,0.0627 -0.173651,0.09375 -0.28711,0.09375 -0.111965,0 -0.207987,-0.03105 -0.287109,-0.09375 -0.07763,-0.06419 -0.135474,-0.146531 -0.175781,-0.248046 -0.03881,-0.103009 -0.05859,-0.210301 -0.05859,-0.322266 0,-0.110473 0.01978,-0.217764 0.05859,-0.322266 0.03881,-0.104502 0.09666,-0.189713 0.175781,-0.253906 0.08061,-0.06569 0.176636,-0.09766 0.287109,-0.09766 z m 5.310547,0 c 0.11346,0 0.209941,0.03197 0.289063,0.09766 0.07912,0.06569 0.138921,0.151358 0.177734,0.255859 0.03881,0.103009 0.05859,0.20984 0.05859,0.320313 0,0.111965 -0.02024,0.219257 -0.06055,0.322266 -0.03881,0.101515 -0.09861,0.183853 -0.177734,0.248046 -0.07763,0.0627 -0.173651,0.09375 -0.28711,0.09375 -0.111965,0 -0.206033,-0.03105 -0.285156,-0.09375 -0.07763,-0.06419 -0.137428,-0.146531 -0.177734,-0.248046 -0.03881,-0.103009 -0.05859,-0.210301 -0.05859,-0.322266 0,-0.110473 0.01978,-0.217764 0.05859,-0.322266 0.03881,-0.104502 0.09861,-0.189713 0.177734,-0.253906 0.08062,-0.06569 0.174684,-0.09766 0.285156,-0.09766 z m 10.498047,0 c 0.107488,0 0.201668,0.03197 0.279297,0.09766 0.07912,0.06569 0.136508,0.151358 0.173828,0.255859 0.03881,0.103009 0.05859,0.20984 0.05859,0.320313 0,0.176159 -0.04519,0.330484 -0.134766,0.464844 -0.08957,0.132865 -0.215722,0.199218 -0.376953,0.199218 -0.111965,0 -0.206033,-0.03105 -0.285156,-0.09375 -0.07763,-0.06419 -0.137428,-0.146531 -0.177734,-0.248046 -0.03881,-0.103009 -0.05859,-0.210301 -0.05859,-0.322266 0,-0.110473 0.01978,-0.217764 0.05859,-0.322266 0.03881,-0.104502 0.09861,-0.189713 0.177734,-0.253906 0.08062,-0.06569 0.174684,-0.09766 0.285156,-0.09766 z m 12.441406,0 c 0.11346,0 0.209941,0.03197 0.289063,0.09766 0.07912,0.06569 0.138921,0.151358 0.177734,0.255859 0.03881,0.103009 0.05859,0.20984 0.05859,0.320313 0,0.111965 -0.02024,0.219257 -0.06055,0.322266 -0.03881,0.101515 -0.09861,0.183853 -0.177734,0.248046 -0.07763,0.0627 -0.173651,0.09375 -0.28711,0.09375 -0.111965,0 -0.206033,-0.03105 -0.285156,-0.09375 -0.07763,-0.06419 -0.137427,-0.146531 -0.177734,-0.248046 -0.03881,-0.103009 -0.05859,-0.210301 -0.05859,-0.322266 0,-0.110473 0.01978,-0.217764 0.05859,-0.322266 0.03881,-0.104502 0.09861,-0.189713 0.177734,-0.253906 0.08062,-0.06569 0.174684,-0.09766 0.285156,-0.09766 z m 4.802735,0 c 0.113458,0 0.20994,0.03197 0.289062,0.09766 0.07912,0.06569 0.136968,0.151358 0.175782,0.255859 0.03881,0.103009 0.05859,0.20984 0.05859,0.320313 0,0.111965 -0.02024,0.219257 -0.06055,0.322266 -0.03881,0.101515 -0.09861,0.183853 -0.177735,0.248046 -0.07763,0.0627 -0.171698,0.09375 -0.285156,0.09375 -0.111966,0 -0.207988,-0.03105 -0.287109,-0.09375 -0.07763,-0.06419 -0.137428,-0.146531 -0.177735,-0.248046 -0.03881,-0.103009 -0.05859,-0.210301 -0.05859,-0.322266 0,-0.110473 0.01978,-0.217764 0.05859,-0.322266 0.03881,-0.104502 0.09861,-0.189713 0.177735,-0.253906 0.08062,-0.06569 0.176636,-0.09766 0.287109,-0.09766 z m 2.644531,0 c 0.10898,0 0.201668,0.03243 0.279297,0.09961 0.07912,0.06569 0.138921,0.150898 0.177734,0.253906 0.03881,0.103009 0.05664,0.20984 0.05664,0.320313 0,0.110473 -0.01783,0.216844 -0.05664,0.318359 -0.03881,0.100023 -0.09861,0.18236 -0.177734,0.248047 -0.07912,0.06569 -0.17181,0.09766 -0.279297,0.09766 -0.167202,0 -0.297146,-0.06865 -0.386719,-0.208984 -0.08808,-0.14033 -0.130859,-0.29891 -0.130859,-0.476562 0,-0.113459 0.01737,-0.21983 0.05469,-0.31836 0.03881,-0.09853 0.09815,-0.179028 0.175781,-0.240234 0.07912,-0.0627 0.175143,-0.09375 0.287109,-0.09375 z m -50.675781,0.335937 0.664062,0.736328 c -0.09704,0.09256 -0.188804,0.159832 -0.27539,0.203125 -0.08509,0.0418 -0.187211,0.0625 -0.306641,0.0625 -0.143316,0 -0.259577,-0.03806 -0.347656,-0.117187 -0.08659,-0.07912 -0.128906,-0.189748 -0.128906,-0.330078 0,-0.120923 0.0353,-0.22396 0.105468,-0.310547 0.07017,-0.08659 0.166648,-0.168005 0.289063,-0.244141 z" />
  </g>
  <g
     transform="matrix(1.0210145,0,0,1.0210145,-61.853575,-77.62796)"
     id="layer1">
    <g
       transform="translate(-0.10022607,-0.16704345)"
       id="text817"
       style="font-style:normal;font-variant:normal;font-weight:normal;font-stretch:normal;font-size:10.58333302px;line-height:1.25;font-family:'VAG Rounded';-inkscape-font-specification:'VAG Rounded';letter-spacing:0px;word-spacing:0px;fill:#de3233;fill-opacity:0.94117647;stroke:none;stroke-width:0.26458332"
       aria-label="Workers">
      <path
         d="m 106.05469,76.197266 c -0.22738,0 -0.41148,0.07981 -0.55274,0.238281 -0.1378,0.155029 -0.20703,0.357883 -0.20703,0.609375 v 6.515625 c 0,0.251491 0.0692,0.45676 0.20703,0.615234 0.14126,0.15503 0.32536,0.232422 0.55274,0.232422 0.14469,0 0.27544,-0.03461 0.39258,-0.103515 0.11712,-0.07235 0.20797,-0.17136 0.27343,-0.298829 0.0655,-0.130914 0.0977,-0.279948 0.0977,-0.445312 v -1.849609 h 0.0215 l 1.85938,2.294921 c 0.13781,0.165365 0.26281,0.283122 0.37305,0.355469 0.11024,0.07579 0.23041,0.115234 0.36132,0.115234 0.19982,0 0.36806,-0.06923 0.50586,-0.207031 0.14125,-0.141249 0.21289,-0.314317 0.21289,-0.517578 0,-0.192925 -0.0639,-0.361165 -0.1914,-0.505859 l -1.78711,-2.09375 1.35351,-1.208985 c 0.19982,-0.18259 0.29883,-0.383029 0.29883,-0.603515 0,-0.1757 -0.0615,-0.335314 -0.18555,-0.476563 -0.12402,-0.141248 -0.27639,-0.210937 -0.45898,-0.210937 -0.22737,0 -0.45909,0.109592 -0.69336,0.330078 l -1.66992,1.617187 v -3.554687 c 0,-0.165365 -0.0322,-0.311985 -0.0977,-0.439453 -0.0655,-0.130914 -0.1563,-0.229926 -0.27343,-0.298828 -0.11369,-0.07235 -0.24444,-0.109375 -0.39258,-0.109375 z M 86.660156,76.75 c -0.220486,0 -0.401719,0.07164 -0.542968,0.212891 -0.141249,0.141249 -0.210938,0.301785 -0.210938,0.484375 0,0.124023 0.01391,0.243734 0.04492,0.357422 l 1.34375,5.783203 c 0.05512,0.237711 0.172418,0.432861 0.351562,0.58789 0.182591,0.15503 0.414307,0.232422 0.69336,0.232422 0.254936,0 0.476535,-0.0721 0.666015,-0.216797 0.189477,-0.144694 0.317353,-0.328803 0.382813,-0.552734 l 1.230469,-4.087891 h 0.01953 l 1.224609,4.087891 c 0.0689,0.223931 0.199192,0.40804 0.388672,0.552734 0.189481,0.144694 0.408664,0.216797 0.660156,0.216797 0.282498,0 0.514215,-0.07739 0.69336,-0.232422 0.182591,-0.155029 0.302302,-0.350179 0.357422,-0.58789 l 1.341797,-5.783203 c 0.02756,-0.120578 0.04297,-0.240289 0.04297,-0.357422 0,-0.18259 -0.06923,-0.343126 -0.207031,-0.484375 C 95.002821,76.821642 94.821588,76.75 94.597656,76.75 c -0.248046,0 -0.43986,0.06635 -0.574218,0.197266 -0.134357,0.127468 -0.225205,0.314453 -0.273438,0.5625 l -0.898438,4.496093 h -0.02148 l -1.375,-4.634765 C 91.396512,77.178168 91.29221,77.026258 91.140625,76.916016 90.992486,76.805772 90.821832,76.75 90.628906,76.75 c -0.192925,0 -0.363579,0.05577 -0.511718,0.166016 -0.148138,0.110242 -0.25244,0.262152 -0.314454,0.455078 l -1.375,4.634765 H 88.40625 L 87.507812,77.509766 C 87.401015,77.003337 87.118354,76.75 86.660156,76.75 Z M 98.375,78.589844 c -0.389296,0 -0.752224,0.07981 -1.089844,0.238281 -0.337619,0.158475 -0.628445,0.377197 -0.873047,0.65625 -0.244601,0.279053 -0.434,0.596788 -0.568359,0.955078 -0.130914,0.354845 -0.197266,0.722602 -0.197266,1.101563 0,0.530544 0.114421,1.021349 0.341797,1.472656 0.230822,0.447863 0.553847,0.80504 0.970703,1.070312 0.416856,0.261828 0.888916,0.392578 1.416016,0.392578 0.399631,0 0.770263,-0.07739 1.111328,-0.232421 0.34451,-0.158474 0.632922,-0.371446 0.867192,-0.636719 0.23771,-0.268717 0.42377,-0.580702 0.55468,-0.935547 0.13436,-0.35829 0.20117,-0.734673 0.20118,-1.130859 -1e-5,-0.392741 -0.0668,-0.765788 -0.20118,-1.117188 -0.13091,-0.351399 -0.31984,-0.663845 -0.56445,-0.939453 C 100.1026,79.208768 99.811768,78.990506 99.470703,78.832031 99.133084,78.670112 98.767741,78.589844 98.375,78.589844 Z m 14.61328,0 c -0.38585,0 -0.74878,0.07981 -1.08984,0.238281 -0.33762,0.155029 -0.62845,0.371337 -0.87305,0.650391 -0.24115,0.279052 -0.43055,0.598742 -0.56836,0.957031 -0.13436,0.35829 -0.20117,0.726508 -0.20117,1.105469 0,0.558105 0.11775,1.059949 0.35547,1.507812 0.23771,0.444417 0.57614,0.793892 1.01367,1.048828 0.43753,0.251492 0.93362,0.378906 1.48828,0.378906 0.27216,10e-7 0.56011,-0.03944 0.86328,-0.115234 0.30662,-0.07235 0.57916,-0.168484 0.82032,-0.289062 0.2446,-0.124024 0.43929,-0.26294 0.58398,-0.417969 0.14814,-0.155029 0.22266,-0.312229 0.22266,-0.470703 0,-0.110244 -0.0294,-0.214545 -0.0879,-0.314453 -0.0586,-0.09991 -0.13642,-0.182128 -0.23632,-0.244141 -0.0965,-0.06546 -0.19743,-0.09766 -0.30078,-0.09766 -0.11025,0 -0.28665,0.06681 -0.53125,0.201172 -0.24116,0.130913 -0.44355,0.23234 -0.60547,0.304687 -0.16192,0.07235 -0.35903,0.109375 -0.58985,0.109375 -0.37552,0 -0.69566,-0.09326 -0.96093,-0.279297 -0.26528,-0.186035 -0.42295,-0.46053 -0.47461,-0.822265 h 3.24414 c 0.44442,0 0.66797,-0.226889 0.66797,-0.681641 0,-0.323839 -0.0668,-0.649279 -0.20118,-0.976563 -0.13436,-0.330729 -0.32088,-0.62972 -0.55859,-0.898437 -0.23771,-0.268717 -0.52853,-0.484565 -0.87305,-0.646484 -0.34106,-0.165365 -0.71123,-0.248047 -1.10742,-0.248047 z m 8.74414,0 c -0.39963,0 -0.75486,0.07498 -1.06836,0.226562 -0.3135,0.14814 -0.55867,0.358236 -0.73437,0.626953 -0.1757,0.268718 -0.26367,0.575874 -0.26367,0.923829 0,0.39274 0.11775,0.7076 0.35546,0.945312 0.23772,0.237711 0.53337,0.429525 0.88477,0.574219 0.3514,0.144694 0.67396,0.280734 0.9668,0.408203 0.29283,0.127469 0.43945,0.265924 0.43945,0.414062 0,0.14814 -0.0452,0.257731 -0.13477,0.330078 -0.0861,0.0689 -0.24091,0.103516 -0.46484,0.103516 -0.16537,0 -0.30669,-0.02116 -0.42383,-0.0625 -0.11368,-0.04134 -0.24973,-0.10574 -0.4082,-0.195312 -0.15503,-0.08957 -0.28532,-0.155926 -0.38867,-0.197266 -0.10335,-0.04479 -0.22352,-0.06641 -0.36133,-0.06641 -0.19293,0 -0.35059,0.07785 -0.47461,0.236328 -0.12058,0.155029 -0.18164,0.301649 -0.18164,0.439453 0,0.213596 0.11442,0.413113 0.3418,0.595703 0.22738,0.18259 0.50521,0.324382 0.83593,0.427734 0.33418,0.103353 0.65145,0.156251 0.95118,0.15625 0.42374,10e-7 0.80208,-0.07739 1.13281,-0.232421 0.33417,-0.158474 0.59038,-0.373861 0.76953,-0.642579 0.17915,-0.272162 0.26758,-0.576904 0.26758,-0.917968 0,-0.396186 -0.12017,-0.713 -0.36133,-0.947266 -0.23771,-0.234267 -0.52612,-0.418836 -0.86719,-0.55664 -0.33762,-0.141249 -0.65972,-0.27729 -0.96289,-0.408204 -0.30317,-0.134358 -0.45312,-0.275689 -0.45312,-0.423828 0,-0.137804 0.0481,-0.244059 0.14453,-0.316406 0.0999,-0.07235 0.22295,-0.107422 0.37109,-0.107422 0.14814,0 0.28372,0.02403 0.4043,0.07227 0.12057,0.04823 0.29123,0.120796 0.51172,0.220703 0.22393,0.09991 0.37389,0.15039 0.45312,0.150391 0.1757,0 0.32232,-0.06923 0.43945,-0.207032 0.12059,-0.137803 0.18165,-0.29305 0.18165,-0.46875 0,-0.230821 -0.10143,-0.430799 -0.30469,-0.599609 -0.19982,-0.168809 -0.4474,-0.294271 -0.74024,-0.376953 -0.29283,-0.08268 -0.57836,-0.125 -0.85742,-0.125 z m -19.21289,0.0625 c -0.20671,0 -0.3884,0.06681 -0.54687,0.201172 -0.15503,0.134358 -0.23438,0.321343 -0.23438,0.5625 v 4.144531 h 0.002 c 0,0.251491 0.0673,0.45676 0.20508,0.615234 0.14126,0.15503 0.32536,0.232422 0.55274,0.232422 0.14469,0 0.27739,-0.03461 0.39453,-0.103515 0.11712,-0.07235 0.20797,-0.17136 0.27344,-0.298829 0.0655,-0.130914 0.0977,-0.279948 0.0977,-0.445312 v -2.335938 c 0,-0.268717 0.0774,-0.469157 0.23242,-0.603515 0.15503,-0.137804 0.38434,-0.276259 0.6875,-0.414063 0.1826,-0.07235 0.34025,-0.136286 0.47461,-0.191406 0.13436,-0.05512 0.24062,-0.121935 0.31641,-0.201172 0.0792,-0.07924 0.11914,-0.194118 0.11914,-0.345703 0,-0.261827 -0.0745,-0.46422 -0.22266,-0.605469 -0.14814,-0.141248 -0.32121,-0.210937 -0.51757,-0.210937 -0.23427,0 -0.43183,0.04853 -0.59375,0.148437 -0.16192,0.09991 -0.31958,0.262397 -0.47461,0.486328 h -0.0215 c 0,-0.423746 -0.24805,-0.634765 -0.74414,-0.634765 z m 14.51172,0 c -0.2067,0 -0.39035,0.06681 -0.54883,0.201172 -0.15502,0.134358 -0.23242,0.321343 -0.23242,0.5625 v 4.144531 c 0,0.251491 0.0692,0.45676 0.20703,0.615234 0.14125,0.15503 0.32536,0.232422 0.55274,0.232422 0.14469,0 0.27544,-0.03461 0.39257,-0.103515 0.11713,-0.07235 0.20797,-0.17136 0.27344,-0.298829 0.0655,-0.130914 0.0996,-0.279948 0.0996,-0.445312 v -2.335938 c 0,-0.268717 0.0774,-0.469157 0.23242,-0.603515 0.15503,-0.137804 0.38238,-0.276259 0.68555,-0.414063 0.18259,-0.07235 0.3422,-0.136286 0.47656,-0.191406 0.13436,-0.05512 0.23867,-0.121935 0.31446,-0.201172 0.0792,-0.07924 0.11914,-0.194118 0.11914,-0.345703 0,-0.261827 -0.0745,-0.46422 -0.22266,-0.605469 -0.14814,-0.141248 -0.31926,-0.210937 -0.51563,-0.210937 -0.23426,0 -0.43183,0.04853 -0.59375,0.148437 -0.16192,0.09991 -0.32153,0.262397 -0.47656,0.486328 h -0.0195 c 0,-0.423746 -0.24805,-0.634765 -0.74414,-0.634765 z m -4.04297,1.208984 c 0.34106,0 0.61843,0.106717 0.83203,0.320313 0.2136,0.213596 0.34148,0.493842 0.38281,0.841797 h -2.42382 c 0.0448,-0.341065 0.17554,-0.618897 0.39258,-0.835938 0.21704,-0.217041 0.48911,-0.326172 0.8164,-0.326172 z M 98.375,79.984375 c 0.261827,0 0.483426,0.07693 0.666016,0.228516 0.18259,0.151584 0.31863,0.346734 0.408203,0.58789 0.08957,0.237712 0.134765,0.485298 0.134765,0.740235 0,0.258382 -0.04565,0.506428 -0.138672,0.74414 -0.08957,0.234266 -0.225613,0.424127 -0.408203,0.572266 -0.179144,0.144694 -0.400282,0.21875 -0.662109,0.21875 -0.258382,0 -0.479519,-0.07406 -0.662109,-0.21875 -0.179145,-0.148139 -0.315186,-0.338 -0.408203,-0.572266 -0.08957,-0.237712 -0.132813,-0.485758 -0.132813,-0.74414 0,-0.254937 0.04324,-0.502984 0.132813,-0.744141 0.08957,-0.241157 0.225613,-0.435846 0.408203,-0.583984 0.186035,-0.151584 0.407172,-0.228516 0.662109,-0.228516 z"
         id="path1009"
         style="fill:#17689b;fill-opacity:0.94117647"
         inkscape:connector-curvature="0" />
    </g>
    <g
       transform="translate(-0.18511895,-0.07976592)"
       id="text120"
       style="font-style:normal;font-variant:normal;font-weight:normal;font-stretch:normal;font-size:10.58333302px;line-height:1.25;font-family:'VAG Rounded';-inkscape-font-specification:'VAG Rounded';letter-spacing:0px;word-spacing:0px;fill:#000000;fill-opacity:1;stroke:none;stroke-width:0.26458332"
       aria-label="micro">
      <path
         d="m 70.517578,76.283203 c -0.223931,0 -0.423909,0.08556 -0.599609,0.257813 -0.172255,0.16881 -0.257813,0.361084 -0.257813,0.578125 0,0.227376 0.08556,0.43023 0.257813,0.609375 0.1757,0.179145 0.375678,0.269531 0.599609,0.269531 0.237711,0 0.438151,-0.08556 0.603516,-0.257813 0.168809,-0.1757 0.253906,-0.383381 0.253906,-0.621093 0,-0.141249 -0.0399,-0.274875 -0.119141,-0.402344 -0.07924,-0.130913 -0.183539,-0.235216 -0.314453,-0.314453 -0.130913,-0.07924 -0.272244,-0.119141 -0.423828,-0.119141 z m -6.873047,2.220703 c -0.558105,0 -1.030165,0.212972 -1.416015,0.636719 -0.02756,-0.18259 -0.10254,-0.32392 -0.226563,-0.423828 -0.120578,-0.09991 -0.280192,-0.150391 -0.476562,-0.150391 -0.227376,0 -0.411485,0.07981 -0.552735,0.238282 -0.137803,0.155029 -0.207031,0.357883 -0.207031,0.609374 v 4.0625 c 0,0.251493 0.06923,0.45676 0.207031,0.615235 0.14125,0.155029 0.325359,0.232422 0.552735,0.232422 0.144694,0 0.275444,-0.03461 0.392578,-0.103516 0.11713,-0.07235 0.207977,-0.173312 0.273437,-0.300781 0.06546,-0.130914 0.09961,-0.277995 0.09961,-0.44336 v -2.65625 c 0,-0.21015 0.02978,-0.393798 0.0918,-0.548828 0.06546,-0.155029 0.166423,-0.2752 0.300782,-0.361328 0.134358,-0.08957 0.302598,-0.134765 0.505859,-0.134765 0.18259,0 0.340251,0.04519 0.474609,0.134765 0.134359,0.08957 0.237739,0.212158 0.306641,0.367188 0.07235,0.155029 0.107422,0.336263 0.107422,0.542968 v 2.65625 c 0,0.251493 0.06923,0.45676 0.207031,0.615235 0.14125,0.155029 0.325359,0.232422 0.552735,0.232422 0.144694,0 0.275444,-0.03461 0.392578,-0.103516 0.11713,-0.07235 0.207977,-0.173312 0.273437,-0.300781 0.06546,-0.130914 0.09961,-0.277995 0.09961,-0.44336 v -2.65625 c 0,-0.313504 0.08027,-0.566379 0.242187,-0.755859 0.161919,-0.192925 0.380643,-0.289062 0.65625,-0.289062 0.18259,0 0.34025,0.04519 0.474609,0.134765 0.134359,0.08957 0.23774,0.212158 0.306641,0.367188 0.07235,0.155029 0.107422,0.336263 0.107422,0.542968 v 2.65625 c 0,0.251492 0.06923,0.45676 0.207031,0.615235 0.141249,0.155029 0.325359,0.232422 0.552735,0.232422 0.144694,0 0.275444,-0.03461 0.392578,-0.103516 0.11713,-0.07235 0.207977,-0.173312 0.273437,-0.300781 0.06546,-0.130914 0.09961,-0.277995 0.09961,-0.44336 v -2.919921 c 0,-0.434082 -0.08797,-0.807129 -0.263672,-1.117188 -0.172255,-0.310059 -0.415012,-0.542236 -0.728516,-0.697265 -0.313503,-0.158474 -0.678846,-0.238282 -1.095703,-0.238282 -0.261827,0 -0.544488,0.07164 -0.847656,0.212891 -0.303168,0.141249 -0.556505,0.327772 -0.759766,0.558594 -0.409967,-0.51332 -0.935384,-0.771485 -1.576172,-0.771485 z m 10.996094,0 c -0.389296,0 -0.752224,0.07981 -1.089844,0.238282 -0.337619,0.158474 -0.628445,0.377197 -0.873047,0.65625 -0.244602,0.279052 -0.434,0.598741 -0.568359,0.957031 -0.130914,0.354844 -0.197266,0.720648 -0.197266,1.099609 0,0.530545 0.114421,1.021349 0.341797,1.472656 0.230822,0.447863 0.553847,0.805041 0.970703,1.070313 0.416857,0.261827 0.888917,0.392578 1.416016,0.392578 0.213596,0 0.469347,-0.03703 0.765625,-0.109375 0.296278,-0.07235 0.55249,-0.187229 0.769531,-0.345703 0.220486,-0.158475 0.330078,-0.356039 0.330078,-0.59375 0,-0.120579 -0.02978,-0.230171 -0.0918,-0.330078 -0.05857,-0.103354 -0.138373,-0.185574 -0.238281,-0.244141 -0.09991,-0.06201 -0.209038,-0.0918 -0.326172,-0.0918 -0.04479,0 -0.156792,0.0322 -0.335937,0.09766 -0.1757,0.06546 -0.325196,0.118816 -0.449219,0.160156 -0.124024,0.03789 -0.238906,0.05664 -0.345703,0.05664 -0.392741,0 -0.704726,-0.154324 -0.935547,-0.460937 -0.230821,-0.310059 -0.345703,-0.667698 -0.345703,-1.074219 0,-0.268717 0.04807,-0.522053 0.144531,-0.759766 0.09646,-0.237711 0.240669,-0.427571 0.433594,-0.572265 0.196371,-0.148139 0.430962,-0.222656 0.703125,-0.222656 0.179145,0 0.395453,0.04853 0.650391,0.148437 0.258382,0.09991 0.442491,0.150391 0.552734,0.150391 0.16881,0 0.309679,-0.07981 0.419922,-0.238281 0.110243,-0.158474 0.164062,-0.323839 0.164062,-0.496094 0,-0.227376 -0.104302,-0.411486 -0.314453,-0.552735 -0.21015,-0.144692 -0.463487,-0.24658 -0.759765,-0.308593 -0.292833,-0.06546 -0.556749,-0.09961 -0.791016,-0.09961 z m 8.433594,0 c -0.389296,0 -0.752225,0.07981 -1.089844,0.238282 -0.337619,0.158474 -0.628445,0.377197 -0.873047,0.65625 -0.244601,0.279052 -0.434001,0.598741 -0.568359,0.957031 -0.130914,0.354844 -0.197266,0.720648 -0.197266,1.099609 0,0.530545 0.11442,1.021349 0.341797,1.472656 0.230821,0.447863 0.553847,0.805041 0.970703,1.070313 0.416857,0.261827 0.888916,0.392578 1.416016,0.392578 0.39963,0 0.770263,-0.07739 1.111328,-0.232422 0.344509,-0.158474 0.634874,-0.371446 0.869141,-0.636719 0.237711,-0.268717 0.42182,-0.578749 0.552734,-0.933593 0.134359,-0.35829 0.201172,-0.736627 0.201172,-1.132813 0,-0.392741 -0.06681,-0.763834 -0.201172,-1.115234 -0.130914,-0.3514 -0.319852,-0.665799 -0.564453,-0.941406 -0.241157,-0.275608 -0.531982,-0.491916 -0.873047,-0.650391 -0.337619,-0.161919 -0.702963,-0.244141 -1.095703,-0.244141 z m -12.556641,0.0625 c -0.227377,0 -0.411486,0.07981 -0.552734,0.238282 -0.137804,0.155029 -0.207032,0.357883 -0.207032,0.609374 v 4.0625 c 0,0.251493 0.06923,0.45676 0.207032,0.615235 0.141248,0.155029 0.325357,0.232422 0.552734,0.232422 0.144694,0 0.275445,-0.03461 0.392578,-0.103516 0.11713,-0.07235 0.207978,-0.173312 0.273438,-0.300781 0.06546,-0.130914 0.09766,-0.277995 0.09766,-0.44336 v -4.0625 c 0,-0.165364 -0.0322,-0.311984 -0.09766,-0.439453 -0.06546,-0.130913 -0.156305,-0.229926 -0.273438,-0.298828 -0.113688,-0.07235 -0.244439,-0.109375 -0.392578,-0.109375 z m 7.275391,0 c -0.206706,0 -0.388401,0.06681 -0.546875,0.201172 -0.15503,0.134359 -0.232422,0.323297 -0.232422,0.564453 v 4.144531 c 0,0.251493 0.06727,0.45676 0.205078,0.615235 0.141249,0.155029 0.327311,0.232422 0.554688,0.232422 0.144694,0 0.275444,-0.03461 0.392578,-0.103516 0.11713,-0.07235 0.207977,-0.173312 0.273437,-0.300781 0.06546,-0.130914 0.09766,-0.277995 0.09766,-0.44336 v -2.335937 c 0,-0.268717 0.07739,-0.47111 0.232422,-0.605469 0.15503,-0.137804 0.384332,-0.274305 0.6875,-0.412109 0.18259,-0.07235 0.342203,-0.136286 0.476563,-0.191406 0.134358,-0.05512 0.238661,-0.123888 0.314453,-0.203125 0.07924,-0.07924 0.119141,-0.19412 0.119141,-0.345704 0,-0.261827 -0.07452,-0.462266 -0.222657,-0.603515 -0.148139,-0.141249 -0.321208,-0.212891 -0.517578,-0.212891 -0.234267,0 -0.431831,0.05048 -0.59375,0.150391 -0.16192,0.09991 -0.31958,0.262397 -0.474609,0.486328 h -0.02148 c 0,-0.423747 -0.248046,-0.636719 -0.74414,-0.636719 z m 5.28125,1.333985 c 0.261827,0 0.485378,0.07498 0.667969,0.226562 0.18259,0.151584 0.318631,0.348687 0.408203,0.589844 0.08957,0.237711 0.132812,0.483344 0.132812,0.738281 0,0.258382 -0.04565,0.506429 -0.138672,0.744141 -0.08957,0.234266 -0.225613,0.426079 -0.408203,0.574219 -0.179145,0.144694 -0.400282,0.216796 -0.662109,0.216796 -0.258383,0 -0.477566,-0.0721 -0.660157,-0.216796 -0.179144,-0.14814 -0.315185,-0.339953 -0.408203,-0.574219 -0.08957,-0.237712 -0.134765,-0.485759 -0.134765,-0.744141 0,-0.254937 0.04519,-0.502984 0.134765,-0.74414 0.08957,-0.241157 0.225613,-0.435846 0.408203,-0.583985 0.186036,-0.151585 0.405219,-0.226562 0.660157,-0.226562 z"
         id="path991"
         style="fill:#de3233;fill-opacity:0.94117647;stroke-width:0.26458332"
         inkscape:connector-curvature="0" />
    </g>
  </g>
</svg>
