<?xml version="1.0" encoding="iso-8859-1"?>
<!-- Generator: Adobe Illustrator 18.0.0, SVG Export Plug-In . SVG Version: 6.00 Build 0)  -->
<!DOCTYPE svg PUBLIC "-//W3C//DTD SVG 1.1//EN" "http://www.w3.org/Graphics/SVG/1.1/DTD/svg11.dtd">
<svg version="1.1" id="logo_1_" xmlns="http://www.w3.org/2000/svg" xmlns:xlink="http://www.w3.org/1999/xlink" x="0px" y="0px"
	 viewBox="0 0 98 57" style="enable-background:new 0 0 98 57;" xml:space="preserve">
<g id="logo">
	<g>
		<path style="fill-rule:evenodd;clip-rule:evenodd;fill:#0B3E47;" d="M28.673,22.347c1.465-1.256-2.403-1.951-3.861-1.835
			c-0.287,0.251-0.273,0.098-0.429,0.54C24.911,21.899,27.184,23.359,28.673,22.347z M44.44,35.301
			c-0.071-0.576-0.143-1.152-0.215-1.727c0.806-3.442,2.781-7.295,3.754-10.472c0.072-0.036,0.143-0.072,0.215-0.108
			c0.788,7.289,3.692,13.274,11.262,8.636c1.566-0.959,3.386-2.664,4.505-4.102c0.621-0.799,0.533-1.535,1.609-1.943
			c0.672-2.582,6.665-10.445,4.398-13.926c-4.282-6.574-11.313,4.265-12.549,7.665c-0.107,0.072-0.215,0.144-0.322,0.216
			c-0.827-1.126-0.52-2.479-0.858-4.21c-0.721-3.689-2.311-12.461-6.114-12.739c-0.301,1.998,1.187,4.043,1.716,5.83
			c0.894,4.174,1.788,8.349,2.682,12.523c0.506,2.734,0.452,6.279,2.252,7.665c2.917,1.153,2.686-3.826,3.111-5.83
			c0.815-3.848,2.795-10.872,6.972-11.011c1.372,2.066-0.253,5.024-0.965,6.693c-2.479,5.807-5.818,9.674-10.94,12.847
			c-2.871-2.438-2.694-7.826-4.827-11.011c-5.917-1.658-5.939,5.106-8.259,8.42c-1.545,1.211-4.963-3.771-6.65,2.267
			c-0.071,0.036-0.143,0.072-0.215,0.108c-0.958-2.05-2.054-3.204-4.398-3.886c-0.143,0.036-0.286,0.072-0.429,0.108
			c0.118,2.701,1.751,4.8,2.467,7.125c0.486,1.58,0.54,3.512,1.394,4.75c0.413,0.598,1.36,1.071,2.252,0.864
			c0.322-0.252,0.644-0.504,0.965-0.756c0.072-1.043,0.143-2.087,0.215-3.131c0.364-2.011,0.913-3.964,1.502-5.614
			c0.179-0.036,0.358-0.072,0.536-0.108c0.66,2.647,0.581,7.42,2.789,8.528c0.25,0.036,0.501,0.072,0.751,0.108
			C43.726,38.13,44.373,36.85,44.44,35.301z M18.268,28.608c-0.62-2.412-1.764-4.686-2.682-6.801
			c-0.641-1.477-1.485-4.534-3.003-5.074c-0.072,0.108-0.143,0.216-0.215,0.324c0.93,2.914,1.859,5.83,2.789,8.744
			c1.779,7.103,1.893,15.418,0.644,22.778c-0.072,0.036-0.143,0.072-0.215,0.108C11.33,43.643,8.753,36.87,5.612,30.659
			c-1.255-2.482-2.32-6.196-4.398-7.881C1,22.742,0.785,22.706,0.571,22.67c-0.072,0.036-0.143,0.072-0.215,0.108
			c-0.677,2.797-0.107,6.517-0.107,9.824c0,5.312-0.63,10.969,0.107,15.977C0.761,51.333-0.15,55.671,1.643,57
			c2.082-0.293,1.904-4.311,1.716-6.801c-0.268-3.558-0.842-8.528-0.215-12.307v-5.074c0.071-0.072,0.143-0.144,0.215-0.216
			c1.66,1.328,2.322,4.402,3.218,6.477c1.344,3.116,2.973,6.23,4.827,8.852c1.368,1.935,3.957,3.687,6.757,1.727
			c1.122-0.785,1.925-7.851,1.502-10.58C19.1,35.455,19.108,31.876,18.268,28.608z M30.067,38c-0.605,0.647-0.716,1.688-1.394,2.267
			c-2-1.797-0.384-6.882-1.609-9.5c-0.179-0.18-0.358-0.36-0.536-0.54c-0.429-0.036-0.858-0.072-1.287-0.108
			c-3.722,3.057,0.004,11.852,3.111,12.847c3.433,1.099,3.022-3.463,1.931-4.966H30.067z M81.015,21.699
			c5.721-2.361,1.816-12.493,0.429-16.733c-0.286-0.144-0.572-0.288-0.858-0.432c-0.107,0.108-0.215,0.216-0.322,0.324
			c-0.667,1.089-0.311,3.124,0.429,3.778c-1.536,2.508,2.009,9.43-1.609,11.227c-4.512,1.707-3.976-8.594-5.685-10.472
			c-0.179,0.036-0.358,0.072-0.536,0.108C71.754,14.457,75.403,24.015,81.015,21.699z M96.568,5.722
			c-1.526,0.241-6.972,2.468-8.044,1.295c0.006-0.645,0.053-1.282,0.429-1.835c0.406-0.597,6.402-3.324,3.325-5.074
			C91.956,0.072,91.634,0.036,91.312,0c-1.751,1.025-8.193,6.446-4.827,8.96c2.411,1.8,6.609-0.665,8.903-1.08
			c0.036,0.036,0.071,0.072,0.107,0.108c-1.271,3.261-3.388,5.475-6.007,7.341c-0.952,0.679-3.189,1.095-3.861,2.051
			c0.143,0.36,0.286,0.72,0.429,1.08C90.321,21.044,102.054,9.92,96.568,5.722z M52.436,44.388
			c-1.947,1.231-3.688,2.689-5.589,3.848c-0.71,0.433-1.691,0.399-2.157,0.888c-0.033,0.23-0.065,0.46-0.098,0.691
			c2.469-0.166,6.511-3.958,8.53-5.23c5.629-3.543,11.774-6.612,18.238-9.275c2.247-0.926,8.846-2.377,10.001-4.046
			c-2.433,0.165-4.942,1.286-6.962,2.072C66.229,36.517,59.268,40.069,52.436,44.388z M81.067,26.43
			c-5.181,1.561-9.814,3.382-14.414,5.427c-5.506,2.448-10.74,5.736-15.688,8.881c-2.124,1.48-4.249,2.96-6.373,4.44
			c0.065-0.23,0.131-0.461,0.196-0.691c-0.921,0.24-1.676,1.526-1.863,2.467c1.193-0.292,2.099-1.28,3.04-1.875
			c2.484-1.612,4.968-3.223,7.452-4.835c6.688-4.228,13.658-7.781,21.571-10.854c3.203-0.888,6.406-1.776,9.609-2.664
			c1.586-0.38,3.849-0.248,4.608-1.48v-0.099h-0.588C86.101,25.575,83.583,26.002,81.067,26.43z"/>
	</g>
</g>
</svg>
