<svg width="165" height="23" viewBox="0 0 165 23" fill="none" xmlns="http://www.w3.org/2000/svg">
<path d="M32.8883 3.9375H34.9512C34.9961 3.9375 35.0328 3.97429 35.0328 4.01926V10.5103C35.0328 10.588 35.1287 10.6207 35.1777 10.5614L40.397 3.96816C40.4133 3.94977 40.4357 3.9375 40.4602 3.9375H42.9434C43.0127 3.9375 43.0495 4.01721 43.0066 4.07035L37.1834 11.1602C37.1589 11.1909 37.1589 11.2338 37.1834 11.2645L43.4678 18.5894C43.5126 18.6426 43.4759 18.7243 43.4065 18.7243H40.9254C40.9009 18.7243 40.8785 18.7141 40.8642 18.6957L35.1736 11.9696C35.1246 11.9124 35.0307 11.9471 35.0307 12.0227V18.6446C35.0307 18.6896 34.994 18.7264 34.9491 18.7264H32.8863C32.8414 18.7264 32.8047 18.6896 32.8047 18.6446V4.0213C32.8047 3.97633 32.8414 3.93955 32.8863 3.93955L32.8883 3.9375Z" fill="#6E52FF"/>
<path d="M48.39 3.93563H54.1378C56.5618 3.93563 58.5716 5.86498 58.6185 8.293C58.6858 11.7817 55.3396 12.6197 55.3396 12.6197L58.898 18.5978C58.9307 18.6509 58.8919 18.7204 58.8287 18.7204H56.5577C56.5291 18.7204 56.5026 18.704 56.4883 18.6795L53.1156 12.8527H50.6202C50.5753 12.8527 50.5386 12.8895 50.5386 12.9344V18.6387C50.5386 18.6836 50.5018 18.7204 50.4569 18.7204H48.3941C48.3492 18.7204 48.3125 18.6836 48.3125 18.6387V4.01534C48.3125 3.97038 48.3492 3.93359 48.3941 3.93359L48.39 3.93563ZM54.1664 10.7415C55.3376 10.7415 56.3924 9.68482 56.3924 8.39519C56.3924 7.10556 55.3376 6.04892 54.1664 6.04892H50.6161C50.5712 6.04892 50.5345 6.0857 50.5345 6.13067V10.6617C50.5345 10.7067 50.5712 10.7435 50.6161 10.7435H54.1664V10.7415Z" fill="#6E52FF"/>
<path d="M64.6285 3.9375H66.6913C66.7362 3.9375 66.7729 3.97429 66.7729 4.01926V18.6426C66.7729 18.6875 66.7362 18.7243 66.6913 18.7243H64.6285C64.5836 18.7243 64.5469 18.6875 64.5469 18.6426V4.01926C64.5469 3.97429 64.5836 3.9375 64.6285 3.9375Z" fill="#6E52FF"/>
<path d="M73.4546 3.9375H78.6678C81.1244 3.9375 83.2362 5.7953 83.4341 8.24785C83.6565 11.0008 81.4672 13.3246 78.7637 13.3246H75.6827C75.6378 13.3246 75.6011 13.3614 75.6011 13.4064V18.6426C75.6011 18.6875 75.5643 18.7243 75.5194 18.7243H73.4566C73.4117 18.7243 73.375 18.6875 73.375 18.6426V4.01926C73.375 3.97429 73.4117 3.9375 73.4566 3.9375H73.4546ZM78.7616 11.2134C80.0511 11.2134 81.2223 10.0403 81.2223 8.63208C81.2223 7.22391 80.0511 6.05078 78.7616 6.05078H75.6806C75.6357 6.05078 75.599 6.08757 75.599 6.13253V11.1337C75.599 11.1786 75.6357 11.2154 75.6806 11.2154H78.7616V11.2134Z" fill="#6E52FF"/>
<path d="M90.6518 6.04687H86.3629C86.318 6.04687 86.2812 6.01008 86.2812 5.96512V4.01534C86.2812 3.97038 86.318 3.93359 86.3629 3.93359H97.33C97.3748 3.93359 97.4116 3.97038 97.4116 4.01534V5.96512C97.4116 6.01008 97.3748 6.04687 97.33 6.04687H93.0411C92.9962 6.04687 92.9594 6.08366 92.9594 6.12862V18.6387C92.9594 18.6836 92.9227 18.7204 92.8778 18.7204H90.815C90.7701 18.7204 90.7334 18.6836 90.7334 18.6387V6.12862C90.7334 6.08366 90.6966 6.04687 90.6518 6.04687Z" fill="#6E52FF"/>
<path d="M100.523 11.3292C100.523 7.10474 103.804 3.82037 107.553 3.82037C111.301 3.82037 114.582 7.10678 114.582 11.3292C114.582 15.5517 111.301 18.8381 107.553 18.8381C103.804 18.8381 100.523 15.5517 100.523 11.3292ZM107.553 5.81511C105.092 5.81511 102.75 8.16138 102.75 11.3292C102.75 14.4971 105.092 16.8434 107.553 16.8434C110.013 16.8434 112.356 14.4971 112.356 11.3292C112.356 8.16138 110.013 5.81511 107.553 5.81511Z" fill="#6E52FF"/>
<path d="M119.488 3.9375H121.23C121.261 3.9375 121.29 3.9559 121.304 3.98451L126.48 15.1599C126.509 15.2233 126.599 15.2233 126.627 15.1599L131.804 3.98451C131.818 3.9559 131.846 3.9375 131.877 3.9375H133.62C133.664 3.9375 133.701 3.97429 133.701 4.01926V18.6426C133.701 18.6875 133.664 18.7243 133.62 18.7243H131.557C131.512 18.7243 131.475 18.6875 131.475 18.6426V9.94011C131.475 9.85223 131.357 9.82771 131.32 9.90537L127.278 18.6753C127.266 18.7039 127.235 18.7223 127.205 18.7223H125.903C125.872 18.7223 125.842 18.7039 125.829 18.6753L121.787 9.90537C121.751 9.82566 121.632 9.85223 121.632 9.94011V18.6426C121.632 18.6875 121.596 18.7243 121.551 18.7243H119.488C119.443 18.7243 119.406 18.6875 119.406 18.6426V4.01926C119.406 3.97429 119.443 3.9375 119.488 3.9375Z" fill="#6E52FF"/>
<path d="M144.233 3.9375H145.996C146.028 3.9375 146.059 3.95794 146.071 3.99064L151.633 18.6139C151.654 18.6671 151.615 18.7243 151.558 18.7243H149.389C149.356 18.7243 149.326 18.7039 149.313 18.6712L148.065 15.3725C148.052 15.3418 148.022 15.3194 147.989 15.3194H142.243C142.211 15.3194 142.18 15.3398 142.168 15.3725L140.919 18.6712C140.907 18.7018 140.876 18.7243 140.844 18.7243H138.675C138.618 18.7243 138.579 18.6671 138.599 18.6139L144.161 3.99064C144.174 3.95998 144.204 3.9375 144.237 3.9375H144.233ZM147.183 13.0998L145.19 7.55297C145.163 7.48144 145.063 7.48144 145.037 7.55297L143.043 13.0998C143.025 13.1529 143.064 13.2081 143.119 13.2081H147.106C147.161 13.2081 147.202 13.1529 147.181 13.0998H147.183Z" fill="#6E52FF"/>
<path d="M158.245 6.04687H153.957C153.912 6.04687 153.875 6.01008 153.875 5.96512V4.01534C153.875 3.97038 153.912 3.93359 153.957 3.93359H164.924C164.969 3.93359 165.005 3.97038 165.005 4.01534V5.96512C165.005 6.01008 164.969 6.04687 164.924 6.04687H160.635C160.59 6.04687 160.553 6.08366 160.553 6.12862V18.6387C160.553 18.6836 160.516 18.7204 160.472 18.7204H158.409C158.364 18.7204 158.327 18.6836 158.327 18.6387V6.12862C158.327 6.08366 158.29 6.04687 158.245 6.04687Z" fill="#6E52FF"/>
<path d="M19.3514 22.637H20.7491C21.7693 22.637 22.5977 21.8072 22.5977 20.7853V1.85167C22.5977 0.829777 21.7693 0 20.7491 0H19.3514C19.3269 0 19.3045 0.0102219 19.2882 0.028616L10.5267 10.7176C10.2411 11.0671 10.2411 11.5678 10.5267 11.9173L19.2882 22.6063C19.3045 22.6247 19.3269 22.635 19.3514 22.635V22.637Z" fill="#6E52FF"/>
<path d="M6.12525 10.7277L14.8071 0.136751C14.8499 0.0836127 14.8132 0.00390625 14.7438 0.00390625H1.84859C0.828397 0.00390625 0 0.833684 0 1.85558V20.7892C0 21.8111 0.828397 22.6409 1.84859 22.6409H14.7438C14.8132 22.6409 14.8499 22.5612 14.8071 22.5081L6.12525 11.9171C5.84163 11.5717 5.84163 11.0731 6.12525 10.7277Z" fill="#6E52FF"/>
</svg>
