<svg width="256" height="256" viewBox="0 0 256 256" fill="none" xmlns="http://www.w3.org/2000/svg">
<rect width="256" height="256" rx="69" fill="white"/>
<g filter="url(#filter0_i_371_17141)">
<path d="M185 128C185 139.274 181.657 150.294 175.394 159.668C169.131 169.041 160.228 176.347 149.813 180.661C139.398 184.975 127.937 186.104 116.88 183.905C105.823 181.705 95.6665 176.277 87.6949 168.305C79.7233 160.333 74.2946 150.177 72.0952 139.12C69.8959 128.063 71.0247 116.602 75.3389 106.187C79.6531 95.7717 86.9589 86.8695 96.3325 80.6062C105.706 74.343 116.726 71 128 71" stroke="url(#paint0_radial_371_17141)" stroke-width="36" stroke-linecap="round" stroke-linejoin="round"/>
</g>
<path fill-rule="evenodd" clip-rule="evenodd" d="M132.503 131.564C132.419 129.792 133.384 128.176 134.438 126.749C135.42 125.421 136 123.778 136 122C136 117.582 132.418 114 128 114C123.582 114 120 117.582 120 122C120 123.778 120.58 125.421 121.562 126.749C122.616 128.176 123.581 129.792 123.497 131.564L123.238 137.006C123.108 139.725 125.278 142 128 142C130.722 142 132.892 139.725 132.762 137.006L132.503 131.564Z" fill="#583CCC"/>
<defs>
<filter id="filter0_i_371_17141" x="52.9999" y="53" width="150" height="150" filterUnits="userSpaceOnUse" color-interpolation-filters="sRGB">
<feFlood flood-opacity="0" result="BackgroundImageFix"/>
<feBlend mode="normal" in="SourceGraphic" in2="BackgroundImageFix" result="shape"/>
<feColorMatrix in="SourceAlpha" type="matrix" values="0 0 0 0 0 0 0 0 0 0 0 0 0 0 0 0 0 0 127 0" result="hardAlpha"/>
<feOffset dx="-14" dy="7"/>
<feComposite in2="hardAlpha" operator="arithmetic" k2="-1" k3="1"/>
<feColorMatrix type="matrix" values="0 0 0 0 0 0 0 0 0 0 0 0 0 0 0 0 0 0 0.2 0"/>
<feBlend mode="normal" in2="shape" result="effect1_innerShadow_371_17141"/>
</filter>
<radialGradient id="paint0_radial_371_17141" cx="0" cy="0" r="1" gradientUnits="userSpaceOnUse" gradientTransform="translate(187 53) rotate(123.453) scale(201.358 248.16)">
<stop offset="0.322496" stop-color="#6D4AFF"/>
<stop offset="0.521332" stop-color="#B578D9"/>
<stop offset="0.717201" stop-color="#F9AF94"/>
<stop offset="0.865884" stop-color="#FFD580"/>
</radialGradient>
</defs>
</svg>
