<?xml version="1.0" encoding="UTF-8"?>
<svg width="100px" height="19px" viewBox="0 0 100 19" version="1.1" xmlns="http://www.w3.org/2000/svg">
    <!-- Generator: Sketch 54.1 (76490) - https://sketchapp.com -->
    <title>Page 1</title>
    <desc>Created with Sketch.</desc>
    <g id="Menu" stroke="none" stroke-width="1" fill="none" fill-rule="evenodd">
        <g id="HP-Mobile" transform="translate(-20.000000, -20.000000)" fill="#EE6513">
            <g id="Page-1" transform="translate(20.000000, 20.000000)">
                <path d="M20.3322951,7.13425217 C20.3322951,6.67081739 20.4634426,6.33707826 20.724918,6.13055652 C20.9872131,5.92403478 21.3568852,5.8216 21.8322951,5.8216 C22.1265574,5.8216 22.3970492,5.85794783 22.6429508,5.93229565 C22.8880328,6.00746957 23.0519672,6.06033913 23.1347541,6.09338261 L23.1347541,12.6070783 C23.1347541,13.7305565 23.3954098,14.5863826 23.9208197,15.1712522 C24.4454098,15.7569478 25.2478689,16.0510348 26.3298361,16.0510348 C27.4109836,16.0510348 28.2134426,15.7569478 28.7380328,15.1712522 C29.262623,14.5863826 29.524918,13.7305565 29.524918,12.6070783 L29.524918,7.13425217 C29.524918,6.67081739 29.6552459,6.33707826 29.917541,6.13055652 C30.1798361,5.92403478 30.5396721,5.8216 30.9986885,5.8216 C31.3109836,5.8216 31.5888525,5.85794783 31.8339344,5.93229565 C32.0806557,6.00746957 32.2445902,6.06033913 32.3257377,6.09338261 L32.3257377,13.2266435 C32.3257377,14.0692522 32.1822951,14.8242957 31.8962295,15.4934261 C31.6085246,16.1625565 31.2003279,16.7276 30.667541,17.1893826 C30.1355738,17.6519913 29.5003279,18.0030783 28.762623,18.2426435 C28.0257377,18.4813826 27.2142623,18.6019913 26.3298361,18.6019913 C25.4445902,18.6019913 24.6339344,18.4813826 23.8970492,18.2426435 C23.1585246,18.0030783 22.5281967,17.6519913 22.0036066,17.1893826 C21.4790164,16.7276 21.07,16.1625565 20.774918,15.4934261 C20.4806557,14.8242957 20.3322951,14.0692522 20.3322951,13.2266435 L20.3322951,7.13425217 Z"
                      id="Fill-1"/>
                <path d="M34.5380328,3.61685652 C34.5380328,3.15342174 34.6683607,2.8205087 34.9314754,2.61316087 C35.1929508,2.40663913 35.5536066,2.30420435 36.012623,2.30420435 C36.3068852,2.30420435 36.5806557,2.34055217 36.8355738,2.41572609 C37.0896721,2.49007391 37.2568852,2.54376957 37.3396721,2.57598696 L37.3396721,5.82085652 L40.9036066,5.82085652 C41.4445902,5.82085652 41.824918,5.93237826 42.0462295,6.15459565 C42.267541,6.37846522 42.3765574,6.70311739 42.3765574,7.1335087 C42.3765574,7.41520435 42.3372131,7.67376957 42.2552459,7.91333478 C42.172459,8.1529 42.1068852,8.32224783 42.0585246,8.42137826 L37.3396721,8.42137826 L37.3396721,13.9454217 C37.3396721,14.3741609 37.3962295,14.7252478 37.5118033,14.9970304 C37.6265574,15.2696391 37.7855738,15.4885522 37.9904918,15.6529435 C38.1962295,15.818987 38.4331148,15.9346391 38.7036066,16.0015522 C38.9732787,16.066813 39.2568852,16.0990304 39.5503279,16.0990304 C40.0265574,16.0990304 40.4691803,16.0255087 40.8781967,15.876813 C41.2872131,15.7281174 41.5839344,15.5876826 41.7634426,15.4563348 L42.8937705,17.3381609 C42.762623,17.4372913 42.5790164,17.5620304 42.3413115,17.7099 C42.1027869,17.8585957 41.812623,17.9990304 41.4683607,18.1303783 C41.1240984,18.2633783 40.7388525,18.3740739 40.3134426,18.4657696 C39.8872131,18.555813 39.4208197,18.6012478 38.9134426,18.6012478 C37.4708197,18.6012478 36.3814754,18.2262043 35.6445902,17.4736391 C34.9060656,16.7243783 34.5380328,15.7372043 34.5380328,14.5145957 L34.5380328,3.61685652 Z"
                      id="Fill-3"/>
                <path d="M50.6353279,16.0509522 C51.1918852,16.0509522 51.7041803,15.9476913 52.1713934,15.7411696 C52.6377869,15.5346478 53.0394262,15.2546043 53.3754918,14.8985609 C53.7115574,14.5433435 53.9697541,14.1228652 54.150082,13.6346478 C54.3295902,13.1489087 54.4197541,12.6169087 54.4197541,12.0378217 C54.4197541,11.4595609 54.3295902,10.9226043 54.150082,10.4269522 C53.9697541,9.93212609 53.7115574,9.50751739 53.3754918,9.1523 C53.0394262,8.7979087 52.6377869,8.51703913 52.1713934,8.31051739 C51.7041803,8.10399565 51.1918852,7.9999087 50.6353279,7.9999087 C50.0615574,7.9999087 49.5418852,8.10399565 49.0746721,8.31051739 C48.607459,8.51703913 48.209918,8.80203913 47.8828689,9.16386522 C47.5541803,9.52816957 47.297623,9.95773478 47.1082787,10.4525609 C46.9205738,10.948213 46.8263115,11.4769087 46.8263115,12.0378217 C46.8263115,12.6317783 46.9205738,13.1769957 47.1082787,13.6718217 C47.297623,14.1683 47.5582787,14.5887783 47.8951639,14.9349087 C48.2304098,15.2818652 48.6320492,15.5544739 49.100082,15.7527348 C49.5656557,15.9518217 50.0779508,16.0509522 50.6353279,16.0509522 L50.6353279,16.0509522 Z M44.0492623,1.31273478 C44.0492623,0.867473913 44.1795902,0.53703913 44.4418852,0.322256522 C44.7033607,0.107473913 45.0730328,8.26086966e-05 45.547623,8.26086966e-05 C45.8427049,8.26086966e-05 46.1131967,0.0372565217 46.3582787,0.111604348 C46.6041803,0.186778261 46.7672951,0.239647826 46.8509016,0.272691304 L46.8509016,7.38116957 C47.259918,6.85247391 47.8254918,6.40308261 48.5459836,6.03134348 C49.2672951,5.65960435 50.0943443,5.4729087 51.0279508,5.4729087 C51.9295902,5.4729087 52.7615574,5.63482174 53.5230328,5.95699565 C54.2845082,6.27916957 54.9492623,6.73351739 55.5131967,7.31921304 C56.0795902,7.90573478 56.5222131,8.59882174 56.8402459,9.3993 C57.1607377,10.2006043 57.3197541,11.0795609 57.3197541,12.0378217 C57.3197541,12.9787348 57.1558197,13.855213 56.8287705,14.6631261 C56.5009016,15.4726913 56.0410656,16.1666043 55.4533607,16.7440391 C54.862377,17.3223 54.1615574,17.7766478 53.3509016,18.1062565 C52.5394262,18.4366913 51.6509016,18.6010826 50.6845082,18.6010826 C49.7172951,18.6010826 48.8287705,18.453213 48.0181148,18.1558217 C47.2058197,17.8584304 46.507459,17.4123435 45.9164754,16.818387 C45.3263115,16.2236043 44.8681148,15.4809522 44.5402459,14.5887783 C44.212377,13.6966043 44.0492623,12.6491261 44.0492623,11.4438652 L44.0492623,1.31273478 Z"
                      id="Fill-5"/>
                <path d="M58.9665574,10.2546304 C58.9665574,8.73545652 59.4288525,7.5591087 60.355082,6.72558696 C61.2804918,5.89123913 62.5632787,5.47406522 64.2009836,5.47406522 C65.2337705,5.47406522 66.0731148,5.61945652 66.7206557,5.90693478 C67.3681967,6.1968913 67.6919672,6.63802174 67.6919672,7.23363043 C67.6919672,7.5145 67.6140984,7.78628261 67.4583607,8.04980435 C67.3018033,8.31415217 67.1755738,8.47936957 67.0780328,8.54545652 C66.7985246,8.41328261 66.455082,8.28936957 66.0452459,8.17371739 C65.6354098,8.0588913 65.167377,8.00023913 64.6436066,8.00023913 C62.7280328,8.00023913 61.7690164,9.02458696 61.7690164,11.0716304 L61.7690164,18.2552826 L58.9665574,18.2552826 L58.9665574,10.2546304 Z"
                      id="Fill-7"/>
                <path d="M77.0297541,12.7062913 C76.8666393,12.6732478 76.5592623,12.6236826 76.1084426,12.5575957 C75.6568033,12.4923348 74.9822131,12.4584652 74.0805738,12.4584652 C72.9658197,12.4584652 72.1559836,12.627813 71.6477869,12.9665087 C71.1395902,13.3052043 70.8854918,13.8380304 70.8854918,14.5641609 C70.8854918,14.8615522 70.9379508,15.1333348 71.0453279,15.381987 C71.1518852,15.629813 71.3363115,15.8396391 71.5977869,16.0139435 C71.860082,16.1865957 72.2166393,16.3195957 72.667459,16.4096391 C73.1182787,16.5005087 73.6797541,16.5459435 74.3518852,16.5459435 C75.1043443,16.5459435 75.7027049,16.5170304 76.1453279,16.4583783 C76.5871311,16.4022043 76.8830328,16.3559435 77.0297541,16.3229 L77.0297541,12.7062913 Z M79.8059836,18.2055522 C79.6428689,18.2377696 79.3854918,18.2749435 79.0330328,18.3170739 C78.6813934,18.3575522 78.2666393,18.3996826 77.7920492,18.4401609 C77.3166393,18.4814652 76.7838525,18.5186391 76.1936885,18.5525087 C75.6051639,18.5839 74.9904098,18.6020739 74.3518852,18.6020739 C73.0731967,18.6020739 72.0289344,18.4897261 71.217459,18.2666826 C70.4068033,18.0444652 69.767459,17.7470739 69.3010656,17.3753348 C68.8346721,17.0035957 68.5141803,16.5748565 68.3420492,16.0866391 C68.169918,15.6009 68.0846721,15.1011174 68.0846721,14.5881174 C68.0846721,13.9115522 68.1871311,13.3175957 68.3920492,12.8054217 C68.5961475,12.2940739 68.9322131,11.8636826 69.3986066,11.5183783 C69.8658197,11.1714217 70.4764754,10.9112043 71.2297541,10.7369 C71.9838525,10.5634217 72.9018852,10.4766826 73.9830328,10.4766826 C74.6043443,10.4766826 75.1953279,10.4981609 75.7510656,10.5394652 C76.3084426,10.5807696 76.7264754,10.6179435 77.0051639,10.650987 C77.0051639,10.0727261 76.910082,9.59359565 76.7231967,9.21442174 C76.5346721,8.83442174 76.2764754,8.53703043 75.9494262,8.32307391 C75.6207377,8.1082913 75.2272951,7.95959565 74.7690984,7.87698696 C74.310082,7.79437826 73.8018852,7.75307391 73.2453279,7.75307391 C72.3117213,7.75307391 71.5617213,7.86046522 70.9961475,8.07524783 C70.4313934,8.29003043 70.0592623,8.47094348 69.8781148,8.62046522 C69.7797541,8.53703043 69.6445082,8.3809 69.472377,8.14876957 C69.3010656,7.9182913 69.215,7.63742174 69.215,7.30698696 C69.215,7.0765087 69.2764754,6.8485087 69.3986066,6.62546522 C69.522377,6.40324783 69.7387705,6.20498696 70.0502459,6.0315087 C70.3617213,5.85803043 70.7797541,5.72255217 71.3035246,5.62259565 C71.8281148,5.52346522 72.4920492,5.4739 73.2928689,5.4739 C74.2609016,5.4739 75.1412295,5.56972609 75.9363115,5.7589 C76.7322131,5.9489 77.415,6.25042174 77.9879508,6.66346522 C78.5617213,7.0765087 79.007623,7.62172609 79.3272951,8.2982913 C79.6469672,8.97485652 79.8059836,9.79268261 79.8059836,10.7501174 L79.8059836,18.2055522 Z"
                      id="Fill-9"/>
                <path d="M82.3127869,7.13425217 C82.3127869,6.67081739 82.4447541,6.33707826 82.7062295,6.13055652 C82.9685246,5.92403478 83.337377,5.8216 83.8127869,5.8216 C84.1070492,5.8216 84.3783607,5.85794783 84.6234426,5.93229565 C84.8685246,6.00746957 85.032459,6.06033913 85.1152459,6.09338261 L85.1152459,18.2550348 L82.3127869,18.2550348 L82.3127869,7.13425217 Z M83.7144262,0.247165217 C84.1898361,0.247165217 84.5906557,0.412382609 84.9185246,0.743643478 C85.2455738,1.07407826 85.4095082,1.47803478 85.4095082,1.95633913 C85.4095082,2.43629565 85.2455738,2.84025217 84.9185246,3.16986087 C84.5906557,3.50194783 84.1898361,3.66633913 83.7144262,3.66633913 C83.2398361,3.66633913 82.8381967,3.50194783 82.5095082,3.16986087 C82.182459,2.84025217 82.0185246,2.43629565 82.0185246,1.95633913 C82.0185246,1.47803478 82.182459,1.07407826 82.5095082,0.743643478 C82.8381967,0.412382609 83.2398361,0.247165217 83.7144262,0.247165217 L83.7144262,0.247165217 Z"
                      id="Fill-11"/>
                <path d="M87.6222131,10.7499522 C87.6222131,9.9246913 87.7738525,9.18534348 88.0763115,8.53273478 C88.3787705,7.88012609 88.797623,7.32747391 89.3295902,6.87395217 C89.862377,6.41960435 90.4935246,6.07347391 91.2230328,5.8339087 C91.9509016,5.59434348 92.750082,5.47373478 93.6172951,5.47373478 C94.4869672,5.47373478 95.2894262,5.59434348 96.0271311,5.8339087 C96.7640164,6.07347391 97.3992623,6.41960435 97.9312295,6.87395217 C98.4631967,7.32747391 98.8779508,7.88012609 99.1730328,8.53273478 C99.4672951,9.18534348 99.6156557,9.9246913 99.6156557,10.7499522 L99.6156557,18.2549522 L96.8140164,18.2549522 L96.8140164,11.4678217 C96.8140164,10.3459957 96.5427049,9.49099565 96.0033607,8.9053 C95.4615574,8.31877826 94.6664754,8.0246913 93.6172951,8.0246913 C92.5533607,8.0246913 91.755,8.31877826 91.2230328,8.9053 C90.6902459,9.49099565 90.4238525,10.3459957 90.4238525,11.4678217 L90.4238525,18.2549522 L87.6222131,18.2549522 L87.6222131,10.7499522 Z"
                      id="Fill-13"/>
                <path d="M14.0086066,15.7589304 C13.477459,16.2843217 12.8553279,16.694887 12.1413934,16.9939304 C11.427459,17.2904957 10.6512295,17.4391913 9.81434426,17.4391913 C8.97663934,17.4391913 8.20122951,17.2904957 7.48811475,16.9939304 C6.77336066,16.694887 6.15040984,16.2843217 5.6192623,15.7589304 C5.08811475,15.2351913 4.67172131,14.6156261 4.37172131,13.9010609 C4.08155738,13.2112783 3.93237705,12.4653217 3.92172131,11.6648435 L5.33401639,11.6648435 C5.34877049,11.9110174 5.40122951,12.1414957 5.49221311,12.3579304 C5.60122951,12.6181478 5.75286885,12.8428435 5.94467213,13.0328435 C6.13729508,13.2236696 6.36434426,13.3731913 6.62336066,13.4797565 C6.88237705,13.5888 7.16434426,13.6433217 7.46844262,13.6433217 C7.77254098,13.6433217 8.05286885,13.5888 8.31270492,13.4797565 C8.57172131,13.3731913 8.79877049,13.2236696 8.99139344,13.0328435 C9.18401639,12.8428435 9.33565574,12.6181478 9.44385246,12.3579304 C9.51680328,12.1869304 9.56434426,12.0051913 9.58811475,11.8151913 L10.0405738,11.8151913 C10.0643443,12.0051913 10.1118852,12.1869304 10.1848361,12.3579304 C10.2946721,12.6181478 10.4446721,12.8428435 10.6381148,13.0328435 C10.829918,13.2236696 11.0569672,13.3731913 11.3159836,13.4797565 C11.575,13.5888 11.8569672,13.6433217 12.1602459,13.6433217 C12.4651639,13.6433217 12.7463115,13.5888 13.0053279,13.4797565 C13.2643443,13.3731913 13.4913934,13.2236696 13.6840164,13.0328435 C13.8766393,12.8428435 14.0282787,12.6181478 14.1372951,12.3579304 C14.2282787,12.1414957 14.2807377,11.9110174 14.2963115,11.6648435 L15.7053279,11.6648435 C15.6971311,12.4653217 15.5471311,13.2112783 15.2569672,13.9010609 C14.9561475,14.6156261 14.5397541,15.2351913 14.0086066,15.7589304 M8.73893443,11.5153217 C8.73893443,11.6954087 8.70614754,11.8622783 8.64221311,12.0167565 C8.57745902,12.1695826 8.48811475,12.3025826 8.37254098,12.4165826 C8.25696721,12.5305826 8.12336066,12.6189739 7.97008197,12.6825826 C7.81516393,12.7470174 7.64877049,12.7792348 7.46844262,12.7792348 C7.28729508,12.7792348 7.12008197,12.7470174 6.96598361,12.6825826 C6.81270492,12.6189739 6.67827869,12.5305826 6.56352459,12.4165826 C6.44795082,12.3025826 6.35860656,12.1695826 6.29467213,12.0167565 C6.22991803,11.8622783 6.19713115,11.6954087 6.19713115,11.5153217 C6.19713115,11.336887 6.22991803,11.1691913 6.29467213,11.014713 C6.35860656,10.8610609 6.44795082,10.7280609 6.56352459,10.6140609 C6.67827869,10.501713 6.81270492,10.4124957 6.96598361,10.348887 C7.12008197,10.2844522 7.28729508,10.2522348 7.46844262,10.2522348 C7.64877049,10.2522348 7.81516393,10.2844522 7.97008197,10.348887 C8.12336066,10.4124957 8.25696721,10.501713 8.37254098,10.6140609 C8.48811475,10.7280609 8.57745902,10.8610609 8.64221311,11.014713 C8.70614754,11.1691913 8.73893443,11.336887 8.73893443,11.5153217 M13.4315574,11.5153217 C13.4315574,11.6954087 13.3995902,11.8622783 13.3340164,12.0167565 C13.270082,12.1695826 13.179918,12.3025826 13.0659836,12.4165826 C12.9512295,12.5305826 12.8159836,12.6189739 12.6618852,12.6825826 C12.5086066,12.7470174 12.3413934,12.7792348 12.1602459,12.7792348 C11.979918,12.7792348 11.8127049,12.7470174 11.6594262,12.6825826 C11.5045082,12.6189739 11.370082,12.5305826 11.2561475,12.4165826 C11.1413934,12.3025826 11.0520492,12.1695826 10.9864754,12.0167565 C10.9217213,11.8622783 10.8897541,11.6954087 10.8897541,11.5153217 C10.8897541,11.336887 10.9217213,11.1691913 10.9864754,11.014713 C11.0520492,10.8610609 11.1413934,10.7280609 11.2561475,10.6140609 C11.370082,10.501713 11.5045082,10.4124957 11.6594262,10.348887 C11.8127049,10.2844522 11.979918,10.2522348 12.1602459,10.2522348 C12.3413934,10.2522348 12.5086066,10.2844522 12.6618852,10.348887 C12.8159836,10.4124957 12.9512295,10.501713 13.0659836,10.6140609 C13.179918,10.7280609 13.270082,10.8610609 13.3340164,11.014713 C13.3995902,11.1691913 13.4315574,11.336887 13.4315574,11.5153217 M4.44631148,9.10397391 C5.44877049,8.77106087 6.77827869,8.34645217 6.77827869,8.34645217 C9.70286885,7.40884348 10.0946721,6.30023478 10.0946721,6.30023478 C10.0946721,6.30023478 10.7102459,7.40884348 12.8331967,8.13993043 C12.8331967,8.13993043 14.0061475,8.52901739 15.0971311,8.92636522 C15.1520492,9.0354087 15.2086066,9.14445217 15.2569672,9.26010435 C15.4487705,9.71610435 15.5790984,10.196887 15.6479508,10.6999739 L14.1471311,10.6999739 L14.1372951,10.6735391 C14.0282787,10.4133217 13.8766393,10.1894522 13.6840164,9.99862609 C13.4913934,9.8078 13.2643443,9.65827826 13.0053279,9.55006087 C12.7463115,9.44266957 12.4651639,9.38897391 12.1602459,9.38897391 C11.8569672,9.38897391 11.575,9.44266957 11.3159836,9.55006087 C11.0569672,9.65827826 10.829918,9.8078 10.6381148,9.99862609 C10.4446721,10.1894522 10.2946721,10.4133217 10.1848361,10.6735391 C10.1504098,10.7553217 10.1217213,10.8387565 10.0979508,10.9238435 L9.5307377,10.9238435 C9.50778689,10.8387565 9.47909836,10.7553217 9.44385246,10.6735391 C9.33565574,10.4133217 9.18401639,10.1894522 8.99139344,9.99862609 C8.79877049,9.8078 8.57172131,9.65827826 8.31270492,9.55006087 C8.05286885,9.44266957 7.77254098,9.38897391 7.46844262,9.38897391 C7.16434426,9.38897391 6.88237705,9.44266957 6.62336066,9.55006087 C6.36434426,9.65827826 6.13729508,9.8078 5.94467213,9.99862609 C5.75286885,10.1894522 5.60122951,10.4133217 5.49221311,10.6735391 C5.48811475,10.6818 5.48565574,10.690887 5.48155738,10.6999739 L3.98155738,10.6999739 C4.05040984,10.196887 4.17991803,9.71610435 4.37172131,9.26010435 C4.39467213,9.2064087 4.42254098,9.15684348 4.44631148,9.10397391 M18.1217213,6.2168 C17.6618852,5.1271913 17.0282787,4.18214783 16.2159836,3.38166957 C15.4053279,2.57953913 14.4553279,1.95253913 13.3659836,1.49901739 C12.2758197,1.04466957 11.0922131,0.817495652 9.81434426,0.817495652 C8.53647541,0.817495652 7.35286885,1.04466957 6.26270492,1.49901739 C5.17336066,1.95253913 4.22254098,2.57953913 3.41188525,3.38166957 C2.60122951,4.18214783 1.96598361,5.1271913 1.50778689,6.2168 C1.04795082,7.30723478 0.819262295,8.48853913 0.819262295,9.75906087 C0.819262295,11.0312348 1.04795082,12.210887 1.50778689,13.3013217 C1.96598361,14.3917565 2.60122951,15.3359739 3.41188525,16.1372783 C4.22254098,16.9385826 5.17336066,17.5655826 6.26270492,18.0199304 C7.35286885,18.4734522 8.53647541,18.7006261 9.81434426,18.7006261 C11.0922131,18.7006261 12.2758197,18.4734522 13.3659836,18.0199304 C14.4553279,17.5655826 15.4053279,16.9385826 16.2159836,16.1372783 C17.0282787,15.3359739 17.6618852,14.3917565 18.1217213,13.3013217 C18.5790984,12.210887 18.8086066,11.0312348 18.8086066,9.75906087 C18.8086066,8.48853913 18.5790984,7.30723478 18.1217213,6.2168"
                      id="Fill-16"/>
            </g>
        </g>
    </g>
</svg>