<svg xmlns="http://www.w3.org/2000/svg" fill="none" viewBox="0 0 221 34" height="34" width="221">
<path fill="#475CC7" d="M4.16501 25.7292C1.83009 24.6213 0.310714 22.2043 0.0425892 19.6641C-0.242293 17.0065 0.930751 14.3824 2.70149 12.4522C4.55602 10.4324 7.15906 9.01681 9.90734 8.76504C10.0135 8.75385 10.8793 6.71166 10.9854 6.53821C11.9741 4.90447 13.298 3.46095 14.89 2.39789C17.2193 0.836882 20.0346 0.0591734 22.822 0.00322314C25.6317 -0.0527271 28.4862 0.618676 30.8937 2.10136C32.1617 2.87907 33.2901 3.88058 34.2229 5.04434C34.6921 5.63182 35.1111 6.25846 35.4742 6.91868C35.6529 7.24878 35.8037 7.59008 35.9769 7.92019C36.1109 8.17196 36.245 8.55242 36.4684 8.74265C36.4796 8.75385 36.4908 8.76504 36.502 8.76504C42.7135 9.15109 46.1712 15.5518 46.1098 21.2308C46.0651 25.2368 43.9815 29.1645 40.6858 31.4529C37.0941 33.9427 32.5248 34.0322 28.3856 33.1594C28.3856 33.1594 22.7885 34.8435 20.8278 33.4391C20.8278 33.4391 27.2684 30.9157 28.9442 28.6721C28.9665 28.6386 30.7094 29.1813 30.8378 29.2093C32.2846 29.5114 33.7928 29.6065 35.2507 29.3715C39.105 28.7561 41.9538 25.5333 42.451 21.6951C42.7079 19.7033 42.0711 17.6276 40.9428 15.9882C39.2502 13.5208 36.5578 12.4578 33.6196 12.5081C31.6869 12.5417 29.7877 13.0676 28.1063 14.0188C27.6203 14.2929 27.1511 14.6006 26.7042 14.9419C26.7042 14.9419 26.9835 11.0142 32.022 9.33573C32.0165 9.33573 31.5137 8.54683 31.4802 8.50207C30.9775 7.81948 30.3854 7.20402 29.7318 6.6669C26.5367 4.05962 21.7774 3.93093 18.1131 5.58706C16.7278 6.2137 15.3201 7.10891 14.4096 8.34541C13.4768 9.60429 12.9852 11.1317 12.9852 12.6983C12.9852 12.5417 10.1699 12.9054 10.0023 12.9445C6.67309 13.6383 4.3661 15.8595 3.85778 19.2613C3.57848 21.1356 3.6511 23.2785 3.91922 25.1417C3.94157 25.3207 3.95274 25.6284 4.16501 25.7292Z"></path>
<path fill="#666666" d="M26.8775 18.892C27.6372 19.4124 28.3913 19.9327 29.151 20.4531C29.1621 20.4642 27.3579 22.4729 27.1847 22.6463C26.4809 23.3625 25.738 24.0451 24.9559 24.6829C23.4142 25.9474 21.7273 27.044 19.9174 27.8777C15.8732 29.7352 11.181 29.9254 6.9357 28.6777C5.23199 28.1742 3.58972 27.4468 2.07593 26.5181C1.84691 26.3782 1.61789 26.2383 1.40004 26.0928C1.28832 26.0201 1.18219 25.9418 1.07605 25.8579C1.03695 25.8243 0.880544 25.662 0.835857 25.7515C0.830271 25.7627 0.835857 25.7851 0.835857 25.8019C0.847029 25.8634 0.88613 25.925 0.914059 25.9809C1.03136 26.188 1.17101 26.3838 1.31066 26.574C1.495 26.8314 1.69051 27.0776 1.88043 27.3293C2.07035 27.5699 2.26027 27.8105 2.45578 28.0511C2.58984 28.219 2.72949 28.3812 2.86914 28.5435C2.89707 28.577 2.925 28.6106 2.95851 28.6442C4.48906 30.1492 6.41062 31.2011 8.46066 31.8166C14.3371 33.579 20.314 32.0795 25.2464 28.6442C25.6598 28.3588 26.0619 28.0567 26.453 27.7546C27.2517 27.1335 28.0226 26.4789 28.7599 25.7851C29.5811 25.013 30.3631 24.1961 31.0949 23.3401C31.1619 23.2618 31.9048 22.3554 31.9048 22.3554C32.6142 22.8421 33.3181 23.3289 34.0275 23.8101C34.2509 20.923 34.4688 18.0304 34.6922 15.1434C32.0947 16.3911 29.4861 17.6444 26.8775 18.892Z"></path>
<path fill="#475CC7" d="M68.1947 16.7454C68.0197 17.6593 67.7323 18.498 67.3448 19.2366C66.9574 19.9752 66.4699 20.6137 65.8825 21.152C65.2951 21.6778 64.6202 22.0909 63.8453 22.3913C63.0704 22.6793 62.2205 22.8295 61.2831 22.8295C60.2333 22.8295 59.2584 22.6542 58.346 22.3037C57.4337 21.9532 56.6463 21.4149 55.9964 20.7138C55.3339 20.0003 54.8215 19.124 54.4341 18.0849C54.0591 17.0459 53.8716 15.8316 53.8716 14.442C53.8716 13.09 54.0466 11.8632 54.3966 10.774C54.7465 9.68491 55.234 8.77105 55.8839 8.01993C56.5213 7.26881 57.3087 6.69296 58.2336 6.29236C59.1584 5.89176 60.1958 5.69147 61.3331 5.69147C62.333 5.69147 63.2329 5.84169 64.0453 6.14214C64.8576 6.44258 65.5576 6.8557 66.145 7.38148C66.7324 7.90727 67.1948 8.52068 67.5448 9.23424C67.8947 9.94781 68.1072 10.6989 68.1822 11.5126H64.8452C64.6202 10.5988 64.1827 9.88521 63.5453 9.37194C62.8954 8.85868 62.183 8.60831 61.3706 8.60831C59.9708 8.60831 58.946 9.10905 58.2835 10.1231C57.6211 11.1246 57.2962 12.5141 57.2962 14.2667C57.2962 16.0569 57.6211 17.4465 58.271 18.4354C58.921 19.4244 59.8958 19.9252 61.2081 19.9252C62.208 19.9252 63.0079 19.6498 63.6078 19.1115C64.2077 18.5732 64.6202 17.797 64.8452 16.783H68.1947V16.7454Z"></path>
<path fill="#475CC7" d="M71.7943 22.3162V5.9043H74.9564V22.3162H71.7943Z"></path>
<path fill="#475CC7" d="M84.9799 22.6167C84.0051 22.6167 83.1427 22.4665 82.3803 22.1535C81.6179 21.8406 80.9805 21.4149 80.443 20.8641C79.9181 20.3133 79.5182 19.6498 79.2432 18.8736C78.9682 18.0975 78.8307 17.2462 78.8307 16.3198C78.8307 15.3809 78.9682 14.5171 79.2557 13.741C79.5432 12.9648 79.9431 12.3013 80.4805 11.7505C81.018 11.1997 81.6554 10.7741 82.4178 10.4736C83.1677 10.1732 84.03 10.0229 84.9799 10.0229C85.9173 10.0229 86.7672 10.1732 87.5046 10.4736C88.2545 10.7741 88.8794 11.1997 89.4168 11.738C89.9418 12.2763 90.3417 12.9398 90.6292 13.7159C90.9166 14.4921 91.0541 15.3684 91.0541 16.3198C91.0541 17.2712 90.9166 18.135 90.6292 18.9112C90.3417 19.6873 89.9418 20.3383 89.4168 20.8891C88.8919 21.44 88.2545 21.8656 87.4921 22.166C86.7422 22.4665 85.9048 22.6167 84.9799 22.6167ZM84.9799 19.9753C86.9047 19.9753 87.867 18.761 87.867 16.3198C87.867 13.9037 86.9047 12.6894 84.9799 12.6894C83.0552 12.6894 82.0928 13.9037 82.0928 16.3198C82.0928 18.7484 83.0552 19.9753 84.9799 19.9753Z"></path>
<path fill="#475CC7" d="M102.765 22.3163V20.5637C101.953 21.8906 100.703 22.5541 99.0281 22.5541C98.4281 22.5541 97.8782 22.454 97.3783 22.2412C96.8784 22.0283 96.4534 21.7279 96.091 21.3398C95.7285 20.9517 95.4535 20.4885 95.2536 19.9502C95.0536 19.4119 94.9536 18.811 94.9536 18.1476V10.2608L98.1157 10.411V17.8095C98.1157 19.2993 98.7906 20.0504 100.153 20.0504C100.965 20.0504 101.59 19.8 102.003 19.2867C102.415 18.7735 102.628 18.1225 102.628 17.3338V10.4235H105.79V22.3163H102.765Z"></path>
<path fill="#475CC7" d="M118.113 22.3162V20.839C118.113 20.839 116.351 22.6167 114.863 22.6167C114.101 22.6167 113.401 22.4665 112.776 22.1785C112.139 21.8906 111.601 21.465 111.151 20.9141C110.701 20.3633 110.339 19.6873 110.077 18.8986C109.814 18.11 109.689 17.2086 109.689 16.1946C109.689 15.2808 109.802 14.4545 110.014 13.7034C110.227 12.9523 110.551 12.3013 110.976 11.7505C111.401 11.1997 111.914 10.774 112.514 10.4736C113.126 10.1732 113.814 10.0229 114.588 10.0229C116.063 10.0229 117.238 10.6489 118.113 11.9007V5.91681H121.275V22.3287H118.113V22.3162ZM115.588 20.0378C116.351 20.0378 116.988 19.7249 117.501 19.0864C118.013 18.448 118.263 17.6217 118.263 16.6077C118.263 14.0164 117.376 12.7144 115.613 12.7144C113.801 12.7144 112.889 13.9413 112.889 16.4074C112.889 17.484 113.139 18.3478 113.639 19.0238C114.138 19.6998 114.788 20.0378 115.588 20.0378Z"></path>
<path fill="#475CC7" d="M125.474 8.92129V5.9043H128.637V8.92129H125.474ZM125.474 22.3162V10.4235H128.637V22.3162H125.474Z"></path>
<path fill="#475CC7" d="M134.048 22.3162V12.5266H132.398V10.2733H134.148C134.148 10.2733 135.835 5.95435 139.322 5.95435V8.50815C138.823 8.50815 138.498 8.53319 138.248 8.59578C137.998 8.65838 137.798 8.75852 137.648 8.89623C137.498 9.04645 137.398 9.23423 137.348 9.47209C137.285 9.70994 137.26 9.99787 137.26 10.2733H139.322V12.5266H137.223V22.3162H134.048Z"></path>
<path fill="#475CC7" d="M150.433 20.6763C150.209 21.2146 149.796 21.6277 149.196 21.9282C148.596 22.2286 147.921 22.3788 147.171 22.3788C146.534 22.3788 145.947 22.2787 145.409 22.0784C144.872 21.8781 144.409 21.5777 144.009 21.2021C143.622 20.8265 143.309 20.3633 143.084 19.8376C142.86 19.3118 142.76 18.7109 142.76 18.0474V10.2733H145.922V17.5717C145.922 19.0614 146.609 19.8125 147.971 19.8125C148.709 19.8125 149.309 19.5997 149.759 19.1741C150.209 18.7484 150.433 18.2227 150.433 17.5717V10.2733H153.596V22.5791C153.596 23.4179 153.458 24.1815 153.171 24.845C152.883 25.5085 152.496 26.0718 152.008 26.5225C151.508 26.9732 150.933 27.3237 150.259 27.5741C149.584 27.8119 148.871 27.9371 148.109 27.9371C146.347 27.9371 145.022 27.4865 144.147 26.5976C143.272 25.7088 142.835 24.482 142.835 22.9171H145.734C145.734 23.6307 145.947 24.1941 146.359 24.5946C146.771 24.9952 147.396 25.2081 148.234 25.2081C148.534 25.2081 148.809 25.1455 149.071 25.0203C149.334 24.8951 149.571 24.7324 149.771 24.507C149.971 24.2817 150.134 24.0188 150.259 23.6933C150.383 23.3678 150.446 23.0048 150.446 22.6167V20.6763H150.433Z"></path>
<path fill="#666666" d="M157.877 22.2361V6.20886H161.217V19.2749H169.26V22.2484H157.877V22.2361Z"></path>
<path fill="#666666" d="M175.52 17.1518C175.569 18.0875 175.827 18.8209 176.306 19.3772C176.785 19.9209 177.411 20.1991 178.184 20.1991C178.7 20.1991 179.154 20.0726 179.56 19.8324C179.953 19.5922 180.21 19.2508 180.321 18.8209H183.575C183.207 20.0853 182.556 21.0589 181.635 21.7417C180.714 22.4245 179.609 22.7659 178.332 22.7659C174.353 22.7659 172.364 20.5405 172.364 16.077C172.364 15.1287 172.499 14.2689 172.757 13.5102C173.015 12.7389 173.395 12.0814 173.887 11.5377C174.378 10.994 174.979 10.5641 175.692 10.2733C176.404 9.98248 177.214 9.83075 178.135 9.83075C179.977 9.83075 181.377 10.4377 182.322 11.6515C183.268 12.8654 183.747 14.6988 183.747 17.1518H175.52ZM180.456 15.0276C180.444 14.585 180.37 14.193 180.235 13.8643C180.1 13.5229 179.916 13.2447 179.695 13.0298C179.474 12.8148 179.216 12.6504 178.933 12.5366C178.651 12.4355 178.356 12.3723 178.049 12.3723C177.423 12.3723 176.895 12.5999 176.441 13.0677C175.986 13.5355 175.728 14.1804 175.667 15.0149H180.456V15.0276Z"></path>
<path fill="#666666" d="M196.066 20.6055C195.838 21.1474 195.42 21.5633 194.825 21.8657C194.23 22.1682 193.534 22.3194 192.749 22.3194C191.749 22.3194 190.913 22.143 190.23 21.7901C189.546 21.4373 189.002 20.971 188.584 20.4039C188.166 19.8368 187.862 19.1689 187.672 18.4128C187.483 17.6566 187.394 16.8879 187.394 16.1066C187.394 15.174 187.533 14.3171 187.812 13.5484C188.09 12.767 188.47 12.1117 188.938 11.5572C189.42 11.0153 189.977 10.5869 190.61 10.2844C191.255 9.98197 191.939 9.83075 192.673 9.83075C194.18 9.83075 195.319 10.4356 196.066 11.6454V10.1458H199.269V22.3446C199.269 23.2646 199.117 24.0711 198.801 24.7642C198.484 25.4573 198.066 26.037 197.522 26.5033C196.978 26.9696 196.345 27.3224 195.598 27.5745C194.863 27.8139 194.078 27.9399 193.23 27.9399C192.395 27.9399 191.61 27.8265 190.888 27.5871C190.167 27.3476 189.546 27.02 189.027 26.5789C188.508 26.1504 188.103 25.6212 187.812 24.991C187.521 24.3735 187.369 23.6678 187.369 22.8865H190.344C190.344 23.6174 190.584 24.1971 191.065 24.5878C191.546 24.991 192.192 25.1927 193.002 25.1927C193.851 25.1927 194.572 24.9532 195.167 24.487C195.762 24.0207 196.053 23.3906 196.053 22.5841V20.6055H196.066ZM193.357 19.8746C194.142 19.8746 194.8 19.5722 195.306 18.9799C195.825 18.3876 196.079 17.5684 196.079 16.5477C196.079 13.9642 195.167 12.6788 193.344 12.6788C191.521 12.6788 190.61 13.9012 190.61 16.3586C190.61 17.4424 190.863 18.2993 191.382 18.9295C191.926 19.547 192.572 19.8746 193.357 19.8746Z"></path>
<path fill="#666666" d="M210.788 22.446C210.688 22.1262 210.625 21.7679 210.587 21.3457C210.21 21.7807 209.707 22.1262 209.091 22.3821C208.462 22.6379 207.745 22.7659 206.928 22.7659C205.532 22.7659 204.513 22.4588 203.859 21.8319C203.205 21.205 202.891 20.3861 202.891 19.3882C202.891 18.5053 203.029 17.8017 203.306 17.2771C203.583 16.7525 203.972 16.3431 204.463 16.036C204.953 15.7418 205.544 15.5115 206.223 15.3707C206.903 15.23 207.645 15.102 208.449 14.9869C209.254 14.8717 209.795 14.7182 210.072 14.5263C210.348 14.3344 210.487 14.0273 210.487 13.5923C210.487 13.1957 210.298 12.8758 209.933 12.6583C209.569 12.428 209.066 12.3257 208.449 12.3257C207.707 12.3257 207.179 12.492 206.865 12.8246C206.55 13.1573 206.349 13.6051 206.261 14.1553H203.281C203.293 13.5155 203.394 12.9398 203.583 12.4024C203.771 11.8651 204.073 11.4045 204.488 11.0206C204.903 10.6368 205.456 10.3425 206.123 10.1378C206.789 9.9331 207.619 9.83075 208.588 9.83075C209.543 9.83075 210.348 9.9331 211.015 10.1506C211.681 10.3681 212.21 10.6752 212.612 11.0846C213.014 11.494 213.304 12.0058 213.48 12.6071C213.656 13.2213 213.756 13.8994 213.756 14.667V22.4588H210.788V22.446ZM210.524 16.4454C210.361 16.6118 210.122 16.7397 209.82 16.8421C209.506 16.9444 209.066 17.0468 208.475 17.1619C207.556 17.3411 206.94 17.5714 206.588 17.8528C206.249 18.1343 206.073 18.5437 206.073 19.0683C206.073 19.9767 206.588 20.4373 207.607 20.4373C208.009 20.4373 208.387 20.3605 208.739 20.2198C209.091 20.0791 209.393 19.8871 209.644 19.644C209.896 19.401 210.097 19.1195 210.26 18.7996C210.411 18.4798 210.487 18.1343 210.487 17.7633L210.524 16.4454Z"></path>
<path fill="#666666" d="M217.896 22.2484V5.69147H221V22.2484H217.896Z"></path>
</svg>
