<svg xmlns="http://www.w3.org/2000/svg" fill="none" viewBox="0 0 208 32"><g clip-path="url(#a)"><path fill="#1D1D1B" d="M128.964 31.952c-2.603 0-5.35-.868-6.988-2.65-.289-.29-.482-.627-.675-.916-1.012-1.543.289-3.47 2.362-3.47h.433c1.012 0 1.88.53 2.362 1.3.482.772 1.253 1.254 2.554 1.254 1.349 0 2.506-.82 2.506-2.024 0-.386-.096-.723-.337-1.06-.771-.916-3.759-1.59-4.916-1.976-3.132-.964-5.205-2.796-5.205-5.832 0-3.71 3.759-6.265 7.807-6.265 2.41 0 4.579.964 5.976 2.458 1.398 1.494.097 3.76-2.12 3.76a2.92 2.92 0 01-2.217-1.013c-.386-.482-.964-.723-1.735-.723-1.157 0-2.12.723-2.12 1.735 0 1.06.963 1.35 1.927 1.687.675.24 1.35.385 2.024.578 3.615.964 6.506 2.313 6.506 6.072 0 4.049-3.518 7.085-8.144 7.085zM12.096 9.639v20.433c0 .675-.626 1.253-1.349 1.253h-2.94c-.77 0-1.35-.53-1.35-1.253V9.64c0-.675-.626-1.253-1.349-1.253H1.35C.58 8.386 0 7.856 0 7.133V4.819c0-.674.627-1.253 1.35-1.253h15.903c.771 0 1.35.53 1.35 1.253v2.314c0 .674-.627 1.253-1.35 1.253h-3.807c-.723 0-1.35.578-1.35 1.253zM117.446 31.373h-.964c-1.012 0-1.88-.867-1.88-1.976v-.578c-1.686 1.928-4 3.181-6.602 3.181-6.217 0-11.422-4.867-11.422-10.843S101.687 10.265 108 10.265c6.313 0 11.325 4.578 11.325 10.94v8.193c0 1.06-.819 1.975-1.879 1.975zM108 14.747c-3.614 0-6.265 3.133-6.265 6.41 0 3.421 2.602 6.361 6.265 6.361 3.807 0 6.217-2.843 6.217-6.313 0-3.23-2.554-6.458-6.217-6.458zM96.048 30.12c0 .675-.53 1.205-1.157 1.205h-1.686c-4.241 0-7.374-2.988-7.374-7.47V4.867c0-.674.53-1.204 1.157-1.204h3.084c.627 0 1.157.53 1.157 1.204v4.53c0 .675.53 1.205 1.156 1.205h2.458c.627 0 1.157.53 1.157 1.205v2.024c0 .675-.53 1.205-1.157 1.205h-2.458c-.626 0-1.156.53-1.156 1.205v7.663c0 2.361 1.156 2.698 3.47 2.747.723 0 1.35.626 1.35 1.349v2.12zM148.964 30.12c0 .675-.53 1.205-1.157 1.205h-1.686c-4.241 0-7.374-2.988-7.374-7.47V4.867c0-.674.53-1.204 1.157-1.204h3.084c.627 0 1.157.53 1.157 1.204v4.53c0 .675.53 1.205 1.156 1.205h2.458c.627 0 1.157.53 1.157 1.205v2.024c0 .675-.53 1.205-1.157 1.205h-2.458c-.626 0-1.156.53-1.156 1.205v7.663c0 2.361 1.156 2.698 3.47 2.747.722 0 1.349.626 1.349 1.349v2.12zM169.88 31.952c-7.133 0-12.675-5.928-11.567-12.627.82-4.915 5.446-8.77 10.844-9.012 3.614-.193 6.795 1.06 9.06 3.277 1.59 1.543.434 4.145-1.88 4.145-.819 0-1.59-.386-2.072-.964-1.06-1.301-2.41-2.024-4.434-2.024-3.903 0-6.361 2.892-6.361 6.361 0 3.518 2.699 6.362 6.602 6.362 1.735 0 3.133-.771 4.193-1.928.482-.53 1.253-.867 2.024-.867 2.362 0 3.47 2.602 1.88 4.144-2.121 1.976-4.964 3.133-8.289 3.133zM67.71 23.084c-.337 0-.578.338-.481.627.915 2.265 3.229 3.855 5.783 3.855 1.88 0 3.518-.626 4.578-2.072.241-.337.579-.53 1.012-.53h2.892c.916 0 1.494.916 1.06 1.687-1.88 3.229-5.638 5.397-9.542 5.397-6.362 0-11.277-4.723-11.277-10.795s4.77-10.94 11.229-10.94c6.217 0 10.988 4.627 10.988 10.554 0 .53-.049 1.06-.097 1.59-.048.627-.915.675-.915.675H67.71v-.048zm.097-4h10.265c.338 0 .578-.289.482-.626-.77-2.313-2.795-3.663-5.494-3.663-2.747 0-4.77 1.398-5.735 3.663-.144.24.097.626.482.626zM22.94 3.18c1.783 0 3.132 1.254 3.132 2.892 0 1.542-1.349 2.747-3.132 2.747-1.639 0-2.988-1.253-2.988-2.747 0-1.687 1.35-2.891 2.988-2.891zm-2.65 25.398V13.35c0-1.494 1.204-2.747 2.698-2.747s2.699 1.205 2.699 2.747v15.23c0 1.493-1.205 2.746-2.699 2.746-1.494 0-2.699-1.253-2.699-2.747zM153.494 3.18c1.783 0 3.133 1.254 3.133 2.892 0 1.542-1.35 2.747-3.133 2.747-1.638 0-2.988-1.253-2.988-2.747 0-1.687 1.301-2.891 2.988-2.891zm-2.651 25.398V13.35c0-1.494 1.205-2.747 2.699-2.747 1.494 0 2.699 1.205 2.699 2.747v15.23c0 1.493-1.205 2.746-2.699 2.746-1.494 0-2.699-1.253-2.699-2.747zM54.747 18.747c0-2.843-3.084-5.012-6.169-3.518a3.956 3.956 0 00-2.168 3.518v10.602c0 1.109-.916 1.976-2.073 1.976h-.674c-1.301 0-2.362-1.012-2.362-2.265V18.747c0-2.843-3.084-5.012-6.168-3.518a3.956 3.956 0 00-2.17 3.518v10.169c0 1.3-1.108 2.361-2.505 2.361-1.446 0-2.602-1.108-2.602-2.506v-9.639c0-5.204 4.192-8.819 9.252-8.819 2.603 0 5.013 1.012 6.7 2.65 1.686-1.638 4.096-2.65 6.746-2.65 5.06 0 9.253 3.615 9.253 8.82v9.686c0 1.398-1.156 2.506-2.65 2.506-1.35 0-2.458-1.06-2.458-2.361V18.747h.048z"/><mask id="b" style="mask-type:luminance" width="25" height="25" x="183" y="0" maskUnits="userSpaceOnUse"><path fill="#fff" d="M195.229 0c-.193.048-.289.241-.241.386.048.144.145.24.289.24 5.88.241 11.566 5.64 10.699 12.145-.386 3.133-1.783 5.59-5.012 7.277-1.109.579-3.325 1.157-5.59.627A6.99 6.99 0 01192 18.892c-1.398-1.35-2.217-3.133-2.265-5.06-.048-1.157.241-2.266.819-3.278 1.109-1.831 2.988-2.891 5.012-2.94 2.747-.048 5.012 2.073 5.061 4.82.048 2.265-1.735 4.144-4 4.24a3.704 3.704 0 01-2.506-.963 3.311 3.311 0 01-1.061-2.458c0-.53.097-1.012.338-1.446a.374.374 0 00-.097-.385.37.37 0 00-.482.048c-.482.626-.674 1.397-.674 2.217a5.023 5.023 0 001.542 3.47 4.828 4.828 0 003.518 1.349c2.072-.048 3.903-1.06 5.108-2.554a6.56 6.56 0 001.398-4.29c-.048-2.36-1.06-4.578-2.747-6.216-3.856-3.711-9.205-2.073-9.205-2.073a12.244 12.244 0 00-4.337 2.17c-2.988 2.553-4 6.409-3.374 9.927.627 3.325 2.795 6.41 6.265 7.855 0 0 3.808 1.59 7.808.482a11.913 11.913 0 006.361-4.144c2.024-2.555 2.94-5.832 2.602-8.723-.482-4.627-3.132-7.856-6.409-9.542C198.94.482 197.06.048 195.229 0c.096 0 .048 0 0 0z"/></mask><g mask="url(#b)"><path fill="url(#c)" d="M170.988 12.482L195.47-12 220 12.482l-24.53 24.482-24.482-24.482z"/></g></g><defs><linearGradient id="c" x1="187.039" x2="203.955" y1="20.969" y2="4.054" gradientUnits="userSpaceOnUse"><stop stop-color="#E5007E"/><stop offset=".15" stop-color="#E5007E"/><stop offset=".5" stop-color="#995AC4"/><stop offset=".551" stop-color="#8A5DC4"/><stop offset=".648" stop-color="#6265C6"/><stop offset=".782" stop-color="#2373C8"/><stop offset=".85" stop-color="#007AC9"/><stop offset="1" stop-color="#007AC9"/></linearGradient><clipPath id="a"><path fill="#fff" d="M0 0h207.229v32H0z"/></clipPath></defs></svg>