<svg width="24" height="22" viewBox="0 0 24 22" fill="none" xmlns="http://www.w3.org/2000/svg">
    <path
        d="M0.799927 3.3998L3.99993 1.7998L9.59993 4.9998H19.1999V18.5998L18.3999 19.3998H3.19993C1.87444 19.3998 0.799927 18.3253 0.799927 16.9998V3.3998Z"
        fill="url(#paint0_radial_455_4623)" />
    <path fill-rule="evenodd" clip-rule="evenodd"
        d="M9.56882 2.14097C9.97903 2.4393 10.4732 2.6 10.9804 2.6L20.8 2.6C22.1255 2.6 23.2 3.67452 23.2 5V17C23.2 18.3255 22.1255 19.4 20.8 19.4H18.4V7.8C18.4 6.69543 17.5046 5.8 16.4 5.8H7.99999C7.4807 5.8 6.97542 5.63157 6.55999 5.32L4.63999 3.88C4.22456 3.56843 3.71928 3.4 3.19999 3.4L0.799988 3.4C0.799988 2.07452 1.8745 1 3.19999 1H7.21955C7.72677 1 8.22095 1.1607 8.63116 1.45903L9.56882 2.14097Z"
        fill="url(#paint1_linear_455_4623)" />
    <defs>
        <radialGradient id="paint0_radial_455_4623" cx="0" cy="0" r="1"
            gradientUnits="userSpaceOnUse"
            gradientTransform="translate(20.7411 -10.2911) scale(34.3341 36.4415)">
            <stop offset="0.5561" stop-color="#6D4AFF" />
            <stop offset="1" stop-color="#FF50C3" />
        </radialGradient>
        <linearGradient id="paint1_linear_455_4623" x1="0.504689" y1="-8.60252" x2="28.2759"
            y2="22.1451" gradientUnits="userSpaceOnUse">
            <stop stop-color="#7341FF" />
            <stop offset="0.3593" stop-color="#B487FF" />
            <stop offset="1" stop-color="#FFC8FF" />
        </linearGradient>
    </defs>
</svg>