<?xml version="1.0" encoding="utf-8"?>
<!-- Generator: Adobe Illustrator 19.1.0, SVG Export Plug-In . SVG Version: 6.00 Build 0)  -->
<svg version="1.1" id="Layer_1" xmlns="http://www.w3.org/2000/svg" xmlns:xlink="http://www.w3.org/1999/xlink" x="0px" y="0px"
	 width="492px" height="150px" viewBox="0 0 492 150" style="enable-background:new 0 0 492 150;" xml:space="preserve">
<style type="text/css">
	.st0{fill:#512DA8;}
</style>
<g>
	<g>
		<path class="st0" d="M402,54c-26.5,0-48,21.5-48,48c0,26.5,21.5,48,48,48c26.5,0,48-21.5,48-48C450,75.5,428.5,54,402,54z
			 M402,126c-13.3,0-24-10.7-24-24s10.7-24,24-24s24,10.7,24,24S415.3,126,402,126z"/>
		<circle class="st0" cx="474" cy="132" r="18"/>
		<path class="st0" d="M162,54c-4.9,0-9,2.9-10.9,7.1c-7.3-4.5-15.9-7.1-25.1-7.1c-26.5,0-48,21.5-48,48c0,26.5,21.5,48,48,48
			c9.2,0,17.8-2.6,25.1-7.1c1.9,4.2,6.1,7.1,10.9,7.1c6.6,0,12-5.4,12-12V66C174,59.4,168.6,54,162,54z M126,126
			c-13.3,0-24-10.7-24-24s10.7-24,24-24s24,10.7,24,24S139.3,126,126,126z"/>
		<path class="st0" d="M340,54c-9.2,0-17.8,2.6-25.1,7.1C313,56.9,308.9,54,304,54c-6.6,0-12,5.4-12,12v36v36c0,6.6,5.4,12,12,12
			c6.6,0,12-5.4,12-12v-36c0-13.3,10.7-24,24-24c6.6,0,12-5.4,12-12S346.6,54,340,54z"/>
		<path class="st0" d="M272.1,55.1c-6-2.8-13.1-0.3-16,5.7l-23.1,49l-23.1-49c-2.8-6-10-8.6-16-5.7c-6,2.8-8.6,10-5.7,16l34,72
			c2,4.2,6.2,6.9,10.9,6.9s8.9-2.7,10.9-6.9l34-72C280.7,65.1,278.1,58,272.1,55.1z"/>
		<path class="st0" d="M12,54C5.4,54,0,59.4,0,66s5.4,12,12,12c13.3,0,24,10.7,24,24v36c0,6.6,5.4,12,12,12c6.6,0,12-5.4,12-12v-36
			C60,75.5,38.5,54,12,54z"/>
	</g>
	<path class="st0" d="M84,0C57.5,0,36,21.5,36,48v5.6c10.3,5.1,18.7,13.5,24,23.7V48c0-13.3,10.7-24,24-24c6.6,0,12-5.4,12-12
		C96,5.4,90.6,0,84,0z"/>
</g>
</svg>
