<?xml version="1.0" encoding="utf-8"?>
<!-- Generator: Adobe Illustrator 23.1.1, SVG Export Plug-In . SVG Version: 6.00 Build 0)  -->
<svg version="1.1" id="Layer_1" xmlns="http://www.w3.org/2000/svg" xmlns:xlink="http://www.w3.org/1999/xlink" x="0px" y="0px"
	 viewBox="0 0 377.01 377.01" style="enable-background:new 0 0 377.01 377.01;" xml:space="preserve">
<style type="text/css">
	.st0{fill:#F47A20;}
	.st1{fill:#FFFFFF;}
</style>
<rect x="-0.43" y="-0.14" class="st0" width="376.88" height="377.07"/>
<g>
	<path class="st1" d="M261.25,294.06c-22.15,0.15-38.66-12.83-46.82-25.82c-2.05-3.35-2.44-7.69,1.22-10.43
		c3.03-2.38,7.4-2.08,10.11,1.61c7.46,10,19.96,19.97,35.38,19.85c24.88-0.21,34.43-17.74,34.32-33.84
		c-0.22-28.84-34.8-29.23-34.8-29.23c-29.52-1.46-46.8-17.41-46.99-41.58c-0.15-20.45,15.45-42.05,46.31-42.29
		c13.45-0.12,26.58,5.5,33.99,12.83c3.06,2.98,3.09,7.68,0.08,10.36c-2.97,2.71-7.02,2.77-11.38-0.57c-6.12-5-13.19-8.27-22.58-8.21
		c-25.14,0.22-31.4,18.69-31.31,27.77c0.21,25.17,31.43,27.26,31.43,27.26c26.86,1.49,50.78,13.04,51.01,43.57
		C311.43,272.84,292.8,293.8,261.25,294.06z"/>
	<path class="st1" d="M85.8,96.64c-0.06-5.98-4.63-10.47-10.58-10.43c-5.98,0.06-10.47,4.63-10.44,10.61
		c0.06,5.95,4.64,10.43,10.59,10.41C81.36,107.17,85.85,102.59,85.8,96.64z"/>
	<path class="st1" d="M75.29,293.81c-4.25,0-7.7-3.12-7.7-6.97V139.31c0-3.85,3.45-6.97,7.7-6.97c4.25,0,7.7,3.12,7.7,6.97v147.53
		C82.99,290.69,79.55,293.81,75.29,293.81z"/>
	<path class="st1" d="M194.04,281.69c-1.08-4.08-5.27-6.51-9.34-5.43c-16.2,4.29-28.53,3.45-36.68-2.48
		c-5.19-3.78-11.58-11.91-12.49-29.11l-0.03-0.54c-0.18-3.26-0.17-49.02-0.1-96.52h50.42c4.22,0,7.64-3.42,7.64-7.64
		s-3.42-7.64-7.64-7.64h-50.4c0.03-14.7,0.06-29.15,0.09-42.13c0.01-4.22-3.4-7.64-7.62-7.65c-0.01,0-0.01,0-0.02,0
		c-4.21,0-7.63,3.41-7.64,7.62c-0.04,15.2-0.34,148.73,0.01,154.85l0.03,0.46c1.23,23.21,10.87,34.92,18.75,40.65
		c7.4,5.39,16.55,8.09,27.34,8.09c6.77,0,14.2-1.06,22.24-3.19C192.69,289.95,195.12,285.77,194.04,281.69z"/>
</g>
</svg>
