<svg width="44" height="44" viewBox="0 0 44 44" fill="none" xmlns="http://www.w3.org/2000/svg">
<g filter="url(#filter0_d_2076_29882)">
<g clip-path="url(#clip0_2076_29882)">
<rect x="4" y="2" width="36" height="36" rx="18" fill="white" fill-opacity="0.12" shape-rendering="crispEdges"/>
<g clip-path="url(#clip1_2076_29882)">
<path fill-rule="evenodd" clip-rule="evenodd" d="M19.5328 11.3474C19.5019 11.5056 19.5019 11.6957 19.5019 12.0759C19.5019 12.6914 19.5019 12.9992 19.4473 13.2073C19.2119 14.104 18.29 14.6362 17.3957 14.3917C17.1882 14.335 16.9218 14.1812 16.389 13.8736L16.389 13.8736C16.0602 13.6837 15.8957 13.5888 15.7435 13.5365C15.1017 13.3159 14.3901 13.5065 13.9446 14.0185C13.8389 14.1399 13.744 14.3043 13.5541 14.6332L13.1294 15.3688C12.9395 15.6977 12.8446 15.8621 12.7923 16.0143C12.5717 16.6562 12.7624 17.3677 13.2743 17.8133C13.3957 17.9189 13.5602 18.0138 13.889 18.2037L13.889 18.2037C14.4218 18.5113 14.6882 18.6651 14.8411 18.8165C15.5 19.4687 15.5 20.5332 14.8411 21.1854C14.6882 21.3368 14.4218 21.4906 13.8889 21.7982L13.8889 21.7982C13.56 21.9881 13.3955 22.0831 13.2741 22.1888C12.7622 22.6343 12.5715 23.3458 12.7921 23.9876C12.8444 24.1399 12.9394 24.3043 13.1292 24.6332L13.1292 24.6332L13.5539 25.3687C13.7438 25.6977 13.8387 25.8621 13.9444 25.9835C14.39 26.4955 15.1014 26.6861 15.7433 26.4655C15.8955 26.4132 16.06 26.3182 16.3891 26.1283C16.9218 25.8207 17.1881 25.667 17.3954 25.6102C18.2899 25.3655 19.2121 25.8979 19.4474 26.7949C19.5019 27.0029 19.5019 27.3102 19.5019 27.925C19.5019 28.3045 19.5019 28.4942 19.5327 28.652C19.6625 29.3184 20.1835 29.8394 20.8499 29.9692C21.0077 30 21.1975 30 21.5769 30H22.4269C22.8064 30 22.9961 30 23.154 29.9692C23.8203 29.8394 24.3413 29.3184 24.4712 28.652C24.5019 28.4942 24.5019 28.3045 24.5019 27.925C24.5019 27.3102 24.5019 27.0029 24.5565 26.7949C24.7918 25.8979 25.714 25.3655 26.6084 25.6102C26.8158 25.667 27.0821 25.8207 27.6147 26.1283C27.9438 26.3182 28.1083 26.4132 28.2606 26.4655C28.9024 26.6861 29.6139 26.4955 30.0594 25.9835C30.1651 25.8621 30.2601 25.6977 30.45 25.3687L30.8746 24.6332L30.8746 24.6332C31.0645 24.3043 31.1594 24.1399 31.2118 23.9876C31.4323 23.3458 31.2417 22.6343 30.7298 22.1888C30.6083 22.0831 30.4439 21.9881 30.1149 21.7982L30.1149 21.7982C29.582 21.4906 29.3156 21.3368 29.1627 21.1854C28.5039 20.5332 28.5039 19.4687 29.1627 18.8165C29.3156 18.6651 29.582 18.5113 30.1148 18.2037C30.4437 18.0138 30.6081 17.9189 30.7295 17.8133C31.2415 17.3677 31.4321 16.6562 31.2115 16.0143C31.1592 15.8621 31.0643 15.6977 30.8745 15.3688L30.8744 15.3688L30.4497 14.6332C30.2599 14.3043 30.1649 14.1399 30.0593 14.0185C29.6137 13.5065 28.9022 13.3159 28.2603 13.5365C28.1081 13.5888 27.9437 13.6837 27.6148 13.8736C27.082 14.1812 26.8156 14.335 26.6081 14.3917C25.7138 14.6362 24.792 14.104 24.5565 13.2073C24.5019 12.9992 24.5019 12.6914 24.5019 12.0759C24.5019 11.6957 24.5019 11.5056 24.4711 11.3474C24.3411 10.6815 23.8204 10.1608 23.1545 10.0309C22.9964 10 22.8063 10 22.4263 10H21.5776C21.1975 10 21.0075 10 20.8493 10.0309C20.1834 10.1608 19.6627 10.6815 19.5328 11.3474ZM22 24C24.2091 24 26 22.2091 26 20C26 17.7909 24.2091 16 22 16C19.7908 16 18 17.7909 18 20C18 22.2091 19.7908 24 22 24Z" fill="#C9C9C9"/>
<path fill-rule="evenodd" clip-rule="evenodd" d="M19.5328 11.3474C19.5019 11.5056 19.5019 11.6957 19.5019 12.0759C19.5019 12.6914 19.5019 12.9992 19.4473 13.2073C19.2119 14.104 18.29 14.6362 17.3957 14.3917C17.1882 14.335 16.9218 14.1812 16.389 13.8736L16.389 13.8736C16.0602 13.6837 15.8957 13.5888 15.7435 13.5365C15.1017 13.3159 14.3901 13.5065 13.9446 14.0185C13.8389 14.1399 13.744 14.3043 13.5541 14.6332L13.1294 15.3688C12.9395 15.6977 12.8446 15.8621 12.7923 16.0143C12.5717 16.6562 12.7624 17.3677 13.2743 17.8133C13.3957 17.9189 13.5602 18.0138 13.889 18.2037L13.889 18.2037C14.4218 18.5113 14.6882 18.6651 14.8411 18.8165C15.5 19.4687 15.5 20.5332 14.8411 21.1854C14.6882 21.3368 14.4218 21.4906 13.8889 21.7982L13.8889 21.7982C13.56 21.9881 13.3955 22.0831 13.2741 22.1888C12.7622 22.6343 12.5715 23.3458 12.7921 23.9876C12.8444 24.1399 12.9394 24.3043 13.1292 24.6332L13.1292 24.6332L13.5539 25.3687C13.7438 25.6977 13.8387 25.8621 13.9444 25.9835C14.39 26.4955 15.1014 26.6861 15.7433 26.4655C15.8955 26.4132 16.06 26.3182 16.3891 26.1283C16.9218 25.8207 17.1881 25.667 17.3954 25.6102C18.2899 25.3655 19.2121 25.8979 19.4474 26.7949C19.5019 27.0029 19.5019 27.3102 19.5019 27.925C19.5019 28.3045 19.5019 28.4942 19.5327 28.652C19.6625 29.3184 20.1835 29.8394 20.8499 29.9692C21.0077 30 21.1975 30 21.5769 30H22.4269C22.8064 30 22.9961 30 23.154 29.9692C23.8203 29.8394 24.3413 29.3184 24.4712 28.652C24.5019 28.4942 24.5019 28.3045 24.5019 27.925C24.5019 27.3102 24.5019 27.0029 24.5565 26.7949C24.7918 25.8979 25.714 25.3655 26.6084 25.6102C26.8158 25.667 27.0821 25.8207 27.6147 26.1283C27.9438 26.3182 28.1083 26.4132 28.2606 26.4655C28.9024 26.6861 29.6139 26.4955 30.0594 25.9835C30.1651 25.8621 30.2601 25.6977 30.45 25.3687L30.8746 24.6332L30.8746 24.6332C31.0645 24.3043 31.1594 24.1399 31.2118 23.9876C31.4323 23.3458 31.2417 22.6343 30.7298 22.1888C30.6083 22.0831 30.4439 21.9881 30.1149 21.7982L30.1149 21.7982C29.582 21.4906 29.3156 21.3368 29.1627 21.1854C28.5039 20.5332 28.5039 19.4687 29.1627 18.8165C29.3156 18.6651 29.582 18.5113 30.1148 18.2037C30.4437 18.0138 30.6081 17.9189 30.7295 17.8133C31.2415 17.3677 31.4321 16.6562 31.2115 16.0143C31.1592 15.8621 31.0643 15.6977 30.8745 15.3688L30.8744 15.3688L30.4497 14.6332C30.2599 14.3043 30.1649 14.1399 30.0593 14.0185C29.6137 13.5065 28.9022 13.3159 28.2603 13.5365C28.1081 13.5888 27.9437 13.6837 27.6148 13.8736C27.082 14.1812 26.8156 14.335 26.6081 14.3917C25.7138 14.6362 24.792 14.104 24.5565 13.2073C24.5019 12.9992 24.5019 12.6914 24.5019 12.0759C24.5019 11.6957 24.5019 11.5056 24.4711 11.3474C24.3411 10.6815 23.8204 10.1608 23.1545 10.0309C22.9964 10 22.8063 10 22.4263 10H21.5776C21.1975 10 21.0075 10 20.8493 10.0309C20.1834 10.1608 19.6627 10.6815 19.5328 11.3474ZM22 24C24.2091 24 26 22.2091 26 20C26 17.7909 24.2091 16 22 16C19.7908 16 18 17.7909 18 20C18 22.2091 19.7908 24 22 24Z" fill="url(#paint0_linear_2076_29882)"/>
</g>
<g opacity="0.3" filter="url(#filter1_f_2076_29882)">
<circle cx="22.5" cy="45.5" r="8.5" fill="white"/>
</g>
</g>
<rect x="4.25" y="2.25" width="35.5" height="35.5" rx="17.75" stroke="url(#paint1_linear_2076_29882)" stroke-opacity="0.32" stroke-width="0.5" shape-rendering="crispEdges"/>
</g>
<defs>
<filter id="filter0_d_2076_29882" x="0" y="0" width="44" height="44" filterUnits="userSpaceOnUse" color-interpolation-filters="sRGB">
<feFlood flood-opacity="0" result="BackgroundImageFix"/>
<feColorMatrix in="SourceAlpha" type="matrix" values="0 0 0 0 0 0 0 0 0 0 0 0 0 0 0 0 0 0 127 0" result="hardAlpha"/>
<feOffset dy="2"/>
<feGaussianBlur stdDeviation="2"/>
<feComposite in2="hardAlpha" operator="out"/>
<feColorMatrix type="matrix" values="0 0 0 0 0 0 0 0 0 0 0 0 0 0 0 0 0 0 0.1 0"/>
<feBlend mode="normal" in2="BackgroundImageFix" result="effect1_dropShadow_2076_29882"/>
<feBlend mode="normal" in="SourceGraphic" in2="effect1_dropShadow_2076_29882" result="shape"/>
</filter>
<filter id="filter1_f_2076_29882" x="0" y="23" width="45" height="45" filterUnits="userSpaceOnUse" color-interpolation-filters="sRGB">
<feFlood flood-opacity="0" result="BackgroundImageFix"/>
<feBlend mode="normal" in="SourceGraphic" in2="BackgroundImageFix" result="shape"/>
<feGaussianBlur stdDeviation="7" result="effect1_foregroundBlur_2076_29882"/>
</filter>
<linearGradient id="paint0_linear_2076_29882" x1="22.0019" y1="10" x2="22.0019" y2="30" gradientUnits="userSpaceOnUse">
<stop stop-color="white"/>
<stop offset="1" stop-color="white" stop-opacity="0"/>
</linearGradient>
<linearGradient id="paint1_linear_2076_29882" x1="22" y1="2" x2="22" y2="38" gradientUnits="userSpaceOnUse">
<stop stop-color="white"/>
<stop offset="1" stop-color="white" stop-opacity="0"/>
</linearGradient>
<clipPath id="clip0_2076_29882">
<rect x="4" y="2" width="36" height="36" rx="18" fill="white"/>
</clipPath>
<clipPath id="clip1_2076_29882">
<rect width="20" height="20" fill="white" transform="translate(12 10)"/>
</clipPath>
</defs>
</svg>
