<?xml version="1.0" encoding="utf-8"?>
<!-- Generator: Adobe Illustrator 19.1.0, SVG Export Plug-In . SVG Version: 6.00 Build 0)  -->
<svg version="1.1" id="Warstwa_1" xmlns:sketch="http://www.bohemiancoding.com/sketch/ns"
	 xmlns="http://www.w3.org/2000/svg" xmlns:xlink="http://www.w3.org/1999/xlink" x="0px" y="0px"
	 viewBox="178 49.2800293 1197 497" style="enable-background:new 178 49.2800293 1197 497;" xml:space="preserve">
<style type="text/css">
	.st0{fill:#28E171;}
</style>
<title>logo</title>
<desc>Created with Sketch.</desc>
<g>
	<g>
		<path d="M817.9102783,373.0951538h-24.6175537l-78.468689-90.7772827v90.7772827h-31.8710327V223.6312256h23.958252
			l79.1278076,93.1951599v-93.1951599h31.8712158V373.0951538z"/>
		<path d="M953.5237427,320.5628967c0,32.0909424-23.7387085,55.8293152-56.0490723,55.8293152
			c-32.5303955,0-56.4884644-23.7383728-56.4884644-55.8293152c0-31.8709106,23.9580688-54.9498291,56.4884644-54.9498291
			C929.7850342,265.6130676,953.5237427,288.6919861,953.5237427,320.5628967z M923.4108887,320.5628967
			c0-15.6055603-10.1105957-27.6946411-25.9362183-27.6946411c-16.0452881,0-26.3759766,12.0890808-26.3759766,27.6946411
			c0,15.825592,10.3306885,28.5741577,26.3759766,28.5741577
			C913.300293,349.1370544,923.4108887,336.3884888,923.4108887,320.5628967z"/>
		<path d="M1011.5512695,347.8180847h51.4333496v25.2770691h-96.4922485v-14.2869263l53.1914062-65.7202454h-51.8728027v-25.2770691
			h95.173645v16.2653503L1011.5512695,347.8180847z"/>
		<path d="M1196.1828613,320.3431702c0,30.9916992-23.2989502,54.9501343-52.3126221,54.9501343
			c-11.8692627,0-21.7602539-3.0773621-29.8927002-8.3525696v6.1544189h-30.5523682V217.037384h30.5523682v56.9279175
			c8.1324463-5.275177,18.0234375-8.3522339,29.8927002-8.3522339
			C1172.8839111,265.6130676,1196.1828613,289.7908936,1196.1828613,320.3431702z M1166.0699463,320.3431702
			c0-15.3858337-11.4295654-28.7938538-27.255127-28.7938538c-9.0117188,0-18.0234375,3.0773621-24.8372803,12.0890503v33.629303
			c6.8138428,9.231781,15.8255615,12.3088074,24.8372803,12.3088074
			C1154.6403809,349.5764771,1166.0699463,335.9490356,1166.0699463,320.3431702z"/>
		<path d="M1319.7088623,331.5530396h-76.710083c3.0770264,10.550415,11.2095947,18.6829224,26.3759766,18.6829224
			c8.5720215,0,14.5065918-2.6376038,17.8037109-7.9128113h31.8709717
			c-5.7147217,20.2215881-25.4968262,33.1898804-50.3341064,33.1898804c-33.8493652,0-56.4888916-23.5186768-56.4888916-54.9501343
			c0-31.6511841,22.4197998-54.9498291,56.0490723-54.9498291c29.6730957,0,52.0927734,21.3205261,52.0927734,52.7519836
			C1320.3682861,322.7610474,1320.3682861,327.1570435,1319.7088623,331.5530396z M1242.55896,310.2325439h47.4768066
			c-1.7584229-12.3088074-9.8908691-19.562439-22.6394043-19.562439
			C1253.3291016,290.670105,1245.4163818,299.0226746,1242.55896,310.2325439z"/>
	</g>
	<g>
		<path class="st0" d="M592.8015137,188.276001L407.975708,397.0052185c-0.90979,1.0274353-2.4971924,1.0759277-3.4679565,0.105896
			l-84.7514038-84.685791c-0.7785339-0.7779236-0.9229431-1.987793-0.3494263-2.9270935l22.9760132-37.6296692
			c0.8039856-1.3167114,2.6282959-1.533844,3.7188721-0.4425964l50.816925,50.8487549
			c0.7297668,0.7302246,1.9363403,0.6477661,2.5600281-0.1748962l142.2714844-187.6710052
			c0.7957764-1.0496826,2.300354-1.250412,3.3486938-0.4529419c18.7504883,14.26297,34.9874878,31.6652222,47.9182129,51.4225616
			C593.6035767,186.2944794,593.5114136,187.4742432,592.8015137,188.276001z"/>
		<path d="M607.8392944,298.2160645c0,103.5491638-83.9429932,187.4928589-187.4884949,187.4939575
			c-103.4750977,0.0010986-187.5099792-84.0448303-187.4959564-187.519928
			c0.0140381-103.5379181,83.952713-187.4645996,187.4939117-187.4645996c30.9671936,0,60.1816711,7.5089417,85.9243164,20.8076859
			c1.3136597,0.6786499,1.6969299,2.379715,0.8037415,3.5580444L487.435791,161.002243
			c-0.9674072,1.2762604-2.6917725,1.701828-4.1450195,1.0288849
			c-19.0679321-8.8295746-40.3044128-13.7725067-62.6899719-13.8093414
			c-82.8471375-0.1363068-150.2475586,67.1490021-150.2464905,149.9962311
			c0.0010681,82.6032104,66.7700195,149.6079712,149.2835388,149.9908142
			c83.1247253,0.3857117,150.4378967-66.3820496,150.7012024-149.5072327
			c0.0397949-12.566803-1.4665527-24.7779846-4.3404541-36.4490967c-0.3189697-1.2953796,0.027771-2.6643982,0.9121704-3.6631775
			l24.6812134-27.8728485c1.1831055-1.3361359,3.369812-0.9485016,4.0056763,0.7190704
			C603.5081787,252.1809692,607.8392944,274.6897278,607.8392944,298.2160645z"/>
	</g>
</g>
</svg>
