<svg width="24" height="22" viewBox="0 0 24 22" fill="none" xmlns="http://www.w3.org/2000/svg">
    <mask id="mask0_455_4641" style="mask-type:alpha" maskUnits="userSpaceOnUse" x="0" y="1"
        width="24" height="20">
        <path fill-rule="evenodd" clip-rule="evenodd"
            d="M0.80005 18.3537C0.80005 19.659 1.85824 20.7172 3.16358 20.7172L20.8365 20.6808C22.1418 20.6808 23.2 19.6226 23.2 18.3172V10.7539C23.2 5.53256 18.9672 1.2998 13.7459 1.2998L3.16358 1.33627C1.85824 1.33627 0.800049 2.39446 0.800049 3.6998V11.11L5.4721 11.11C7.15573 11.11 8.52092 12.5686 8.52092 14.3674C8.52092 16.1663 7.15572 17.6249 5.4721 17.6249H0.800049L0.80005 18.3537ZM5.23721 12.6447C6.19446 12.6447 6.97046 13.4207 6.97046 14.378C6.97046 15.3352 6.19446 16.1112 5.23721 16.1112C4.27996 16.1112 3.50395 15.3352 3.50395 14.378C3.50395 13.4207 4.27996 12.6447 5.23721 12.6447Z"
            fill="white" />
    </mask>
    <g mask="url(#mask0_455_4641)">
        <path
            d="M3.16663 20.6807C1.86129 20.6807 0.803101 19.6225 0.8031 18.3171L0.8031 3.66324C0.8031 2.3579 1.86129 1.29971 3.16663 1.29971L13.7458 1.29971C18.9671 1.29971 23.1999 5.53247 23.1999 10.7538L23.1999 18.3171C23.1999 19.6225 22.1417 20.6807 20.8363 20.6807L3.16663 20.6807Z"
            fill="url(#paint0_linear_455_4641)" />
        <path
            d="M3.16352 20.6807C1.85818 20.6807 0.799989 19.6225 0.799988 18.3171L0.799988 4.45109L11.3822 4.45109C15.2983 4.45109 18.4728 7.62565 18.4728 11.5417L18.4728 20.6807L3.16352 20.6807Z"
            fill="#6D4AFF" />
        <path
            d="M3.16352 20.6807C1.85818 20.6807 0.799989 19.6225 0.799988 18.3171L0.799988 4.45109L11.3822 4.45109C15.2983 4.45109 18.4728 7.62566 18.4728 11.5417L18.4728 20.6807L3.16352 20.6807Z"
            fill="url(#paint1_linear_455_4641)" fill-opacity="0.9" />
        <path
            d="M4.15198 20.6808L7.75816 16.584L0.799988 17.4506V18.3172C0.799988 19.6226 1.85818 20.6808 3.16352 20.6808H4.15198Z"
            fill="#FFBB93" />
        <path fill-rule="evenodd" clip-rule="evenodd"
            d="M5.47198 17.6248C7.1556 17.6248 8.52079 16.1661 8.52079 14.3673C8.52079 12.5685 7.1556 11.1099 5.47198 11.1099L0.799927 11.1099V17.6248H5.47198ZM6.97034 14.3778C6.97034 13.4206 6.19434 12.6446 5.23709 12.6446C4.27984 12.6446 3.50383 13.4206 3.50383 14.3778C3.50383 15.3351 4.27984 16.1111 5.23709 16.1111C6.19434 16.1111 6.97034 15.3351 6.97034 14.3778Z"
            fill="white" />
    </g>
    <defs>
        <linearGradient id="paint0_linear_455_4641" x1="-2.01111" y1="3.55525" x2="25.6987"
            y2="14.3493" gradientUnits="userSpaceOnUse">
            <stop stop-color="#957AFD" />
            <stop offset="1" stop-color="#FFC6C6" />
        </linearGradient>
        <linearGradient id="paint1_linear_455_4641" x1="17.4756" y1="6.94273" x2="8.87323"
            y2="24.4221" gradientUnits="userSpaceOnUse">
            <stop offset="0.149916" stop-color="#FA528E" stop-opacity="0" />
            <stop offset="0.720842" stop-color="#FF8065" />
            <stop offset="1" stop-color="#FFA51F" />
        </linearGradient>
    </defs>
</svg>