<svg width="21" height="21" viewBox="0 0 21 21" fill="none" xmlns="http://www.w3.org/2000/svg">
    <path fill-rule="evenodd" clip-rule="evenodd"
        d="M9.68563 4.43276C11.5859 2.53246 14.6669 2.53246 16.5672 4.43276C18.4675 6.33307 18.4675 9.41407 16.5672 11.3144C15.2169 12.6647 13.2696 13.0564 11.572 12.4859L11.2027 12.3618L10.9271 12.6373L10.2757 13.2888H8.80931C8.64255 13.2888 8.48262 13.355 8.36471 13.4729C8.24679 13.5908 8.18054 13.7508 8.18054 13.9175L8.18054 15.0156H7.08246C6.73521 15.0156 6.4537 15.2971 6.4537 15.6444V16.7425L4.25754 16.7425V14.178L8.36266 10.0729L8.63819 9.79733L8.51407 9.42796C7.9436 7.73036 8.3353 5.78309 9.68563 4.43276ZM17.4564 3.54355C15.065 1.15215 11.1878 1.15215 8.79642 3.54355C7.19571 5.14426 6.66725 7.40999 7.20808 9.44902L3.36298 13.2941C3.13057 13.5265 3 13.8417 3 14.1704V17.3712C3 17.538 3.06624 17.6979 3.18416 17.8158C3.30208 17.9338 3.46201 18 3.62877 18H6.47193C7.15638 18 7.71123 17.4451 7.71123 16.7607V16.2732H8.80931C8.97607 16.2732 9.136 16.2069 9.25392 16.089C9.37184 15.9711 9.43808 15.8111 9.43808 15.6444L9.43808 14.5463H10.5362C10.7029 14.5463 10.8629 14.4801 10.9808 14.3621L11.551 13.7919C13.59 14.3328 15.8557 13.8043 17.4564 12.2036C19.8479 9.81218 19.8479 5.93495 17.4564 3.54355ZM14.387 7.87874C15.086 7.87874 15.6526 7.31213 15.6526 6.61317C15.6526 5.91421 15.086 5.34759 14.387 5.34759C13.6881 5.34759 13.1215 5.91421 13.1215 6.61317C13.1215 7.31213 13.6881 7.87874 14.387 7.87874Z"
        fill="black" />
</svg>