<?xml version="1.0" encoding="UTF-8"?><svg id="Layer_1" xmlns="http://www.w3.org/2000/svg" viewBox="0 0 232.08 66.11"><defs><style>.cls-1{fill:#007565;}.cls-2{fill:gray;}</style></defs><polygon class="cls-1" points="74.47 7.97 62.76 7.97 62.76 0 96.12 0 96.12 7.97 84.13 7.97 84.13 42.43 74.47 42.43 74.47 7.97"/><path class="cls-1" d="M92.18,25.72c0-9.01,5.36-17.34,16.79-17.34s16.65,7.58,16.65,17.34c0,8.95-5.36,17.27-16.72,17.27s-16.72-7.58-16.72-17.27m23.7,0c0-6.08-1.76-10.58-6.98-10.58s-6.91,4.51-6.91,10.58,1.69,10.45,6.98,10.45,6.91-4.37,6.91-10.45"/><path class="cls-1" d="M125.01,8.93h9.59l5.36,17.96c.78,2.46,1.34,4.71,1.69,6.42h.14c.49-1.98,.99-3.89,1.76-6.28l3.39-10.45-2.47-7.65h9.59l5.22,18.16c.71,2.39,1.27,4.51,1.62,6.21h.14c.49-1.91,.85-4.03,1.48-6.49l4.59-17.89h9.17l-9.95,33.53h-10.51l-4.73-15.91h-.14l-4.94,15.91h-10.3l-10.72-33.53Z"/><path class="cls-1" d="M175.91,25.72c0-9.49,5.64-17.34,16.44-17.34s14.74,7.51,14.74,15.57c0,.82-.07,2.18-.21,3.14h-21.3c.14,5.53,2.26,9.08,8.96,9.08,4.16,0,7.76-.96,10.23-2.05v6.97c-2.82,1.09-6.7,1.91-10.93,1.91-12.63,0-17.92-7.1-17.92-17.27m21.94-3.96v-.34c0-3.21-1.76-6.35-5.5-6.35s-6.07,2.39-6.49,6.69h11.99Z"/><path class="cls-1" d="M211.2,8.93h9.24v3.55c2.26-2.6,5.29-4.1,8.75-4.1,1.2,0,2.19,.2,2.89,.41v7.99c-.85-.2-2.05-.41-3.67-.41-3.46,0-6,1.09-7.83,2.32v23.76h-9.38V8.93Z"/><polygon class="cls-2" points="76.26 55.83 76.26 59.1 74.64 59.1 74.64 50.67 80.2 50.67 80.2 52.12 76.26 52.12 76.26 54.45 79.7 54.45 79.7 55.83 76.26 55.83"/><polygon class="cls-2" points="87.8 57.58 87.8 59.1 82.1 59.1 82.1 50.67 87.68 50.67 87.68 52.12 83.71 52.12 83.71 54.11 87.18 54.11 87.18 55.49 83.71 55.49 83.71 57.58 87.8 57.58"/><path class="cls-2" d="M92.52,59.1h-2.7v-8.43h2.7c.86,0,1.54,.07,2.05,.22,.51,.14,.91,.37,1.22,.69,.3,.31,.53,.74,.66,1.27,.14,.53,.21,1.21,.21,2.04,0,1.46-.33,2.53-.98,3.21-.65,.68-1.71,1.02-3.16,1.02m2.03-6.36c-.17-.22-.41-.38-.71-.48-.3-.09-.74-.14-1.32-.14h-1.09v5.46h1.09c.97,0,1.62-.2,1.96-.59,.34-.39,.51-1.1,.51-2.11,0-.54-.04-.98-.11-1.32-.07-.34-.18-.61-.34-.82"/><polygon class="cls-2" points="104.45 57.58 104.45 59.1 98.75 59.1 98.75 50.67 104.33 50.67 104.33 52.12 100.36 52.12 100.36 54.11 103.83 54.11 103.83 55.49 100.36 55.49 100.36 57.58 104.45 57.58"/><path class="cls-2" d="M108.08,56.22v2.88h-1.61v-8.43h2.97c1.25,0,2.14,.21,2.67,.63,.53,.42,.8,1.12,.8,2.11,0,.71-.16,1.28-.46,1.72-.31,.43-.78,.74-1.41,.91l2.13,3.07h-1.94l-1.9-2.88h-1.25Zm3.19-2.81c0-.47-.14-.8-.41-.99-.27-.2-.75-.3-1.42-.3h-1.36v2.76h1.36c.67,0,1.15-.11,1.42-.34,.27-.22,.41-.6,.41-1.13"/><path class="cls-2" d="M115.98,59.1h-1.69l3.23-8.43h1.67l3.17,8.43h-1.7l-.6-1.72h-3.48l-.59,1.72Zm2.33-6.89c-.1,.34-.21,.7-.33,1.08-.12,.38-.23,.73-.34,1.05l-.59,1.71h2.54l-.59-1.71c-.1-.29-.21-.62-.34-1-.13-.38-.24-.76-.35-1.12"/><polygon class="cls-2" points="129.29 57.58 129.29 59.1 124.02 59.1 124.02 50.67 125.63 50.67 125.63 57.58 129.29 57.58"/><path class="cls-2" d="M137.35,57.7c.37,0,.76-.04,1.18-.12,.42-.08,.79-.19,1.12-.32v1.44c-.49,.2-.93,.33-1.33,.41-.39,.08-.8,.11-1.22,.11-1.34,0-2.27-.33-2.8-1s-.79-1.79-.79-3.36,.31-2.59,.94-3.29c.63-.7,1.64-1.04,3.03-1.04,.41,0,.78,0,1.1,.03,.32,.02,.61,.05,.88,.09v1.41c-.34-.03-.67-.05-.99-.06-.32-.01-.65-.02-.99-.02-.91,0-1.52,.21-1.84,.63-.32,.42-.48,1.17-.48,2.24s.15,1.82,.44,2.23c.29,.41,.87,.61,1.74,.61"/><path class="cls-2" d="M143.16,56.22v2.88h-1.61v-8.43h2.97c1.25,0,2.14,.21,2.67,.63,.53,.42,.8,1.12,.8,2.11,0,.71-.16,1.28-.46,1.72-.31,.43-.78,.74-1.41,.91l2.13,3.07h-1.94l-1.9-2.88h-1.25Zm3.19-2.81c0-.47-.14-.8-.41-.99-.27-.2-.75-.3-1.42-.3h-1.36v2.76h1.36c.67,0,1.15-.11,1.42-.34,.27-.22,.41-.6,.41-1.13"/><polygon class="cls-2" points="155.82 57.58 155.82 59.1 150.11 59.1 150.11 50.67 155.69 50.67 155.69 52.12 151.73 52.12 151.73 54.11 155.2 54.11 155.2 55.49 151.73 55.49 151.73 57.58 155.82 57.58"/><path class="cls-2" d="M160.54,59.1h-2.7v-8.43h2.7c.86,0,1.54,.07,2.05,.22,.51,.14,.91,.37,1.22,.69,.3,.31,.53,.74,.66,1.27,.14,.53,.21,1.21,.21,2.04,0,1.46-.33,2.53-.98,3.21-.65,.68-1.71,1.02-3.16,1.02m2.03-6.36c-.17-.22-.41-.38-.71-.48-.3-.09-.74-.14-1.32-.14h-1.09v5.46h1.09c.97,0,1.62-.2,1.96-.59,.34-.39,.51-1.1,.51-2.11,0-.54-.04-.98-.11-1.32-.07-.34-.18-.61-.34-.82"/><rect class="cls-2" x="166.76" y="50.67" width="1.61" height="8.43"/><polygon class="cls-2" points="176.89 50.67 176.89 52.12 174.34 52.12 174.34 59.1 172.72 59.1 172.72 52.12 170.18 52.12 170.18 50.67 176.89 50.67"/><path class="cls-2" d="M186.71,55.64v-4.98h1.61v4.98c0,1.21-.29,2.11-.86,2.7-.57,.59-1.45,.88-2.64,.88s-2.09-.28-2.65-.85c-.56-.57-.83-1.48-.83-2.73v-4.98h1.61v4.98c0,.79,.14,1.33,.4,1.62,.27,.29,.76,.44,1.47,.44s1.21-.15,1.48-.44c.27-.3,.4-.83,.4-1.61"/><polygon class="cls-2" points="197.77 50.67 197.77 59.1 196.19 59.1 192.2 53.38 192.2 59.1 190.68 59.1 190.68 50.67 192.25 50.67 196.26 56.52 196.26 50.67 197.77 50.67"/><rect class="cls-2" x="200.19" y="50.67" width="1.61" height="8.43"/><path class="cls-2" d="M211.63,54.86c0,1.53-.3,2.64-.91,3.33-.61,.68-1.59,1.03-2.95,1.03-1.45,0-2.46-.32-3.03-.96-.57-.64-.85-1.77-.85-3.4,0-1.52,.3-2.63,.92-3.31,.61-.68,1.6-1.02,2.96-1.02,1.44,0,2.45,.32,3.01,.96,.57,.64,.85,1.76,.85,3.37m-5.77,2.13c.14,.26,.35,.44,.63,.55,.28,.11,.7,.16,1.28,.16,.89,0,1.48-.2,1.78-.6,.3-.4,.44-1.14,.44-2.24,0-.53-.03-.96-.07-1.3-.05-.34-.13-.62-.25-.83-.14-.27-.35-.46-.63-.57-.28-.11-.7-.17-1.26-.17-.9,0-1.49,.2-1.79,.61-.3,.4-.44,1.16-.44,2.27,0,.53,.03,.96,.08,1.3,.05,.34,.13,.61,.24,.82"/><polygon class="cls-2" points="220.82 50.67 220.82 59.1 219.25 59.1 215.25 53.38 215.25 59.1 213.73 59.1 213.73 50.67 215.3 50.67 219.31 56.52 219.31 50.67 220.82 50.67"/><path class="cls-1" d="M50.91,18.87l-13.96,.03V55.79c-1.4,.77-2.96,1.53-4.69,2.32V13.86h18.58v-4.55H27.68v4.55h.03V60.13l-2.25,1-2.44-1.09V4.79h27.82V.24H0V4.79H18.47v4.52H0v4.55H18.47v4.86H.08l-.02,22.75C.06,53.8,8.1,58.38,17.82,62.71l7.64,3.4,7.67-3.41c9.73-4.32,17.78-8.9,17.78-21.26V18.87ZM4.61,41.46V23.27h4.62v29.29c-3.15-2.77-4.62-6.09-4.62-11.09m9.17,14.2V23.27h4.69V58.01c-1.73-.79-3.3-1.57-4.69-2.34m27.73-2.91V23.44h4.86s0,18,0,18c0,5.14-1.55,8.49-4.86,11.31"/></svg>