<svg fill="none" xmlns="http://www.w3.org/2000/svg" viewBox="0 0 119 28">
  <path d="M36.74 21h-6.58l-1.3 3.04h-2.52l5.92-13.17h2.41l5.95 13.17h-2.56l-1.32-3.05zm-.8-1.93l-2.49-5.75-2.47 5.75h4.95zM47.64 13.88c.97 0 1.85.21 2.61.64a4.6 4.6 0 011.83 1.8c.43.78.65 1.68.65 2.7 0 1.01-.22 1.92-.65 2.7a4.6 4.6 0 01-1.83 1.81c-.76.43-1.64.64-2.61.64a4.06 4.06 0 01-3.22-1.35v4.87h-2.35v-13.7h2.24v1.32c.38-.48.86-.83 1.43-1.07a4.93 4.93 0 011.9-.36zm-.27 8.28c.87 0 1.58-.29 2.13-.87.56-.57.84-1.33.84-2.27s-.28-1.7-.84-2.28a2.81 2.81 0 00-2.13-.86c-.56 0-1.07.13-1.52.39-.45.25-.81.61-1.07 1.1-.27.47-.4 1.02-.4 1.65 0 .62.13 1.18.4 1.65.26.48.62.85 1.07 1.11.45.25.96.38 1.52.38zM60.53 13.88c.98 0 1.85.21 2.62.64a4.6 4.6 0 011.82 1.8c.44.78.66 1.68.66 2.7 0 1.01-.22 1.92-.66 2.7a4.6 4.6 0 01-1.82 1.81c-.77.43-1.64.64-2.62.64a4.06 4.06 0 01-3.21-1.35v4.87h-2.36v-13.7h2.24v1.32c.4-.48.87-.83 1.43-1.07a4.93 4.93 0 011.9-.36zm-.26 8.28c.86 0 1.57-.29 2.13-.87.56-.57.84-1.33.84-2.27s-.28-1.7-.84-2.28a2.81 2.81 0 00-2.13-.86c-.57 0-1.07.13-1.52.39-.46.25-.81.61-1.08 1.1-.26.47-.4 1.02-.4 1.65 0 .62.14 1.18.4 1.65.27.48.62.85 1.08 1.11.45.25.95.38 1.52.38zM72.38 24.17a5.7 5.7 0 01-2.75-.66 4.89 4.89 0 01-2.6-4.5 4.89 4.89 0 012.6-4.48 5.7 5.7 0 012.75-.65c1.03 0 1.95.22 2.76.66a4.75 4.75 0 011.9 1.82c.47.78.7 1.67.7 2.66 0 .99-.23 1.88-.7 2.67a4.76 4.76 0 01-1.9 1.82c-.81.44-1.73.66-2.76.66zm0-2.01c.86 0 1.58-.29 2.14-.87.57-.57.85-1.33.85-2.27s-.28-1.7-.85-2.28a2.87 2.87 0 00-2.14-.86c-.87 0-1.58.28-2.15.86a3.16 3.16 0 00-.83 2.28c0 .94.28 1.7.83 2.27.57.58 1.28.87 2.15.87zM89.83 10.08v13.96h-2.26v-1.3c-.39.48-.87.84-1.45 1.07a5.35 5.35 0 01-4.5-.28 4.63 4.63 0 01-1.8-1.8 5.48 5.48 0 01-.66-2.71c0-1.02.22-1.92.66-2.7a4.63 4.63 0 011.8-1.8 5.35 5.35 0 014.44-.3c.56.23 1.03.56 1.42 1.02v-5.16h2.35zm-5.3 12.08c.56 0 1.06-.13 1.52-.38.45-.26.8-.63 1.07-1.1.26-.48.4-1.04.4-1.66 0-.63-.14-1.18-.4-1.66a2.72 2.72 0 00-1.07-1.09c-.46-.26-.96-.4-1.53-.4-.56 0-1.07.14-1.52.4-.45.25-.81.61-1.07 1.1-.27.47-.4 1.02-.4 1.65 0 .62.13 1.18.4 1.65.26.48.62.85 1.07 1.11.45.25.96.38 1.52.38zM102.35 19.07l-.04.7h-7.88c.14.74.5 1.33 1.07 1.77.59.42 1.32.64 2.18.64 1.1 0 2.01-.37 2.73-1.1l1.26 1.46c-.45.53-1.02.94-1.71 1.22-.7.27-1.47.41-2.33.41-1.1 0-2.08-.22-2.92-.66a4.83 4.83 0 01-2.63-4.5c0-.97.21-1.85.65-2.63a4.78 4.78 0 011.87-1.84 5.4 5.4 0 012.67-.66c.98 0 1.85.22 2.61.66a4.44 4.44 0 011.8 1.82c.45.78.67 1.68.67 2.71zm-5.08-3.3c-.75 0-1.4.22-1.92.67a2.79 2.79 0 00-.94 1.77h5.7c-.1-.73-.4-1.32-.92-1.77a2.8 2.8 0 00-1.92-.68zM108.17 13.88c1.48 0 2.6.36 3.39 1.07.78.7 1.18 1.77 1.18 3.2v5.89h-2.22v-1.22c-.29.44-.7.77-1.24 1.01-.53.23-1.17.34-1.92.34s-1.41-.12-1.98-.37c-.56-.27-1-.63-1.31-1.08a2.8 2.8 0 01-.45-1.56c0-.9.33-1.62 1-2.16.67-.55 1.73-.83 3.17-.83h2.6v-.15c0-.7-.21-1.24-.64-1.62-.42-.37-1.04-.56-1.86-.56a5.5 5.5 0 00-1.68.26c-.54.18-1 .42-1.37.73l-.92-1.7a5.7 5.7 0 011.9-.93 8.46 8.46 0 012.35-.32zm-.32 8.58c.59 0 1.1-.13 1.56-.4.47-.27.8-.66.98-1.16v-1.17h-2.43c-1.35 0-2.03.45-2.03 1.34 0 .42.17.76.5 1.01.35.25.82.38 1.42.38zM115.76 10.08h2.35v13.96h-2.35V10.08zM28.77 5.63a4.4 4.4 0 01-1.2-.17c-.39-.11-.7-.26-.93-.44l.41-.9a3 3 0 001.72.54c.35 0 .6-.05.77-.15.16-.1.24-.24.24-.41a.37.37 0 00-.15-.3c-.1-.1-.22-.16-.37-.21-.15-.05-.35-.1-.61-.16-.4-.1-.73-.2-.98-.29-.25-.1-.47-.24-.66-.45-.17-.21-.26-.5-.26-.84 0-.3.08-.58.24-.82.17-.25.41-.45.74-.59.33-.14.74-.22 1.22-.22.33 0 .66.04.97.12.32.08.6.2.84.35l-.37.91a2.91 2.91 0 00-1.45-.4c-.34 0-.59.05-.75.16a.5.5 0 00-.24.43c0 .18.09.31.27.4.2.09.48.17.86.26.4.1.73.19.98.28.25.1.47.25.65.45.18.2.27.48.27.83 0 .3-.08.57-.25.82-.16.24-.41.44-.75.58-.33.15-.73.22-1.21.22zM34.32 5.34c-.12.09-.26.15-.43.2-.16.04-.34.06-.52.06-.48 0-.85-.12-1.11-.37-.26-.24-.39-.6-.39-1.07V2.5h-.62v-.9h.62V.63h1.16v.98h1v.9h-1v1.63c0 .17.05.3.13.4a.5.5 0 00.37.13c.19 0 .35-.05.48-.15l.3.82zM36.6 1.46c.61 0 1.1.15 1.42.45.34.3.5.74.5 1.34v2.29h-1.09v-.5c-.21.37-.62.56-1.22.56-.3 0-.58-.05-.8-.16a1.13 1.13 0 01-.7-1.06c0-.37.14-.67.42-.88.28-.21.72-.32 1.3-.32h.93c0-.25-.08-.45-.23-.58-.16-.14-.39-.21-.7-.21a2 2 0 00-1.15.37l-.42-.81c.22-.16.48-.28.78-.36.31-.08.63-.13.95-.13zm-.1 3.35c.2 0 .38-.04.53-.13.16-.1.27-.23.33-.41v-.41h-.8c-.48 0-.71.16-.71.47 0 .15.05.27.17.36.12.08.28.12.48.12zM41.56 5.6c-.43 0-.81-.09-1.15-.26-.34-.18-.6-.43-.8-.74a2.03 2.03 0 01-.29-1.07 1.99 1.99 0 011.08-1.8c.35-.18.73-.27 1.16-.27.43 0 .8.1 1.1.27.33.18.56.43.7.76l-.9.48a.99.99 0 00-.9-.55c-.3 0-.56.1-.76.3-.2.2-.3.47-.3.81 0 .34.1.61.3.81.2.2.45.3.75.3.4 0 .7-.18.9-.55l.91.5a1.6 1.6 0 01-.7.74c-.3.18-.67.27-1.1.27zM45.73 3.96l-.56.56v1.02H44V0h1.17v3.13l1.7-1.6h1.39l-1.68 1.7 1.83 2.3h-1.42l-1.26-1.57z" fill="#000"/>
  <path d="M0 11.3c0-1.73 1.4-3.12 3.11-3.12h12.28c1.72 0 3.11 1.4 3.11 3.11v12.28c0 1.72-1.39 3.11-3.1 3.11H3.1A3.11 3.11 0 010 23.58V11.28z" fill="#E84039"/>
  <path d="M10.03 14.44c.23.4.5.84.88 1.11.38.27.87.37 1.34.45 1.57.29 1.62.41.55 1.5-.32.33-.66.7-.81 1.15-.14.43-.09.91-.02 1.37.2 1.54.1 1.62-1.3.97-.43-.2-.9-.4-1.38-.4-.47 0-.93.2-1.35.4-1.44.67-1.56.6-1.36-.89.07-.45.11-.95-.04-1.39-.14-.43-.49-.79-.8-1.12-1.1-1.12-1.07-1.25.45-1.52.47-.09.97-.2 1.36-.47.38-.26.62-.7.85-1.1.76-1.36.9-1.37 1.63-.06z" fill="#fff"/>
</svg>
