<?xml version="1.0" encoding="utf-8"?>
<!-- Generator: Adobe Illustrator 16.0.4, SVG Export Plug-In . SVG Version: 6.00 Build 0)  -->
<!DOCTYPE svg PUBLIC "-//W3C//DTD SVG 1.1//EN" "http://www.w3.org/Graphics/SVG/1.1/DTD/svg11.dtd">
<svg version="1.1" id="Logo_1_" xmlns="http://www.w3.org/2000/svg" xmlns:xlink="http://www.w3.org/1999/xlink" x="0px" y="0px"
	 width="56px" height="56px" viewBox="0 0 56 56" enable-background="new 0 0 56 56" xml:space="preserve">
<g id="Rounded_Rectangle_2">
	<g>
		<path fill="#BA005A" d="M52.924,0H3.313C1.546,0,0.113,1.433,0.113,3.199V52.79c0,1.767,1.433,3.199,3.201,3.199h49.61
			c1.768,0,3.201-1.433,3.201-3.199V3.199C56.125,1.433,54.691,0,52.924,0z"/>
	</g>
</g>
<g id="LCN">
	<g>
		<rect y="31.141" fill="none" width="56" height="25.109"/>
		<path fill="#FFFDFE" d="M7.046,33.141c0-0.748,0.59-1.343,1.356-1.343c0.743,0,1.333,0.595,1.333,1.343v11.706h6.932
			c0.678,0,1.225,0.55,1.225,1.231c0,0.683-0.547,1.232-1.225,1.232H8.402c-0.766,0-1.356-0.594-1.356-1.364V33.141z"/>
		<path fill="#FFFDFE" d="M18.807,39.653v-0.044c0-4.379,3.258-7.965,7.894-7.965c2.362,0,3.915,0.704,5.249,1.738
			c0.283,0.22,0.523,0.594,0.523,1.078c0,0.748-0.59,1.32-1.334,1.32c-0.371,0-0.633-0.133-0.809-0.265
			c-1.049-0.857-2.186-1.386-3.651-1.386c-2.908,0-5.051,2.42-5.051,5.435v0.044c0,3.015,2.121,5.457,5.051,5.457
			c1.618,0,2.712-0.528,3.827-1.475c0.197-0.176,0.48-0.308,0.809-0.308c0.678,0,1.268,0.572,1.268,1.254
			c0,0.418-0.195,0.748-0.438,0.968c-1.441,1.276-3.082,2.068-5.553,2.068C22.131,47.574,18.807,44.076,18.807,39.653z"/>
		<path fill="#FFFDFE" d="M35.619,33.185c0-0.748,0.592-1.364,1.355-1.364h0.285c0.656,0,1.027,0.33,1.398,0.792l7.654,9.968v-9.462
			c0-0.726,0.59-1.32,1.312-1.32c0.742,0,1.332,0.595,1.332,1.32v12.938c0,0.748-0.568,1.342-1.311,1.342h-0.109
			c-0.635,0-1.027-0.33-1.4-0.814l-7.871-10.253v9.77c0,0.726-0.59,1.32-1.312,1.32c-0.742,0-1.334-0.595-1.334-1.32V33.185z"/>
	</g>
</g>
</svg>
