<svg width="20" height="21" viewBox="0 0 20 21" fill="none" xmlns="http://www.w3.org/2000/svg">
    <path fill-rule="evenodd" clip-rule="evenodd"
        d="M3.75391 5.5H16.2539C16.9443 5.5 17.5039 6.05964 17.5039 6.75V8H2.50391V6.75C2.50391 6.05964 3.06355 5.5 3.75391 5.5ZM1.25391 10.5V8V6.75C1.25391 5.36929 2.37319 4.25 3.75391 4.25H16.2539C17.6346 4.25 18.7539 5.36929 18.7539 6.75V8V10.5V14.25C18.7539 15.6307 17.6346 16.75 16.2539 16.75H3.75391C2.37319 16.75 1.25391 15.6307 1.25391 14.25V10.5ZM17.5039 10.5V14.25C17.5039 14.9404 16.9443 15.5 16.2539 15.5H3.75391C3.06355 15.5 2.50391 14.9404 2.50391 14.25V10.5H17.5039Z"
        fill="black" />
</svg>