<svg xmlns="http://www.w3.org/2000/svg" width="124" height="20" viewBox="0 0 124 20">
  <g fill="none" fill-rule="evenodd">
    <path fill="#994FFA" d="M1.9002,10.0953 C2.9502,10.0953 3.8002,10.9463 3.8002,11.9953 C3.8002,13.0453 2.9502,13.8963 1.9002,13.8963 C0.8512,13.8963 0.0002,13.0453 0.0002,11.9953 C0.0002,10.9463 0.8512,10.0953 1.9002,10.0953"/>
    <path fill="#BF91FC" d="M1.9002,15.3892 C2.9502,15.3892 3.8002,16.2402 3.8002,17.2902 C3.8002,18.3392 2.9502,19.1902 1.9002,19.1902 C0.8512,19.1902 0.0002,18.3392 0.0002,17.2902 C0.0002,16.2402 0.8512,15.3892 1.9002,15.3892"/>
    <path fill="#5405BD" d="M66.265,15.234 C65.513,15.986 64.558,16.362 63.402,16.362 C62.244,16.362 61.29,15.986 60.51,15.234 C59.758,14.453 59.382,13.47 59.382,12.284 C59.382,11.099 59.758,10.115 60.51,9.363 C61.29,8.583 62.244,8.207 63.402,8.207 C64.558,8.207 65.513,8.583 66.265,9.363 C67.017,10.115 67.393,11.099 67.393,12.284 C67.393,13.47 67.017,14.453 66.265,15.234 L66.265,15.234 Z M67.393,6.76 C66.294,5.343 64.732,4.649 62.707,4.649 C60.77,4.649 59.092,5.401 57.704,6.876 C56.345,8.351 55.651,10.144 55.651,12.284 C55.651,14.424 56.345,16.247 57.704,17.721 C59.092,19.196 60.77,19.92 62.707,19.92 C64.732,19.92 66.294,19.225 67.393,17.808 L67.393,19.515 L71.123,19.515 L71.123,0 L67.393,0 L67.393,6.76 Z M77.308,11.005 C77.742,9.154 79.101,8.084 81.097,8.084 C82.803,8.084 84.249,9.039 84.682,11.005 L77.308,11.005 Z M81.097,4.729 C78.869,4.729 77.018,5.452 75.601,6.927 C74.184,8.373 73.461,10.195 73.461,12.364 C73.461,14.563 74.184,16.384 75.63,17.831 C77.077,19.276 78.985,20 81.386,20 C84.162,20 86.273,18.959 87.69,16.905 L84.682,15.17 C83.959,16.124 82.861,16.616 81.444,16.616 C79.217,16.616 77.857,15.719 77.366,13.897 L88.269,13.897 C88.357,13.391 88.406,12.879 88.413,12.364 C88.413,10.195 87.719,8.402 86.331,6.927 C84.972,5.452 83.207,4.729 81.097,4.729 L81.097,4.729 Z M97.176,10.832 C95.701,10.456 94.544,10.022 94.544,9.241 C94.544,8.518 95.266,8.055 96.221,8.055 C97.291,8.055 98.072,8.547 98.535,9.53 L101.716,7.795 C100.588,5.828 98.564,4.729 96.221,4.729 C94.66,4.729 93.358,5.134 92.288,5.973 C91.246,6.783 90.726,7.911 90.726,9.328 C90.726,12.336 93.416,13.232 95.556,13.782 C97.031,14.158 98.188,14.591 98.188,15.372 C98.188,16.211 97.522,16.616 96.192,16.616 C94.717,16.616 93.792,15.98 93.358,14.736 L90.119,16.558 C91.189,18.843 93.213,20 96.192,20 C97.841,20 99.229,19.595 100.328,18.814 C101.456,18.004 102.005,16.847 102.005,15.372 C102.034,12.278 99.286,11.265 97.176,10.832 L97.176,10.832 Z M117.565,5.134 L113.111,5.134 L108.137,11.497 L108.137,0.053 L104.406,0.053 L104.406,19.595 L108.137,19.595 L108.137,13.03 L113.401,19.595 L117.739,19.595 L111.752,12.278 L117.565,5.134 Z M121.439,8.309 C120.552,8.309 119.832,7.589 119.832,6.702 C119.832,5.814 120.552,5.095 121.439,5.095 C122.326,5.096 123.045,5.815 123.046,6.702 C123.046,7.589 122.327,8.309 121.439,8.309 L121.439,8.309 Z M121.439,4.801 C120.39,4.801 119.538,5.652 119.538,6.702 C119.538,7.751 120.39,8.602 121.439,8.602 C122.488,8.601 123.338,7.751 123.339,6.702 C123.339,5.652 122.489,4.801 121.439,4.801 L121.439,4.801 Z M121.706,6.527 C121.632,6.578 121.543,6.605 121.453,6.604 L121.112,6.604 L121.112,6.046 L121.414,6.046 C121.519,6.036 121.625,6.06 121.717,6.113 C121.78,6.17 121.811,6.254 121.803,6.338 C121.804,6.413 121.768,6.484 121.706,6.527 L121.706,6.527 Z M122.1,7.182 C122.119,6.991 122.009,6.81 121.831,6.737 C121.999,6.67 122.11,6.507 122.111,6.326 C122.12,6.166 122.052,6.01 121.926,5.91 C121.774,5.806 121.591,5.755 121.407,5.767 L120.804,5.767 L120.804,7.622 L121.112,7.622 L121.112,6.883 L121.497,6.883 C121.664,6.889 121.76,6.962 121.783,7.102 C121.789,7.181 121.791,7.261 121.789,7.341 C121.785,7.436 121.795,7.53 121.82,7.622 L122.137,7.622 L122.137,7.587 C122.107,7.5 122.095,7.408 122.1,7.316 L122.1,7.182 Z M1.9,4.801 C0.851,4.801 -2.84217094e-14,5.652 -2.84217094e-14,6.702 C-2.84217094e-14,7.751 0.851,8.602 1.9,8.602 C2.95,8.602 3.801,7.751 3.801,6.702 C3.801,5.652 2.95,4.801 1.9,4.801 L1.9,4.801 Z M55.448,5.134 L50.994,5.134 L46.02,11.497 L46.02,0.053 L42.289,0.053 L42.289,19.595 L46.02,19.595 L46.02,13.03 L51.284,19.595 L55.621,19.595 L49.635,12.278 L55.448,5.134 Z M35.139,19.595 L38.869,19.595 L38.869,0.053 L35.139,0.053 L35.139,19.595 Z M26.874,15.315 C26.122,16.067 25.168,16.442 24.011,16.442 C22.854,16.442 21.9,16.067 21.148,15.315 C20.396,14.534 20.02,13.55 20.02,12.364 C20.02,11.179 20.396,10.195 21.148,9.443 C21.9,8.663 22.854,8.287 24.011,8.287 C25.168,8.287 26.122,8.663 26.874,9.443 C27.655,10.195 28.031,11.179 28.031,12.364 C28.031,13.55 27.655,14.534 26.874,15.315 L26.874,15.315 Z M28.031,6.84 C26.903,5.423 25.341,4.729 23.317,4.729 C21.379,4.729 19.73,5.481 18.342,6.956 C16.983,8.431 16.289,10.224 16.289,12.364 C16.289,14.505 16.983,16.327 18.342,17.801 C19.73,19.276 21.379,20 23.317,20 C25.341,20 26.903,19.305 28.031,17.888 L28.031,19.595 L31.762,19.595 L31.762,5.134 L28.031,5.134 L28.031,6.84 Z M11.307,0 L7.577,0 L7.577,14.94 C7.577,18.902 9.456,20.377 14.576,19.798 L14.576,16.415 C12.435,16.53 11.307,16.502 11.307,14.94 L11.307,8.64 L14.576,8.64 L14.576,5.053 L11.307,5.053 L11.307,0 Z"/>
  </g>
</svg>
