<svg width="156" height="24" fill="none" xmlns="http://www.w3.org/2000/svg"><g clip-path="url(#a)"><path d="M13.855 0c-3.548 0-5.6 2.813-5.6 6.414 0 3.601.727 6.068.88 6.668.364 1.382 1.447 1.811 2.42 1.536.43-.121.831-.457 1.046-.82.275-.474.346-.892.126-1.889-.16-.738-.698-3.16-.698-5.495 0-1.475.605-2.631 1.82-2.631 1.216 0 1.837 1.15 1.837 2.637 0 8.369-3.509 12.09-6.985 12.09-3.476 0-4.933-2.659-4.933-4.938V7.824A1.89 1.89 0 0 0 1.88 5.935 1.89 1.89 0 0 0-.005 7.824v5.748c0 5.137 3.58 8.721 8.712 8.721 5.131 0 10.763-4.883 10.763-15.868 0-3.584-2.062-6.42-5.615-6.42V0Z" fill="url(#b)"/><path d="M25.823 0a1.89 1.89 0 0 0-1.887 1.889v11.71c0 1.658-.599 3.166-1.6 4.03-.896.777-1.732.915-3.174.904-.968-.006-1.765.6-1.92 1.585a1.834 1.834 0 0 0 .37 1.41c.654.804 1.644.776 2.359.776 2.431 0 3.861-.969 4.835-1.817 1.842-1.596 2.904-4.113 2.904-6.893V1.889A1.89 1.89 0 0 0 25.823 0Z" fill="url(#c)"/><path d="M108.968 13.346h-3.019l2.893-7.075h-3.916l-3.46 8.022-.027.072-.011 2.39h7.54v2.169h3.795v-8.292h-3.795v2.714Zm-61.172-.292-1.974-6.788h-3.537l-1.975 6.788-1.82-6.788h-4.043l4.043 12.658h3.542l2.024-6.756 2.019 6.756h3.542l4.048-12.658h-4.048l-1.82 6.788ZM60.49 5.913c-3.718 0-6.699 2.913-6.699 6.684 0 3.772 2.981 6.685 6.7 6.685 3.717 0 6.698-2.913 6.698-6.685 0-3.771-2.98-6.684-6.699-6.684Zm0 9.669c-1.644 0-2.91-1.19-2.91-2.99 0-1.8 1.266-2.984 2.91-2.984 1.645 0 2.91 1.189 2.91 2.984s-1.265 2.99-2.91 2.99Zm12.266-7.059V6.271H68.96V18.93h3.796v-5.72c0-2.506 2.227-3.139 3.795-2.886V6.018c-1.595 0-3.29.81-3.795 2.505ZM82.364.446H78.57v18.478h3.795V.446ZM94.047 7.46c-.836-.963-2.074-1.541-3.768-1.541-3.311 0-6.045 2.912-6.045 6.684 0 3.771 2.734 6.684 6.045 6.684 1.694 0 2.932-.584 3.768-1.542v1.19h3.795V1.205h-3.795V7.46Zm-3.009 8.226c-1.743 0-3.008-1.19-3.008-3.089 0-1.9 1.264-3.088 3.008-3.088s3.009 1.189 3.009 3.088c0 1.9-1.265 3.09-3.009 3.09Zm31.202-1.674-2.805-7.746h-4.174l5.032 12.074c-.555 1.542-1.391 2.103-3.162 2.103v3.546c3.542.176 5.791-1.42 7.205-5.44l4.323-12.278h-4.048l-2.376 7.747.005-.006Zm13.278-8.099c-3.719 0-6.7 2.913-6.7 6.684 0 3.772 2.987 6.685 6.7 6.685 3.712 0 6.699-2.913 6.699-6.685 0-3.771-2.981-6.684-6.699-6.684Zm0 9.669c-1.645 0-2.91-1.19-2.91-2.99 0-1.8 1.265-2.984 2.91-2.984 1.644 0 2.909 1.189 2.909 2.984s-1.265 2.99-2.909 2.99Zm16.692-9.316v6.91c0 1.794-.962 2.61-2.354 2.61-1.215 0-2.2-.733-2.2-2.302V6.266h-3.795v7.768c0 3.42 2.173 5.242 4.73 5.242 1.672 0 2.932-.606 3.619-1.542v1.19h3.795V6.266h-3.795Z" fill="#000"/></g><defs><linearGradient id="b" x1="-8.432" y1="25.608" x2="23.174" y2="1.298" gradientUnits="userSpaceOnUse"><stop offset=".45" stop-color="#5232DB"/><stop offset=".85" stop-color="#755BE2"/></linearGradient><linearGradient id="c" x1="2.448" y1="27.639" x2="26.298" y2="9.29" gradientUnits="userSpaceOnUse"><stop offset=".55" stop-color="#5232DB"/><stop offset="1" stop-color="#755BE2"/></linearGradient><clipPath id="a"><path fill="#fff" d="M0 0h156v24H0z"/></clipPath></defs></svg>