<svg width="22" height="22" viewBox="0 0 22 22" fill="none" xmlns="http://www.w3.org/2000/svg">
    <path
        d="M6.61556 2.77921C8.15025 1.24452 8.91759 0.477175 9.80244 0.189671C10.5808 -0.0632238 11.4192 -0.0632238 12.1975 0.189672C13.0824 0.477175 13.8497 1.24452 15.3844 2.77921L19.2208 6.61558C20.7555 8.15027 21.5228 8.91762 21.8103 9.80246C22.0632 10.5808 22.0632 11.4192 21.8103 12.1975C21.5228 13.0824 20.7555 13.8497 19.2208 15.3844L15.3844 19.2208C13.8497 20.7555 13.0824 21.5228 12.1975 21.8103C11.4192 22.0632 10.5808 22.0632 9.80244 21.8103C8.91759 21.5228 8.15025 20.7555 6.61556 19.2208L5.89427 18.4122C5.4578 17.9228 5.23956 17.6782 5.08396 17.3999C4.94596 17.1531 4.84471 16.8875 4.78341 16.6114C4.7143 16.3002 4.7143 15.9723 4.7143 15.3166L4.71429 6.68338C4.71429 6.02767 4.71429 5.69981 4.78341 5.38857C4.8447 5.11253 4.94595 4.84691 5.08396 4.60011C5.23956 4.32184 5.4578 4.07717 5.89427 3.58784L6.61556 2.77921Z"
        fill="url(#paint0_radial_455_4599)" />
    <path
        d="M6.61556 2.77921C8.15025 1.24452 8.91759 0.477175 9.80244 0.189671C10.5808 -0.0632238 11.4192 -0.0632238 12.1975 0.189672C13.0824 0.477175 13.8497 1.24452 15.3844 2.77921L19.2208 6.61558C20.7555 8.15027 21.5228 8.91762 21.8103 9.80246C22.0632 10.5808 22.0632 11.4192 21.8103 12.1975C21.5228 13.0824 20.7555 13.8497 19.2208 15.3844L15.3844 19.2208C13.8497 20.7555 13.0824 21.5228 12.1975 21.8103C11.4192 22.0632 10.5808 22.0632 9.80244 21.8103C8.91759 21.5228 8.15025 20.7555 6.61556 19.2208L5.89427 18.4122C5.4578 17.9228 5.23956 17.6782 5.08396 17.3999C4.94596 17.1531 4.84471 16.8875 4.78341 16.6114C4.7143 16.3002 4.7143 15.9723 4.7143 15.3166L4.71429 6.68338C4.71429 6.02767 4.71429 5.69981 4.78341 5.38857C4.8447 5.11253 4.94595 4.84691 5.08396 4.60011C5.23956 4.32184 5.4578 4.07717 5.89427 3.58784L6.61556 2.77921Z"
        fill="url(#paint1_linear_455_4599)" />
    <path
        d="M6.34156 3.05318C7.1089 2.28583 7.49257 1.90216 7.935 1.75841C8.32416 1.63196 8.74337 1.63196 9.13253 1.75841C9.57496 1.90216 9.95863 2.28583 10.726 3.05318L16.4805 8.80773C17.2479 9.57508 17.6315 9.95875 17.7753 10.4012C17.9017 10.7903 17.9017 11.2095 17.7753 11.5987C17.6315 12.0411 17.2479 12.4248 16.4805 13.1922L10.726 18.9467C9.95863 19.714 9.57496 20.0977 9.13253 20.2415C8.74337 20.3679 8.32416 20.3679 7.93499 20.2415C7.49257 20.0977 7.1089 19.714 6.34155 18.9467L2.77921 15.3844C1.24452 13.8497 0.477175 13.0823 0.189671 12.1975C-0.0632238 11.4191 -0.0632238 10.5807 0.189672 9.8024C0.477175 8.91756 1.24452 8.15021 2.77921 6.61552L6.34156 3.05318Z"
        fill="url(#paint2_radial_455_4599)" />
    <defs>
        <radialGradient id="paint0_radial_455_4599" cx="0" cy="0" r="1"
            gradientUnits="userSpaceOnUse"
            gradientTransform="translate(6.63957 22.4288) rotate(-58.142) scale(18.3646 28.7185)">
            <stop stop-color="#FFD580" />
            <stop offset="0.09375" stop-color="#F6C592" />
            <stop offset="0.205" stop-color="#EBB6A2" />
            <stop offset="0.324466" stop-color="#DFA5AF" />
            <stop offset="0.42875" stop-color="#D397BE" />
            <stop offset="0.53375" stop-color="#C486CB" />
            <stop offset="0.64875" stop-color="#B578D9" />
            <stop offset="0.77125" stop-color="#A166E5" />
            <stop offset="0.89125" stop-color="#8B57F2" />
            <stop offset="1" stop-color="#704CFF" />
        </radialGradient>
        <linearGradient id="paint1_linear_455_4599" x1="5.88186" y1="-4.36833" x2="10.1602"
            y2="21.7474" gradientUnits="userSpaceOnUse">
            <stop stop-color="#6D4AFF" />
            <stop offset="0.392009" stop-color="#B39FFB" stop-opacity="0.978022" />
            <stop offset="1" stop-color="#FFE8DB" stop-opacity="0.8" />
        </linearGradient>
        <radialGradient id="paint2_radial_455_4599" cx="0" cy="0" r="1"
            gradientUnits="userSpaceOnUse"
            gradientTransform="translate(5.02643 20.1926) rotate(-58.142) scale(14.7715 23.0997)">
            <stop stop-color="#FFD580" />
            <stop offset="0.09375" stop-color="#F6C592" />
            <stop offset="0.205" stop-color="#EBB6A2" />
            <stop offset="0.324466" stop-color="#DFA5AF" />
            <stop offset="0.42875" stop-color="#D397BE" />
            <stop offset="0.53375" stop-color="#C486CB" />
            <stop offset="0.64875" stop-color="#B578D9" />
            <stop offset="0.77125" stop-color="#A166E5" />
            <stop offset="0.89125" stop-color="#8B57F2" />
            <stop offset="1" stop-color="#704CFF" />
        </radialGradient>
    </defs>
</svg>