<svg xmlns="http://www.w3.org/2000/svg" xmlns:xlink="http://www.w3.org/1999/xlink" viewBox="0 0 176.31657 180.43182"><defs><style>.cls-1{fill:url(#未命名的渐变_11);}.cls-2{fill:#1fc0ff;}</style><linearGradient id="未命名的渐变_11" x1="57.56774" y1="59.74464" x2="124.56774" y2="115.74464" gradientUnits="userSpaceOnUse"><stop offset="0" stop-color="#1fc0ff"/><stop offset="1" stop-color="#80e7ff"/></linearGradient></defs><g id="图层_2" data-name="图层 2"><g id="图层_1-2" data-name="图层 1"><path class="cls-1" d="M147.722,97.70268a39.68841,39.68841,0,0,1-14.39553,5.96949,51.96392,51.96392,0,0,1-14.01064,1.53811,41.18844,41.18844,0,0,1-6.61879-.74878c-.53605-.08467-1.07147-.2179-1.60182-.34372-.51836-.13551-1.0851-.22343-1.54668-.397l-1.42434-.45762c-.47036-.16381-.93875-.37145-1.39994-.54844l-.68863-.27309-.68018-.32765c-.45029-.22214-.89838-.41606-1.337-.64894-.8729-.50071-1.73674-.94212-2.5526-1.51017a29.58436,29.58436,0,0,1-4.52763-3.55726,25.98821,25.98821,0,0,1-3.51578-4.08166c-.96852-1.41464-4.40471-5.96632-4.66127-11.78051a51.33826,51.33826,0,0,1,2.48408-17.38081c3.26088-10.27219.36879-15.60056-10.22554-17.57825A17.74229,17.74229,0,0,0,66.37824,49.23a29.084,29.084,0,0,0-6.69279,8.60547,38.76892,38.76892,0,0,0-3.97278,15.02217A43.7349,43.7349,0,0,0,56.71374,85.5622a41.81909,41.81909,0,0,0,4.694,11.77023,45.76427,45.76427,0,0,0,7.13949,8.89427,50.14164,50.14164,0,0,0,8.35491,6.34A52.72369,52.72369,0,0,0,94.96,119.21252c1.52556.29721,3.08976.43671,4.62029.59824.77137.064,1.55308.08329,2.322.12053l1.15175.04463.00048.00009,1.164-.01965c.77544-.02164,1.538-.02234,2.30841-.07275l2.3071-.2081c.78106-.05437,1.46368-.20808,2.191-.31272.71592-.11521,1.42734-.22629,2.13646-.389a54.47432,54.47432,0,0,0,8.23963-2.33676,55.33978,55.33978,0,0,0,7.559-3.43389,63.67586,63.67586,0,0,0,6.80049-4.25847c4.27561-3.0221,8.351-7.71229,11.98229-11.21031C147.7586,97.71945,147.7396,97.69027,147.722,97.70268Z"/><path class="cls-2" d="M118.623,2.25027a76.1281,76.1281,0,0,0-90.94519,51.271C27.46772,54.05471.38953,164.15945.38953,164.15945a13.10937,13.10937,0,1,0,25.4458,6.31934l12.281-50.73853A75.93482,75.93482,0,0,0,154.595,129.218c.29968-.30517,1.09314-1.31567,1.27807-1.50073a10.35613,10.35613,0,0,0-14.64581-14.64575c-.12317.123-.23071.25537-.34638.3833l-.06536-.03272a55.633,55.633,0,1,1,14.0097-26.33374c-1.415,5.25855-1.15314,8.574,2.027,11.75391a10.36345,10.36345,0,0,0,15.96728-1.61694,17.97154,17.97154,0,0,0,1.63214-4.49A76.10763,76.10763,0,0,0,118.623,2.25027Z"/></g></g></svg>