<svg id="tello-Outline" xmlns="http://www.w3.org/2000/svg" viewBox="0 0 80 54">
	<defs>
			<style>
			.holder {
				fill: #0C84D9;
				stroke : #0C84D9;
			}

			.logotype_path{
				fill: #FFFFFF;
			}
		</style>
	</defs>
	<title>logo-tello-fullColor</title>
	<g class="logo">
		<path class="holder" d="M67.07,2H12.93A10.93,10.93,0,0,0,2,12.93V41.07A10.9,10.9,0,0,0,12.58,52c8.41,0,9.5-4.06,5.62-9.53,8.86,2.82,7,9.55,13.31,9.55H67.07A10.93,10.93,0,0,0,78,41.07V12.93A10.93,10.93,0,0,0,67.07,2Z" />
		<g class="logotype">
			<path class="logotype_path" d="M17.22,22.43c-.12,1.48-.26,3-.4,4.43-.06.69-.12,1.38-.16,2.07a13.6,13.6,0,0,0,0,1.81,1.6,1.6,0,0,0,.15.67.73.73,0,0,0,.66.32,1.64,1.64,0,0,0,.9-.28c.14-.09.28-.19.42-.29a1.59,1.59,0,0,1,.38-.24.55.55,0,0,1,.68.27,1.55,1.55,0,0,1,.14.63,5.41,5.41,0,0,1-.15,1.88A3.47,3.47,0,0,1,19,35.15a2.9,2.9,0,0,1-1.14.73,5.87,5.87,0,0,1-1.72.31,8.14,8.14,0,0,1-1.93-.11,3.61,3.61,0,0,1-2.49-1.57,5.88,5.88,0,0,1-.61-3.41c.06-1.25.2-2.49.32-3.74s.23-2.57.33-3.85q0-.54.08-1.08h-1.7c-.1,0-.24,0-.31-.09A.66.66,0,0,1,9.77,22c0-.43.05-.86.08-1.29a3.57,3.57,0,0,1,.41-1.84,1.75,1.75,0,0,1,1-.67,3.09,3.09,0,0,1,.62-.1h.27c.05,0,0,0,.08,0a1.24,1.24,0,0,0,.11-.29c.36-.94.68-1.89,1.05-2.83a8,8,0,0,1,.58-1.24.82.82,0,0,1,.33-.35.51.51,0,0,1,.2,0,6.74,6.74,0,0,1,1.62.09,1.81,1.81,0,0,1,.89.49,2.59,2.59,0,0,1,.54,1,6.7,6.7,0,0,1,.14,2.43q0,.37-.05.74h3a1.77,1.77,0,0,1,.7.06c.31.15.21.59.18.86l-.09,1.17a3.22,3.22,0,0,1-.41,1.5,1.76,1.76,0,0,1-1.37.75,9.23,9.23,0,0,1-1.19,0H17.22Z" />
			<path class="logotype_path" d="M28.82,36.2a8.87,8.87,0,0,1-5-1.35,6.6,6.6,0,0,1-2.56-3.68,12.12,12.12,0,0,1-.12-4.9,12.6,12.6,0,0,1,.7-2.64A10.76,10.76,0,0,1,23,21.26a8.38,8.38,0,0,1,3.88-2.95,8.91,8.91,0,0,1,2.26-.52,12.66,12.66,0,0,1,2.66,0,5.47,5.47,0,0,1,4,2,4.66,4.66,0,0,1,.77,2.36,5.53,5.53,0,0,1-.34,2.42,6.07,6.07,0,0,1-3.51,3.17,16.4,16.4,0,0,1-5.29,1l-1,0a3.79,3.79,0,0,0,.57,2.07A2.72,2.72,0,0,0,28.59,32a3.55,3.55,0,0,0,2,0A3.31,3.31,0,0,0,32,30.8a1.36,1.36,0,0,1,.3-.32.72.72,0,0,1,.41-.11,2.78,2.78,0,0,1,.88.18A2.44,2.44,0,0,1,35,31.87a2.51,2.51,0,0,1-.11,1.9,3.41,3.41,0,0,1-1.32,1.34,9,9,0,0,1-4.22,1.07ZM29.44,22c-1.54,0-2.31,1.63-2.61,2.92-.1.43-.18.86-.24,1.29a7.11,7.11,0,0,0,3.35-.73,2.21,2.21,0,0,0,1-1.08,1.94,1.94,0,0,0-.06-1.53,1.51,1.51,0,0,0-.58-.66A1.77,1.77,0,0,0,29.44,22Z" />
			<path class="logotype_path" d="M40.71,36.17a4.05,4.05,0,0,1-2.46-.66,3.15,3.15,0,0,1-1.07-1.81A9.22,9.22,0,0,1,37,30.81c.07-.93.16-1.86.24-2.8q.28-3,.5-6t.41-6.18q.05-.82.1-1.65c0-.56,0-1.14.1-1.7a1.09,1.09,0,0,1,.11-.45c.08-.13.27-.13.41-.14h.64a9.38,9.38,0,0,1,2,.11,2.55,2.55,0,0,1,2,1.74,4.61,4.61,0,0,1,.12,1.41c0,.5,0,1-.08,1.5-.07,1.06-.16,2.12-.25,3.18q-.29,3.42-.56,6.84c-.08,1-.16,2-.2,3A3.73,3.73,0,0,0,42.63,31a1.52,1.52,0,0,0,.87.89l.38.13.39.08a.29.29,0,0,1,.18.11.72.72,0,0,1,0,.34,5.07,5.07,0,0,1-.31,1.63,3.08,3.08,0,0,1-2,1.84A5.07,5.07,0,0,1,40.71,36.17Z" />
			<path class="logotype_path" d="M48.88,36.17a4.05,4.05,0,0,1-2.46-.66,3.15,3.15,0,0,1-1.07-1.81,9.22,9.22,0,0,1-.19-2.89c.07-.93.16-1.86.24-2.8q.28-3,.5-6t.41-6.18q.05-.82.1-1.65c0-.56,0-1.14.1-1.7a1.09,1.09,0,0,1,.11-.45c.08-.13.27-.13.41-.14h.64a9.38,9.38,0,0,1,2,.11,2.55,2.55,0,0,1,2,1.74,4.61,4.61,0,0,1,.12,1.41c0,.5,0,1-.08,1.5-.07,1.06-.16,2.12-.25,3.18q-.29,3.42-.56,6.84c-.08,1-.16,2-.2,3A3.73,3.73,0,0,0,50.8,31a1.52,1.52,0,0,0,.87.89l.38.13.39.08a.29.29,0,0,1,.18.11.72.72,0,0,1,0,.34,5.07,5.07,0,0,1-.31,1.63,3.08,3.08,0,0,1-2,1.84A5.07,5.07,0,0,1,48.88,36.17Z" />
			<path class="logotype_path" d="M60.55,36.2a8.14,8.14,0,0,1-5.25-1.55,5.86,5.86,0,0,1-1.62-2.15,9.41,9.41,0,0,1-.7-2.9,15.26,15.26,0,0,1,0-3.28,12.79,12.79,0,0,1,.69-3.06A8.28,8.28,0,0,1,57.17,19a8.65,8.65,0,0,1,2.44-1,12.85,12.85,0,0,1,2.92-.32,9.09,9.09,0,0,1,4.87,1.09,6,6,0,0,1,2.49,3.64,10.9,10.9,0,0,1,.34,2.75A16.11,16.11,0,0,1,70,28.33a10.35,10.35,0,0,1-2.78,5.5,8.71,8.71,0,0,1-5.1,2.28A13.74,13.74,0,0,1,60.55,36.2ZM62.07,22a3.43,3.43,0,0,0-1.3.23,2.78,2.78,0,0,0-1,.7,5.06,5.06,0,0,0-1.19,2.52,11.74,11.74,0,0,0-.19,2.81,5.64,5.64,0,0,0,.5,2.3,2.28,2.28,0,0,0,1.7,1.26,2.7,2.7,0,0,0,2.32-.72c1.37-1.37,1.72-3.46,1.79-5.32a5.45,5.45,0,0,0-.4-2.5,2.16,2.16,0,0,0-.62-.82,2.26,2.26,0,0,0-1-.41A3.76,3.76,0,0,0,62.07,22Z" />
		</g>
	</g>
</svg>
