<svg width="21" height="21" viewBox="0 0 21 21" fill="none" xmlns="http://www.w3.org/2000/svg">
    <path fill-rule="evenodd" clip-rule="evenodd"
        d="M16.75 8H13.625C12.5895 8 11.75 7.16053 11.75 6.125V3H5.5C4.80964 3 4.25 3.55964 4.25 4.25V16.75C4.25 17.4404 4.80964 18 5.5 18H15.5C16.1904 18 16.75 17.4404 16.75 16.75V8ZM13 3.51777L16.2322 6.75H13.625C13.2798 6.75 13 6.47018 13 6.125V3.51777ZM5.5 1.75C4.11929 1.75 3 2.86929 3 4.25V16.75C3 18.1307 4.11929 19.25 5.5 19.25H15.5C16.8807 19.25 18 18.1307 18 16.75V7.78553C18 7.12249 17.7366 6.48661 17.2678 6.01777L13.7322 2.48223C13.2634 2.01339 12.6275 1.75 11.9645 1.75H5.5ZM6.75 9.25C6.40482 9.25 6.125 9.52982 6.125 9.875C6.125 10.2202 6.40482 10.5 6.75 10.5H13.625C13.9702 10.5 14.25 10.2202 14.25 9.875C14.25 9.52982 13.9702 9.25 13.625 9.25H6.75ZM6.125 12.375C6.125 12.0298 6.40482 11.75 6.75 11.75H11.125C11.4702 11.75 11.75 12.0298 11.75 12.375C11.75 12.7202 11.4702 13 11.125 13H6.75C6.40482 13 6.125 12.7202 6.125 12.375ZM6.75 14.25C6.40482 14.25 6.125 14.5298 6.125 14.875C6.125 15.2202 6.40482 15.5 6.75 15.5H13.625C13.9702 15.5 14.25 15.2202 14.25 14.875C14.25 14.5298 13.9702 14.25 13.625 14.25H6.75Z"
        fill="black" />
</svg>