<svg width="21" height="21" viewBox="0 0 21 21" fill="none" xmlns="http://www.w3.org/2000/svg">
    <path fill-rule="evenodd" clip-rule="evenodd"
        d="M13 6.75C13 8.13071 11.8807 9.25 10.5 9.25C9.11929 9.25 8 8.13071 8 6.75C8 5.36929 9.11929 4.25 10.5 4.25C11.8807 4.25 13 5.36929 13 6.75ZM14.25 6.75C14.25 8.82107 12.5711 10.5 10.5 10.5C8.42893 10.5 6.75 8.82107 6.75 6.75C6.75 4.67893 8.42893 3 10.5 3C12.5711 3 14.25 4.67893 14.25 6.75ZM5.31936 14.2255C5.78158 13.474 6.62514 13 7.55098 13H13.449C14.3749 13 15.2184 13.474 15.6806 14.2255L16.6584 15.8152C16.8859 16.1852 16.6468 16.75 16.075 16.75H4.92505C4.3532 16.75 4.11405 16.1852 4.3416 15.8152L5.31936 14.2255ZM4.25464 13.5706C4.94937 12.4411 6.20067 11.75 7.55098 11.75H13.449C14.7993 11.75 16.0506 12.4411 16.7454 13.5706L17.7231 15.1603C18.4918 16.4101 17.569 18 16.075 18H4.92505C3.43103 18 2.50821 16.4101 3.27688 15.1603L4.25464 13.5706Z"
        fill="black" />
</svg>    