<svg width="153" height="40" viewBox="0 0 153 40" fill="none" xmlns="http://www.w3.org/2000/svg">
<path d="M38.3862 12.2057C37.3871 9.8222 35.9462 7.68861 34.1018 5.84334C32.2767 4.0173 30.1249 2.57568 27.7426 1.55694C25.3026 0.538202 22.6705 0 19.9808 0C17.2911 0 14.659 0.538203 12.1998 1.57617C9.81748 2.57568 7.68492 4.0173 5.85975 5.86257C4.03458 7.68861 2.59366 9.84142 1.57541 12.2249C0.537944 14.666 0 17.2994 0 19.9904C0 22.6814 0.537944 25.3148 1.57541 27.7751C2.57445 30.1586 4.01537 32.2922 5.85975 34.1374C7.68492 35.9635 9.8367 37.4051 12.219 38.4238C14.6782 39.4618 17.2911 40 20 40C22.7089 40 25.3218 39.4618 27.781 38.4238C30.1633 37.4243 32.2959 35.9827 34.1403 34.1374C35.9654 32.3114 37.4063 30.1586 38.4246 27.7751C39.4621 25.3148 40 22.7006 40 19.9904C39.9616 17.2994 39.4236 14.666 38.3862 12.2057ZM32.1614 32.1768C29.2411 35.0985 25.4563 36.8477 21.3833 37.1552L21.3449 25.3916L25.8598 28.2749C26.0903 28.4286 26.3401 28.4863 26.5898 28.4863C27.0509 28.4863 27.4928 28.2556 27.7426 27.852C28.146 27.2177 27.9539 26.3527 27.3199 25.9491L20.6916 21.7203C20.6724 21.7203 20.6532 21.7011 20.6532 21.7011C20.634 21.6819 20.6148 21.6819 20.5956 21.6627C20.5956 21.6627 20.5764 21.6627 20.5764 21.6434C20.5572 21.6434 20.5572 21.6242 20.5379 21.6242C20.5187 21.6242 20.4995 21.605 20.4803 21.605C20.4803 21.605 20.4611 21.605 20.4611 21.5858C20.4419 21.5858 20.4419 21.5858 20.4227 21.5666C20.4035 21.5666 20.3842 21.5473 20.365 21.5473C20.3458 21.5473 20.3458 21.5473 20.3266 21.5473H20.3074H20.2882C20.269 21.5473 20.2498 21.5281 20.2305 21.5281C20.2113 21.5281 20.2113 21.5281 20.1921 21.5281C20.1729 21.5281 20.1729 21.5281 20.1537 21.5281C20.1345 21.5281 20.1153 21.5281 20.0961 21.5281H20.0769C20.0576 21.5281 20.0384 21.5281 20.0192 21.5281C20 21.5281 20 21.5281 19.9808 21.5281C19.9808 21.5281 19.9808 21.5281 19.9616 21.5281H19.9424C19.9232 21.5281 19.8847 21.5281 19.8655 21.5281C19.8463 21.5281 19.8271 21.5281 19.8271 21.5281C19.8079 21.5281 19.7695 21.5281 19.7502 21.5473C19.731 21.5473 19.7118 21.5473 19.6926 21.5473C19.6734 21.5473 19.6542 21.5666 19.635 21.5666C19.6158 21.5666 19.5965 21.5858 19.5773 21.5858C19.5581 21.5858 19.5389 21.605 19.5197 21.605C19.5005 21.605 19.4813 21.6242 19.4428 21.6242C19.4428 21.6242 19.4428 21.6242 19.4236 21.6242C19.4044 21.6242 19.4044 21.6434 19.3852 21.6434C19.366 21.6627 19.3468 21.6627 19.3276 21.6819C19.3276 21.6819 19.3084 21.6819 19.3084 21.7011L12.4111 25.6992C11.7579 26.0836 11.5274 26.9294 11.9116 27.5829C12.1614 28.025 12.6225 28.2749 13.1028 28.2749C13.3333 28.2749 13.5831 28.2172 13.7944 28.0827L18.6167 25.2763L18.6551 37.1552C14.5629 36.8477 10.7589 35.0985 7.83862 32.1576C4.55331 28.9284 2.74736 24.6036 2.74736 19.9904C2.74736 17.3186 3.34294 14.7429 4.49568 12.4171L14.3708 18.049L9.66379 20.5863C8.99135 20.9515 8.7416 21.778 9.10663 22.4507C9.35639 22.9121 9.8367 23.1812 10.317 23.1812C10.5283 23.1812 10.7589 23.1235 10.9702 23.0082L17.8674 19.2792C17.8674 19.2792 17.8866 19.2792 17.8866 19.26C17.9059 19.26 17.9059 19.2407 17.9251 19.2407C17.9443 19.2215 17.9635 19.2215 18.0019 19.2023C18.0211 19.2023 18.0211 19.1831 18.0211 19.1831C18.0403 19.1639 18.0596 19.1639 18.0596 19.1446C18.0596 19.1446 18.0788 19.1254 18.098 19.1254C18.1172 19.1062 18.1364 19.087 18.1556 19.0678L18.1748 19.0485C18.194 19.0293 18.2133 19.0101 18.2325 18.9716L18.2517 18.9524L18.2709 18.9332L18.2901 18.914L18.3093 18.8948C18.3285 18.8755 18.3285 18.8755 18.3477 18.8563C18.367 18.8371 18.367 18.8179 18.3862 18.7987C18.3862 18.7987 18.3862 18.7794 18.4054 18.7794C18.4054 18.7794 18.4054 18.7794 18.4054 18.7602L18.4246 18.741C18.4246 18.7218 18.4438 18.7025 18.4438 18.7025C18.4438 18.6833 18.463 18.6833 18.463 18.6641C18.463 18.6641 18.463 18.6449 18.4822 18.6449C18.4822 18.6257 18.4822 18.6257 18.5014 18.6064V18.5872C18.5014 18.568 18.5207 18.5488 18.5207 18.5296V18.5103C18.5207 18.4911 18.5207 18.4911 18.5207 18.4719V18.4527C18.5207 18.4334 18.5399 18.4142 18.5399 18.395V18.3758C18.5399 18.3566 18.5399 18.3566 18.5399 18.3373C18.5399 18.3181 18.5399 18.2797 18.5591 18.2605C18.5591 18.2605 18.5591 18.2605 18.5591 18.2412C18.5591 18.222 18.5591 18.2028 18.5591 18.1836C18.5591 18.1643 18.5591 18.1451 18.5591 18.1067V18.0875L18.5399 10.1105C18.5399 9.34166 17.9251 8.7458 17.1566 8.7458C16.3881 8.7458 15.7733 9.36088 15.7925 10.1297L15.8117 15.7232L5.89818 10.0529C6.45533 9.26478 7.08934 8.49592 7.80019 7.80394C11.0471 4.5555 15.3698 2.74868 19.9808 2.74868C24.5917 2.74868 28.9145 4.53628 32.1614 7.80394C32.8722 8.51514 33.5062 9.26478 34.0634 10.0721C34.0442 10.0721 34.025 10.0913 34.0058 10.0913L24.2075 15.704L24.2267 10.1105C24.2267 9.34166 23.6119 8.72657 22.8626 8.72657C22.1134 8.72657 21.4793 9.34166 21.4793 10.0913L21.4601 18.0682V18.0875C21.4601 18.1067 21.4601 18.1259 21.4601 18.1643C21.4601 18.1836 21.4601 18.2028 21.4601 18.222C21.4601 18.222 21.4601 18.222 21.4601 18.2412C21.4601 18.2605 21.4601 18.2989 21.4793 18.3181C21.4793 18.3373 21.4793 18.3373 21.4793 18.3566V18.3758C21.4793 18.395 21.4986 18.4142 21.4986 18.4334C21.4986 18.4334 21.4986 18.4334 21.4986 18.4527C21.4986 18.4719 21.4986 18.4719 21.4986 18.4911V18.5103C21.4986 18.5296 21.5178 18.5488 21.5178 18.568V18.5872C21.5178 18.6064 21.5178 18.6064 21.537 18.6257C21.537 18.6257 21.537 18.6449 21.5562 18.6449C21.5562 18.6641 21.5754 18.6641 21.5754 18.6833C21.5754 18.7025 21.5946 18.7218 21.5946 18.7218L21.6138 18.741C21.6138 18.741 21.6138 18.741 21.6138 18.7602C21.6138 18.7602 21.6138 18.7794 21.633 18.7794C21.6523 18.7987 21.6523 18.8179 21.6715 18.8371C21.6715 18.8563 21.6907 18.8563 21.7099 18.8755L21.7291 18.8948L21.7483 18.914L21.7675 18.9332L21.7867 18.9524C21.806 18.9716 21.8252 19.0101 21.8444 19.0293L21.8636 19.0485C21.8828 19.0678 21.902 19.087 21.9212 19.1062L21.9404 19.1254C21.9597 19.1446 21.9789 19.1446 21.9789 19.1639C21.9981 19.1639 21.9981 19.1831 22.0173 19.1831C22.0365 19.2023 22.0557 19.2215 22.0941 19.2215C22.1134 19.2215 22.1134 19.2407 22.1326 19.2407C22.1326 19.2407 22.1518 19.2407 22.1518 19.26L29.049 22.9889C29.2603 23.1043 29.4717 23.1619 29.7022 23.1619C30.1825 23.1619 30.6628 22.8928 30.9126 22.4315C31.2776 21.7588 31.0279 20.9322 30.3554 20.567L25.6484 18.0298L35.3698 12.4556C35.4083 12.4363 35.4275 12.4171 35.4659 12.3979C36.5994 14.7237 37.2142 17.2994 37.2142 19.9519C37.2142 24.6036 35.4083 28.9284 32.1614 32.1768Z" fill="#0CC466"/>
<path d="M78.7802 29.9999L71.4002 19.2299L78.4802 8.99994H73.0202L66.6002 18.1199V8.99994H61.8002V29.9999H66.6002V20.2799L73.3202 29.9999H78.7802Z" fill="#1F2126"/>
<path d="M82.6795 13.6799C84.1495 13.6799 85.3795 12.4499 85.3795 10.9799C85.3795 9.50994 84.1495 8.27994 82.6795 8.27994C81.2095 8.27994 79.9795 9.50994 79.9795 10.9799C79.9795 12.4499 81.2095 13.6799 82.6795 13.6799ZM80.4295 29.9999H84.9295V14.9999H80.4295V29.9999Z" fill="#1F2126"/>
<path d="M95.4224 30.4199C98.3624 30.4199 100.912 28.8899 102.202 26.5499L98.2724 24.2999C97.7924 25.3499 96.6824 25.9799 95.3624 25.9799C93.4124 25.9799 91.9724 24.5699 91.9724 22.4999C91.9724 20.4299 93.4124 19.0199 95.3624 19.0199C96.6824 19.0199 97.7624 19.6499 98.2724 20.6999L102.202 18.4199C100.912 16.1099 98.3324 14.5799 95.4224 14.5799C90.8624 14.5799 87.4724 18.0299 87.4724 22.4999C87.4724 26.9699 90.8624 30.4199 95.4224 30.4199Z" fill="#1F2126"/>
<path d="M118.413 29.9999L112.803 22.4999L118.263 14.9999H113.013L108.513 21.5699V8.99994H104.013V29.9999H108.513V23.3699L113.313 29.9999H118.413Z" fill="#1F2126"/>
<path d="M125.018 25.38V21.66H132.518V17.1H125.018V13.62H133.268V9H120.218V30H133.418V25.38H125.018Z" fill="#0CC466"/>
<path d="M152.626 30L146.356 19.23L152.326 9H146.866L143.626 14.55L140.386 9H134.926L140.896 19.23L134.626 30H140.086L143.626 23.94L147.166 30H152.626Z" fill="#0CC466"/>
</svg>
