<svg width="20" height="21" viewBox="0 0 20 21" fill="none" xmlns="http://www.w3.org/2000/svg">
    <path fill-rule="evenodd" clip-rule="evenodd"
        d="M12.0958 3.20574C13.5131 2.59428 15.1404 3.4006 15.5124 4.89867L16.7493 9.87904H18.123C18.4682 9.87904 18.748 10.1589 18.748 10.504C18.748 10.8492 18.4682 11.129 18.123 11.129H1.87305C1.52787 11.129 1.24805 10.8492 1.24805 10.504C1.24805 10.1589 1.52787 9.87904 1.87305 9.87904H3.24684L4.48368 4.89867C4.85572 3.40061 6.48303 2.59428 7.90032 3.20574L9.25529 3.79032C9.72934 3.99484 10.2667 3.99484 10.7408 3.79032L12.0958 3.20574ZM14.2993 5.19994C14.1132 4.45091 13.2996 4.04775 12.5909 4.35348L11.236 4.93806C10.4459 5.27892 9.55021 5.27892 8.76013 4.93806L7.40515 4.35348C6.69651 4.04775 5.88285 4.45091 5.69683 5.19995L4.54725 9.82895H15.4488L14.2993 5.19994Z"
        fill="black" />
    <path fill-rule="evenodd" clip-rule="evenodd"
        d="M8.21256 13.1292C7.65074 12.2994 6.70058 11.754 5.62305 11.754C3.89716 11.754 2.49805 13.1532 2.49805 14.879C2.49805 16.6049 3.89716 18.004 5.62305 18.004C7.34894 18.004 8.74805 16.6049 8.74805 14.879C8.74805 14.1887 9.30769 13.629 9.99805 13.629C10.6884 13.629 11.248 14.1887 11.248 14.879C11.248 16.6049 12.6472 18.004 14.373 18.004C16.0989 18.004 17.498 16.6049 17.498 14.879C17.498 13.1532 16.0989 11.754 14.373 11.754C13.2955 11.754 12.3454 12.2994 11.7835 13.1292C11.3298 12.6663 10.6975 12.379 9.99805 12.379C9.29863 12.379 8.6663 12.6663 8.21256 13.1292ZM7.49805 14.879C7.49805 15.9146 6.65858 16.754 5.62305 16.754C4.58751 16.754 3.74805 15.9146 3.74805 14.879C3.74805 13.8435 4.58751 13.004 5.62305 13.004C6.65858 13.004 7.49805 13.8435 7.49805 14.879ZM12.498 14.879C12.498 15.9146 13.3375 16.754 14.373 16.754C15.4086 16.754 16.248 15.9146 16.248 14.879C16.248 13.8435 15.4086 13.004 14.373 13.004C13.3375 13.004 12.498 13.8435 12.498 14.879Z"
        fill="black" />
</svg>